SplineFontDB: 3.2
FontName: Krub-SemiBoldItalic
FullName: Krub SemiBold Italic
FamilyName: Krub SemiBold
Weight: Demi
Copyright: Copyright 2018 The Krub Project Authors (https://github.com/cadsondemak/Krub)
Version: 1.000; ttfautohint (v1.6)
ItalicAngle: -8
UnderlinePosition: -100
UnderlineWidth: 50
Ascent: 800
Descent: 200
InvalidEm: 0
sfntRevision: 0x00010000
LayerCount: 2
Layer: 0 1 "Back" 1
Layer: 1 1 "Fore" 0
XUID: [1021 226 -1497385041 6570504]
StyleMap: 0x0001
FSType: 0
OS2Version: 3
OS2_WeightWidthSlopeOnly: 0
OS2_UseTypoMetrics: 0
CreationTime: 1534948280
ModificationTime: 1627863257
PfmFamily: 81
TTFWeight: 600
TTFWidth: 5
LineGap: 0
VLineGap: 0
Panose: 0 0 7 0 0 0 0 0 0 0
OS2TypoAscent: 1007
OS2TypoAOffset: 0
OS2TypoDescent: -293
OS2TypoDOffset: 0
OS2TypoLinegap: 0
OS2WinAscent: 1232
OS2WinAOffset: 0
OS2WinDescent: 507
OS2WinDOffset: 0
HheadAscent: 1007
HheadAOffset: 0
HheadDescent: -293
HheadDOffset: 0
OS2SubXSize: 650
OS2SubYSize: 600
OS2SubXOff: -11
OS2SubYOff: 75
OS2SupXSize: 650
OS2SupYSize: 600
OS2SupXOff: 49
OS2SupYOff: 350
OS2StrikeYSize: 50
OS2StrikeYPos: 330
OS2CapHeight: 700
OS2XHeight: 550
OS2Vendor: 'CDK '
OS2CodePages: 20010193.00000000
OS2UnicodeRanges: 21000007.00000001.00000000.00000000
Lookup: 1 0 0 "'aalt' Access All Alternates lookup 0" { "'aalt' Access All Alternates lookup 0 subtable"  } ['aalt' ('DFLT' <'dflt' > 'latn' <'CAT ' 'MOL ' 'ROM ' 'dflt' > 'thai' <'dflt' > ) ]
Lookup: 3 0 0 "'aalt' Access All Alternates lookup 1" { "'aalt' Access All Alternates lookup 1 subtable"  } ['aalt' ('DFLT' <'dflt' > 'latn' <'CAT ' 'MOL ' 'ROM ' 'dflt' > 'thai' <'dflt' > ) ]
Lookup: 6 0 0 "'ccmp' Glyph Composition/Decomposition in Latin lookup 2" { "'ccmp' Glyph Composition/Decomposition in Latin lookup 2 contextual 0"  "'ccmp' Glyph Composition/Decomposition in Latin lookup 2 contextual 1"  } ['ccmp' ('latn' <'dflt' > ) ]

StartChar: A
Encoding: 65 65 4
Width: 647
GlyphClass: 2
Flags: W
AnchorPoint: "Anchor-10" 0 0 basechar 0
AnchorPoint: "Anchor-9" 358 660 basechar 0
AnchorPoint: "Anchor-8" 575 0 basechar 0
AnchorPoint: "Anchor-7" 266 0 basechar 0
LayerCount: 2
Fore
SplineSet
440 183 m 1,1,-1
 142 183 l 1,2,3
 115 108 115 108 83 0 c 1,4,-1
 -42 0 l 1,5,6
 15 206 15 206 99 377.5 c 128,-1,7
 183 549 183 549 301 700 c 1,8,-1
 429 700 l 1,9,10
 500 538 500 538 536 365 c 128,-1,11
 572 192 572 192 575 0 c 1,12,-1
 450 0 l 1,13,0
 447 107 447 107 440 183 c 1,1,-1
430 276 m 1,14,15
 407 453 407 453 350 600 c 1,16,17
 245 447 245 447 177 276 c 1,18,-1
 430 276 l 1,14,15
EndSplineSet
Substitution2: "Single Substitution lookup 20 subtable" ordfeminine
Substitution2: "'aalt' Access All Alternates lookup 0 subtable" ordfeminine
EndChar

StartChar: AE
Encoding: 198 198 28
Width: 957
GlyphClass: 2
Flags: W
AnchorPoint: "Anchor-10" 0 0 basechar 0
AnchorPoint: "Anchor-9" 586 700 basechar 0
AnchorPoint: "Anchor-8" 0 0 basechar 0
AnchorPoint: "Anchor-7" 428 0 basechar 0
LayerCount: 2
Fore
SplineSet
621 613 m 1,0,-1
 591 403 l 1,1,-1
 861 403 l 1,2,-1
 849 316 l 1,3,-1
 579 316 l 1,4,-1
 547 87 l 1,5,-1
 861 87 l 1,6,7
 854 37 854 37 839 18.5 c 128,-1,8
 824 0 824 0 784 0 c 2,9,-1
 416 0 l 1,10,-1
 445 206 l 1,11,-1
 171 206 l 1,12,13
 123 114 123 114 85 0 c 1,14,-1
 -42 0 l 1,15,16
 27 202 27 202 146.5 383.5 c 128,-1,17
 266 565 266 565 443 700 c 1,18,-1
 946 700 l 1,19,-1
 934 613 l 1,20,-1
 621 613 l 1,0,-1
457 293 m 1,21,-1
 502 613 l 1,22,-1
 493 613 l 1,23,24
 340 496 340 496 219 293 c 1,25,-1
 457 293 l 1,21,-1
EndSplineSet
EndChar

StartChar: B
Encoding: 66 66 30
Width: 622
GlyphClass: 2
Flags: W
AnchorPoint: "Anchor-10" 0 0 basechar 0
AnchorPoint: "Anchor-9" 343 660 basechar 0
AnchorPoint: "Anchor-8" 0 0 basechar 0
AnchorPoint: "Anchor-7" 251 0 basechar 0
LayerCount: 2
Fore
SplineSet
531.5 303.5 m 128,-1,1
 558 265 558 265 558 216 c 0,2,3
 558 113 558 113 486.5 56.5 c 128,-1,4
 415 0 415 0 286 0 c 2,5,-1
 22 0 l 1,6,-1
 120 700 l 1,7,-1
 357 700 l 2,8,9
 454 700 454 700 512 653.5 c 128,-1,10
 570 607 570 607 570 529 c 0,11,12
 570 468 570 468 540 422 c 128,-1,13
 510 376 510 376 462 359 c 1,14,0
 505 342 505 342 531.5 303.5 c 128,-1,1
412.5 589.5 m 128,-1,16
 384 609 384 609 324 609 c 2,17,-1
 234 609 l 1,18,-1
 205 402 l 1,19,-1
 300 402 l 2,20,21
 372 402 372 402 406.5 432.5 c 128,-1,22
 441 463 441 463 441 527 c 0,23,15
 441 570 441 570 412.5 589.5 c 128,-1,16
393.5 120.5 m 128,-1,25
 430 150 430 150 430 223 c 0,26,27
 430 270 430 270 399 291 c 128,-1,28
 368 312 368 312 297 312 c 2,29,-1
 193 312 l 1,30,-1
 162 91 l 1,31,-1
 268 91 l 2,32,24
 357 91 357 91 393.5 120.5 c 128,-1,25
EndSplineSet
EndChar

StartChar: C
Encoding: 67 67 31
Width: 623
GlyphClass: 2
Flags: W
AnchorPoint: "Anchor-10" 0 0 basechar 0
AnchorPoint: "Anchor-9" 400 660 basechar 0
AnchorPoint: "Anchor-8" 0 0 basechar 0
AnchorPoint: "Anchor-7" 308 0 basechar 0
LayerCount: 2
Fore
SplineSet
110.5 66 m 128,-1,1
 38 142 38 142 38 282 c 0,2,3
 38 414 38 414 80.5 510.5 c 128,-1,4
 123 607 123 607 203.5 658.5 c 128,-1,5
 284 710 284 710 394 710 c 0,6,7
 460 710 460 710 516.5 688 c 128,-1,8
 573 666 573 666 610 626 c 1,9,10
 600 600 600 600 579.5 577.5 c 128,-1,11
 559 555 559 555 545 555 c 0,12,13
 532 555 532 555 517 566 c 0,14,15
 478 593 478 593 449.5 604 c 128,-1,16
 421 615 421 615 389 615 c 0,17,18
 321 615 321 615 271 574.5 c 128,-1,19
 221 534 221 534 194.5 459 c 128,-1,20
 168 384 168 384 168 281 c 0,21,22
 168 85 168 85 328 85 c 0,23,24
 376 85 376 85 412.5 98.5 c 128,-1,25
 449 112 449 112 484 141 c 1,26,27
 503 140 503 140 515 127 c 128,-1,28
 527 114 527 114 527 93 c 0,29,30
 527 67 527 67 497.5 43 c 128,-1,31
 468 19 468 19 419 4.5 c 128,-1,32
 370 -10 370 -10 316 -10 c 0,33,0
 183 -10 183 -10 110.5 66 c 128,-1,1
EndSplineSet
EndChar

StartChar: Ccedilla
Encoding: 199 199 34
Width: 623
GlyphClass: 2
Flags: W
AnchorPoint: "Anchor-10" 0 0 basechar 0
AnchorPoint: "Anchor-9" 0 0 basechar 0
AnchorPoint: "Anchor-8" 0 0 basechar 0
AnchorPoint: "Anchor-7" 278 -214 basechar 0
LayerCount: 2
Fore
SplineSet
516.5 688 m 128,-1,1
 573 666 573 666 610 626 c 1,2,3
 600 600 600 600 579.5 577.5 c 128,-1,4
 559 555 559 555 545 555 c 0,5,6
 532 555 532 555 517 566 c 0,7,8
 478 593 478 593 449.5 604 c 128,-1,9
 421 615 421 615 389 615 c 0,10,11
 321 615 321 615 271 574.5 c 128,-1,12
 221 534 221 534 194.5 459 c 128,-1,13
 168 384 168 384 168 281 c 0,14,15
 168 85 168 85 328 85 c 0,16,17
 376 85 376 85 412.5 98.5 c 128,-1,18
 449 112 449 112 484 141 c 1,19,20
 503 140 503 140 515 127 c 128,-1,21
 527 114 527 114 527 93 c 0,22,23
 527 69 527 69 502.5 47 c 128,-1,24
 478 25 478 25 436.5 10 c 128,-1,25
 395 -5 395 -5 346 -9 c 1,26,-1
 301 -52 l 1,27,-1
 310 -52 l 2,28,29
 349 -52 349 -52 374 -71.5 c 128,-1,30
 399 -91 399 -91 399 -124 c 0,31,32
 399 -178 399 -178 357 -207 c 128,-1,33
 315 -236 315 -236 250 -236 c 0,34,35
 201 -236 201 -236 178.5 -224 c 128,-1,36
 156 -212 156 -212 156 -192 c 0,37,38
 156 -179 156 -179 163 -166 c 1,39,40
 174 -171 174 -171 196.5 -174 c 128,-1,41
 219 -177 219 -177 245 -177 c 0,42,43
 275 -177 275 -177 291.5 -165.5 c 128,-1,44
 308 -154 308 -154 308 -134 c 0,45,46
 308 -108 308 -108 273 -108 c 0,47,48
 257 -108 257 -108 240 -114 c 1,49,-1
 215 -75 l 1,50,-1
 271 -8 l 1,51,52
 159 5 159 5 98.5 80 c 128,-1,53
 38 155 38 155 38 282 c 0,54,55
 38 414 38 414 80.5 510.5 c 128,-1,56
 123 607 123 607 203.5 658.5 c 128,-1,57
 284 710 284 710 394 710 c 0,58,0
 460 710 460 710 516.5 688 c 128,-1,1
EndSplineSet
EndChar

StartChar: D
Encoding: 68 68 37
Width: 679
GlyphClass: 2
Flags: W
AnchorPoint: "Anchor-10" 0 0 basechar 0
AnchorPoint: "Anchor-9" 370 657 basechar 0
AnchorPoint: "Anchor-8" 0 0 basechar 0
AnchorPoint: "Anchor-7" 279 0 basechar 0
LayerCount: 2
Fore
SplineSet
493 665.5 m 128,-1,1
 560 631 560 631 596 566 c 128,-1,2
 632 501 632 501 632 413 c 0,3,4
 632 290 632 290 585 196.5 c 128,-1,5
 538 103 538 103 452 51.5 c 128,-1,6
 366 0 366 0 253 0 c 2,7,-1
 16 0 l 1,8,-1
 114 700 l 1,9,-1
 334 700 l 2,10,0
 426 700 426 700 493 665.5 c 128,-1,1
382.5 129 m 128,-1,12
 442 167 442 167 473.5 239 c 128,-1,13
 505 311 505 311 505 409 c 0,14,15
 505 506 505 506 456 557.5 c 128,-1,16
 407 609 407 609 315 609 c 2,17,-1
 227 609 l 1,18,-1
 155 91 l 1,19,-1
 242 91 l 2,20,11
 323 91 323 91 382.5 129 c 128,-1,12
EndSplineSet
EndChar

StartChar: Eth
Encoding: 208 208 38
Width: 672
GlyphClass: 2
Flags: W
AnchorPoint: "Anchor-10" 0 0 basechar 0
AnchorPoint: "Anchor-9" 370 657 basechar 0
AnchorPoint: "Anchor-8" 0 0 basechar 0
AnchorPoint: "Anchor-7" 279 0 basechar 0
LayerCount: 2
Fore
SplineSet
493 665.5 m 128,-1,1
 560 631 560 631 596 566 c 128,-1,2
 632 501 632 501 632 413 c 0,3,4
 632 290 632 290 585 196.5 c 128,-1,5
 538 103 538 103 452 51.5 c 128,-1,6
 366 0 366 0 253 0 c 2,7,-1
 16 0 l 1,8,-1
 60 314 l 1,9,-1
 -12 314 l 1,10,-1
 -1 397 l 1,11,-1
 72 397 l 1,12,-1
 114 700 l 1,13,-1
 334 700 l 2,14,0
 426 700 426 700 493 665.5 c 128,-1,1
382.5 129 m 128,-1,16
 442 167 442 167 473.5 239 c 128,-1,17
 505 311 505 311 505 409 c 0,18,19
 505 506 505 506 456 557.5 c 128,-1,20
 407 609 407 609 315 609 c 2,21,-1
 227 609 l 1,22,-1
 198 397 l 1,23,-1
 344 397 l 1,24,-1
 333 314 l 1,25,-1
 186 314 l 1,26,-1
 155 91 l 1,27,-1
 242 91 l 2,28,15
 323 91 323 91 382.5 129 c 128,-1,16
EndSplineSet
EndChar

StartChar: Dcroat
Encoding: 272 272 40
Width: 672
GlyphClass: 2
Flags: W
AnchorPoint: "Anchor-10" 0 0 basechar 0
AnchorPoint: "Anchor-9" 370 657 basechar 0
AnchorPoint: "Anchor-8" 0 0 basechar 0
AnchorPoint: "Anchor-7" 279 0 basechar 0
LayerCount: 2
Fore
SplineSet
493 665.5 m 128,-1,1
 560 631 560 631 596 566 c 128,-1,2
 632 501 632 501 632 413 c 0,3,4
 632 290 632 290 585 196.5 c 128,-1,5
 538 103 538 103 452 51.5 c 128,-1,6
 366 0 366 0 253 0 c 2,7,-1
 16 0 l 1,8,-1
 60 314 l 1,9,-1
 -12 314 l 1,10,-1
 -1 397 l 1,11,-1
 72 397 l 1,12,-1
 114 700 l 1,13,-1
 334 700 l 2,14,0
 426 700 426 700 493 665.5 c 128,-1,1
382.5 129 m 128,-1,16
 442 167 442 167 473.5 239 c 128,-1,17
 505 311 505 311 505 409 c 0,18,19
 505 506 505 506 456 557.5 c 128,-1,20
 407 609 407 609 315 609 c 2,21,-1
 227 609 l 1,22,-1
 198 397 l 1,23,-1
 344 397 l 1,24,-1
 333 314 l 1,25,-1
 186 314 l 1,26,-1
 155 91 l 1,27,-1
 242 91 l 2,28,15
 323 91 323 91 382.5 129 c 128,-1,16
EndSplineSet
EndChar

StartChar: E
Encoding: 69 69 43
Width: 560
GlyphClass: 2
Flags: W
AnchorPoint: "Anchor-10" 0 0 basechar 0
AnchorPoint: "Anchor-9" 317 663 basechar 0
AnchorPoint: "Anchor-8" 437 10 basechar 0
AnchorPoint: "Anchor-7" 223 0 basechar 0
LayerCount: 2
Fore
SplineSet
228 609 m 1,0,-1
 199 405 l 1,1,-1
 456 405 l 1,2,-1
 443 315 l 1,3,-1
 187 315 l 1,4,-1
 155 91 l 1,5,-1
 467 91 l 1,6,7
 460 38 460 38 447 19 c 128,-1,8
 434 0 434 0 403 0 c 2,9,-1
 16 0 l 1,10,-1
 114 700 l 1,11,-1
 545 700 l 1,12,-1
 532 609 l 1,13,-1
 228 609 l 1,0,-1
EndSplineSet
EndChar

StartChar: Eogonek
Encoding: 280 280 59
Width: 560
GlyphClass: 2
Flags: W
AnchorPoint: "Anchor-10" 0 0 basechar 0
AnchorPoint: "Anchor-9" 317 663 basechar 0
AnchorPoint: "Anchor-8" 437 10 basechar 0
AnchorPoint: "Anchor-7" 223 0 basechar 0
LayerCount: 2
Fore
SplineSet
228 609 m 1,0,-1
 199 405 l 1,1,-1
 456 405 l 1,2,-1
 443 315 l 1,3,-1
 187 315 l 1,4,-1
 155 91 l 1,5,-1
 467 91 l 1,6,7
 462 54 462 54 454.5 34 c 128,-1,8
 447 14 447 14 433 6 c 0,9,10
 370 -51 370 -51 370 -97 c 0,11,12
 370 -117 370 -117 377 -126.5 c 128,-1,13
 384 -136 384 -136 401 -136 c 0,14,15
 420 -136 420 -136 442 -126 c 1,16,17
 454 -137 454 -137 454 -151 c 0,18,19
 453 -174 453 -174 431 -187 c 128,-1,20
 409 -200 409 -200 370 -200 c 0,21,22
 323 -200 323 -200 297 -182 c 128,-1,23
 271 -164 271 -164 271 -130 c 0,24,25
 271 -52 271 -52 364 0 c 1,26,-1
 16 0 l 1,27,-1
 114 700 l 1,28,-1
 545 700 l 1,29,-1
 532 609 l 1,30,-1
 228 609 l 1,0,-1
EndSplineSet
EndChar

StartChar: F
Encoding: 70 70 61
Width: 530
GlyphClass: 2
Flags: W
AnchorPoint: "Anchor-10" 0 0 basechar 0
AnchorPoint: "Anchor-9" 327 660 basechar 0
AnchorPoint: "Anchor-8" 0 0 basechar 0
AnchorPoint: "Anchor-7" 65 0 basechar 0
LayerCount: 2
Fore
SplineSet
228 609 m 1,0,-1
 199 404 l 1,1,-1
 454 404 l 1,2,-1
 442 313 l 1,3,-1
 186 313 l 1,4,-1
 142 0 l 1,5,-1
 16 0 l 1,6,-1
 114 700 l 1,7,-1
 539 700 l 1,8,-1
 526 609 l 1,9,-1
 228 609 l 1,0,-1
EndSplineSet
EndChar

StartChar: G
Encoding: 71 71 62
Width: 679
GlyphClass: 2
Flags: W
AnchorPoint: "Anchor-10" 0 0 basechar 0
AnchorPoint: "Anchor-9" 412 660 basechar 0
AnchorPoint: "Anchor-8" 0 0 basechar 0
AnchorPoint: "Anchor-7" 320 0 basechar 0
LayerCount: 2
Fore
SplineSet
357 380 m 1,1,-1
 620 380 l 1,2,-1
 577 73 l 1,3,4
 528 31 528 31 467.5 10.5 c 128,-1,5
 407 -10 407 -10 331 -10 c 0,6,7
 242 -10 242 -10 176 25 c 128,-1,8
 110 60 110 60 75 125.5 c 128,-1,9
 40 191 40 191 40 280 c 0,10,11
 40 413 40 413 85 510 c 128,-1,12
 130 607 130 607 214 658.5 c 128,-1,13
 298 710 298 710 413 710 c 0,14,15
 487 710 487 710 553 687 c 128,-1,16
 619 664 619 664 652 626 c 1,17,18
 638 598 638 598 617 576.5 c 128,-1,19
 596 555 596 555 583 555 c 0,20,21
 575 555 575 555 569.5 557 c 128,-1,22
 564 559 564 559 555 565 c 0,23,24
 489 616 489 616 406 616 c 0,25,26
 295 616 295 616 233 527.5 c 128,-1,27
 171 439 171 439 171 280 c 0,28,29
 171 185 171 185 212.5 134.5 c 128,-1,30
 254 84 254 84 333 84 c 0,31,32
 373 84 373 84 405.5 92.5 c 128,-1,33
 438 101 438 101 458 116 c 1,34,-1
 482 289 l 1,35,-1
 394 289 l 2,36,37
 373 289 373 289 363.5 301 c 128,-1,38
 354 313 354 313 354 339 c 256,39,0
 354 365 354 365 357 380 c 1,1,-1
EndSplineSet
EndChar

StartChar: H
Encoding: 72 72 69
Width: 693
GlyphClass: 2
Flags: W
AnchorPoint: "Anchor-10" 0 0 basechar 0
AnchorPoint: "Anchor-9" 381 657 basechar 0
AnchorPoint: "Anchor-8" 0 0 basechar 0
AnchorPoint: "Anchor-7" 290 0 basechar 0
LayerCount: 2
Fore
SplineSet
662 700 m 1,0,-1
 564 0 l 1,1,-1
 437 0 l 1,2,-1
 480 310 l 1,3,-1
 185 310 l 1,4,-1
 142 0 l 1,5,-1
 16 0 l 1,6,-1
 114 700 l 1,7,-1
 240 700 l 1,8,-1
 198 403 l 1,9,-1
 493 403 l 1,10,-1
 535 700 l 1,11,-1
 662 700 l 1,0,-1
EndSplineSet
EndChar

StartChar: Hbar
Encoding: 294 294 70
Width: 693
GlyphClass: 2
Flags: W
AnchorPoint: "Anchor-10" 0 0 basechar 0
AnchorPoint: "Anchor-9" 388 657 basechar 0
AnchorPoint: "Anchor-8" 0 0 basechar 0
AnchorPoint: "Anchor-7" 296 0 basechar 0
LayerCount: 2
Fore
SplineSet
706 524 m 1,0,-1
 643 524 l 1,1,-1
 570 0 l 1,2,-1
 444 0 l 1,3,-1
 487 310 l 1,4,-1
 192 310 l 1,5,-1
 149 0 l 1,6,-1
 22 0 l 1,7,-1
 95 524 l 1,8,-1
 33 524 l 1,9,-1
 42 584 l 1,10,-1
 104 584 l 1,11,-1
 120 700 l 1,12,-1
 247 700 l 1,13,-1
 231 584 l 1,14,-1
 526 584 l 1,15,-1
 542 700 l 1,16,-1
 668 700 l 1,17,-1
 652 584 l 1,18,-1
 715 584 l 1,19,-1
 706 524 l 1,0,-1
517 524 m 1,20,-1
 222 524 l 1,21,-1
 205 403 l 1,22,-1
 500 403 l 1,23,-1
 517 524 l 1,20,-1
EndSplineSet
EndChar

StartChar: I
Encoding: 73 73 74
Width: 350
GlyphClass: 2
Flags: W
AnchorPoint: "Anchor-10" 0 0 basechar 0
AnchorPoint: "Anchor-9" 210 660 basechar 0
AnchorPoint: "Anchor-8" 181 0 basechar 0
AnchorPoint: "Anchor-7" 118 0 basechar 0
LayerCount: 2
Fore
SplineSet
153 700 m 1,0,-1
 279 700 l 1,1,-1
 181 0 l 1,2,-1
 55 0 l 1,3,-1
 153 700 l 1,0,-1
EndSplineSet
EndChar

StartChar: J
Encoding: 74 74 88
Width: 440
GlyphClass: 2
Flags: W
AnchorPoint: "Anchor-10" 0 0 basechar 0
AnchorPoint: "Anchor-9" 343 660 basechar 0
AnchorPoint: "Anchor-8" 0 0 basechar 0
AnchorPoint: "Anchor-7" 164 0 basechar 0
LayerCount: 2
Fore
SplineSet
20 -1.5 m 128,-1,1
 -22 7 -22 7 -38 17 c 1,2,3
 -27 99 -27 99 8 99 c 0,4,5
 19 99 19 99 37 94 c 0,6,7
 69 84 69 84 104 84 c 0,8,9
 151 84 151 84 179 111 c 128,-1,10
 207 138 207 138 214 190 c 2,11,-1
 285 700 l 1,12,-1
 412 700 l 1,13,-1
 340 190 l 2,14,15
 332 131 332 131 299 85.5 c 128,-1,16
 266 40 266 40 214.5 15 c 128,-1,17
 163 -10 163 -10 101 -10 c 0,18,0
 62 -10 62 -10 20 -1.5 c 128,-1,1
EndSplineSet
EndChar

StartChar: K
Encoding: 75 75 90
Width: 650
GlyphClass: 2
Flags: W
AnchorPoint: "Anchor-10" 0 0 basechar 0
AnchorPoint: "Anchor-9" 353 660 basechar 0
AnchorPoint: "Anchor-8" 0 0 basechar 0
AnchorPoint: "Anchor-7" 298 0 basechar 0
LayerCount: 2
Fore
SplineSet
444 282 m 2,1,-1
 575 4 l 1,2,3
 549 -9 549 -9 492 -9 c 0,4,5
 467 -9 467 -9 452 -1.5 c 128,-1,6
 437 6 437 6 430 22 c 2,7,-1
 323 248 l 2,8,9
 310 276 310 276 299 288.5 c 128,-1,10
 288 301 288 301 271.5 305.5 c 128,-1,11
 255 310 255 310 224 310 c 2,12,-1
 206 310 l 1,13,-1
 163 0 l 1,14,-1
 36 0 l 1,15,-1
 134 700 l 1,16,-1
 261 700 l 1,17,-1
 219 399 l 1,18,-1
 270 399 l 1,19,-1
 279 399 l 1,20,-1
 528 700 l 1,21,-1
 665 700 l 1,22,-1
 381 367 l 1,23,0
 417 340 417 340 444 282 c 2,1,-1
EndSplineSet
EndChar

StartChar: L
Encoding: 76 76 92
Width: 513
GlyphClass: 2
Flags: W
AnchorPoint: "Anchor-10" 534 700 basechar 0
AnchorPoint: "Anchor-9" 186 673 basechar 0
AnchorPoint: "Anchor-8" 0 0 basechar 0
AnchorPoint: "Anchor-7" 235 0 basechar 0
LayerCount: 2
Fore
SplineSet
454 91 m 1,0,-1
 441 0 l 1,1,-1
 29 0 l 1,2,-1
 127 700 l 1,3,-1
 254 700 l 1,4,-1
 169 91 l 1,5,-1
 454 91 l 1,0,-1
EndSplineSet
EndChar

StartChar: Lslash
Encoding: 321 321 100
Width: 547
GlyphClass: 2
Flags: W
AnchorPoint: "Anchor-10" 554 700 basechar 0
AnchorPoint: "Anchor-9" 206 673 basechar 0
AnchorPoint: "Anchor-8" 0 0 basechar 0
AnchorPoint: "Anchor-7" 255 0 basechar 0
LayerCount: 2
Fore
SplineSet
474 91 m 1,0,-1
 461 0 l 1,1,-1
 49 0 l 1,2,-1
 95 326 l 1,3,-1
 1 290 l 1,4,-1
 14 386 l 1,5,-1
 108 422 l 1,6,-1
 147 700 l 1,7,-1
 274 700 l 1,8,-1
 242 472 l 1,9,-1
 386 527 l 1,10,-1
 372 431 l 1,11,-1
 229 377 l 1,12,-1
 189 91 l 1,13,-1
 474 91 l 1,0,-1
EndSplineSet
EndChar

StartChar: M
Encoding: 77 77 101
Width: 840
GlyphClass: 2
Flags: W
AnchorPoint: "Anchor-10" 0 0 basechar 0
AnchorPoint: "Anchor-9" 443 660 basechar 0
AnchorPoint: "Anchor-8" 0 0 basechar 0
AnchorPoint: "Anchor-7" 365 0 basechar 0
LayerCount: 2
Fore
SplineSet
749 397 m 0,1,2
 749 224 749 224 725 0 c 1,3,-1
 597 0 l 1,4,5
 614 162 614 162 621.5 277 c 128,-1,6
 629 392 629 392 629 495 c 2,7,-1
 628 553 l 1,8,9
 570 438 570 438 527 341.5 c 128,-1,10
 484 245 484 245 425 97 c 1,11,-1
 326 97 l 1,12,13
 311 244 311 244 295 342.5 c 128,-1,14
 279 441 279 441 251 559 c 1,15,16
 209 428 209 428 180.5 301 c 128,-1,17
 152 174 152 174 127 0 c 1,18,-1
 2 0 l 1,19,20
 35 212 35 212 79 378.5 c 128,-1,21
 123 545 123 545 187 700 c 1,22,-1
 328 700 l 1,23,24
 362 561 362 561 377.5 481 c 128,-1,25
 393 401 393 401 403 311 c 1,26,27
 449 427 449 427 488.5 509.5 c 128,-1,28
 528 592 528 592 589 700 c 1,29,-1
 731 700 l 1,30,0
 749 549 749 549 749 397 c 0,1,2
EndSplineSet
EndChar

StartChar: N
Encoding: 78 78 103
Width: 697
GlyphClass: 2
Flags: W
AnchorPoint: "Anchor-10" 0 0 basechar 0
AnchorPoint: "Anchor-9" 382 660 basechar 0
AnchorPoint: "Anchor-8" 0 0 basechar 0
AnchorPoint: "Anchor-7" 290 0 basechar 0
LayerCount: 2
Fore
SplineSet
661 700 m 1,0,-1
 582 137 l 2,1,2
 574 75 574 75 570 27 c 0,3,4
 569 14 569 14 561 7 c 128,-1,5
 553 0 553 0 541 0 c 2,6,-1
 438 0 l 1,7,-1
 443 41 l 2,8,9
 444 48 444 48 444 62 c 0,10,11
 444 109 444 109 420 152 c 2,12,-1
 214 525 l 1,13,-1
 141 0 l 1,14,-1
 16 0 l 1,15,-1
 114 700 l 1,16,-1
 225 700 l 2,17,18
 239 700 239 700 246 696.5 c 128,-1,19
 253 693 253 693 260 680 c 2,20,-1
 478 290 l 1,21,-1
 536 700 l 1,22,-1
 661 700 l 1,0,-1
EndSplineSet
EndChar

StartChar: Eng
Encoding: 330 330 109
Width: 685
Flags: W
LayerCount: 2
Fore
SplineSet
653 700 m 1,0,-1
 548 -46 l 2,1,2
 538 -119 538 -119 488 -162 c 128,-1,3
 438 -205 438 -205 358 -205 c 0,4,5
 318 -205 318 -205 287 -195 c 128,-1,6
 256 -185 256 -185 256 -162 c 0,7,8
 256 -149 256 -149 264.5 -136 c 128,-1,9
 273 -123 273 -123 280 -121 c 1,10,11
 308 -134 308 -134 346 -134 c 0,12,13
 410 -134 410 -134 422 -55 c 2,14,-1
 434 34 l 2,15,16
 436 48 436 48 436 56 c 0,17,18
 436 96 436 96 411 145 c 2,19,-1
 213 518 l 1,20,-1
 141 0 l 1,21,-1
 16 0 l 1,22,-1
 114 700 l 1,23,-1
 225 700 l 2,24,25
 239 700 239 700 246 696.5 c 128,-1,26
 253 693 253 693 260 680 c 2,27,-1
 470 289 l 1,28,-1
 528 700 l 1,29,-1
 653 700 l 1,0,-1
EndSplineSet
EndChar

StartChar: O
Encoding: 79 79 112
Width: 693
GlyphClass: 2
Flags: W
AnchorPoint: "Anchor-10" 522 639 basechar 0
AnchorPoint: "Anchor-9" 376 660 basechar 0
AnchorPoint: "Anchor-8" 393 31 basechar 0
AnchorPoint: "Anchor-7" 290 0 basechar 0
LayerCount: 2
Fore
SplineSet
99 65.5 m 128,-1,1
 26 141 26 141 26 276 c 0,2,3
 26 407 26 407 69 505.5 c 128,-1,4
 112 604 112 604 191 657 c 128,-1,5
 270 710 270 710 376 710 c 0,6,7
 508 710 508 710 579 637.5 c 128,-1,8
 650 565 650 565 650 431 c 0,9,10
 650 296 650 296 608 196.5 c 128,-1,11
 566 97 566 97 487.5 43.5 c 128,-1,12
 409 -10 409 -10 303 -10 c 0,13,0
 172 -10 172 -10 99 65.5 c 128,-1,1
465 174.5 m 128,-1,15
 522 264 522 264 522 430 c 0,16,17
 522 521 522 521 484 568 c 128,-1,18
 446 615 446 615 373 615 c 0,19,20
 268 615 268 615 211.5 527 c 128,-1,21
 155 439 155 439 155 276 c 0,22,23
 155 184 155 184 193.5 134.5 c 128,-1,24
 232 85 232 85 303 85 c 0,25,14
 408 85 408 85 465 174.5 c 128,-1,15
EndSplineSet
Substitution2: "Single Substitution lookup 20 subtable" ordmasculine
Substitution2: "'aalt' Access All Alternates lookup 0 subtable" ordmasculine
EndChar

StartChar: Ohorn
Encoding: 416 416 126
Width: 693
GlyphClass: 2
Flags: W
AnchorPoint: "Anchor-10" 522 639 basechar 0
AnchorPoint: "Anchor-9" 376 660 basechar 0
AnchorPoint: "Anchor-8" 393 31 basechar 0
AnchorPoint: "Anchor-7" 290 0 basechar 0
LayerCount: 2
Fore
SplineSet
689 807 m 128,-1,1
 707 789 707 789 707 758 c 0,2,3
 707 748 707 748 706 743 c 0,4,5
 693 646 693 646 597 616 c 1,6,7
 650 546 650 546 650 431 c 0,8,9
 650 296 650 296 608 196.5 c 128,-1,10
 566 97 566 97 487.5 43.5 c 128,-1,11
 409 -10 409 -10 303 -10 c 0,12,13
 172 -10 172 -10 99 65.5 c 128,-1,14
 26 141 26 141 26 276 c 0,15,16
 26 407 26 407 69 505.5 c 128,-1,17
 112 604 112 604 191 657 c 128,-1,18
 270 710 270 710 376 710 c 0,19,20
 476 710 476 710 542 667 c 1,21,22
 590 675 590 675 598 733 c 0,23,24
 602 764 602 764 576 785 c 1,25,26
 581 801 581 801 598.5 813 c 128,-1,27
 616 825 616 825 640 825 c 0,28,0
 671 825 671 825 689 807 c 128,-1,1
465 174.5 m 128,-1,30
 522 264 522 264 522 430 c 0,31,32
 522 521 522 521 484 568 c 128,-1,33
 446 615 446 615 373 615 c 0,34,35
 268 615 268 615 211.5 527 c 128,-1,36
 155 439 155 439 155 276 c 0,37,38
 155 184 155 184 193.5 134.5 c 128,-1,39
 232 85 232 85 303 85 c 0,40,29
 408 85 408 85 465 174.5 c 128,-1,30
EndSplineSet
EndChar

StartChar: Oslash
Encoding: 216 216 134
Width: 680
GlyphClass: 2
Flags: W
AnchorPoint: "Anchor-10" 522 639 basechar 0
AnchorPoint: "Anchor-9" 376 660 basechar 0
AnchorPoint: "Anchor-8" 393 31 basechar 0
AnchorPoint: "Anchor-7" 290 0 basechar 0
LayerCount: 2
Fore
SplineSet
594 620 m 1,0,1
 650 550 650 550 650 431 c 0,2,3
 650 296 650 296 608 196.5 c 128,-1,4
 566 97 566 97 487.5 43.5 c 128,-1,5
 409 -10 409 -10 303 -10 c 0,6,7
 184 -10 184 -10 113 53 c 1,8,-1
 68 0 l 1,9,-1
 -4 0 l 1,10,-1
 76 94 l 1,11,12
 26 165 26 165 26 276 c 0,13,14
 26 407 26 407 69 505.5 c 128,-1,15
 112 604 112 604 191 657 c 128,-1,16
 270 710 270 710 376 710 c 0,17,18
 484 710 484 710 554 659 c 1,19,-1
 590 701 l 1,20,-1
 662 701 l 1,21,-1
 594 620 l 1,0,1
164 198 m 1,23,-1
 481 572 l 1,24,25
 443 615 443 615 373 615 c 0,26,27
 268 615 268 615 211.5 527 c 128,-1,28
 155 439 155 439 155 276 c 0,29,22
 155 233 155 233 164 198 c 1,23,-1
509 521 m 1,31,-1
 188 142 l 1,32,33
 227 85 227 85 303 85 c 0,34,35
 408 85 408 85 465 174.5 c 128,-1,36
 522 264 522 264 522 430 c 0,37,30
 522 483 522 483 509 521 c 1,31,-1
EndSplineSet
EndChar

StartChar: OE
Encoding: 338 338 137
Width: 1035
GlyphClass: 2
Flags: W
AnchorPoint: "Anchor-10" 522 639 basechar 0
AnchorPoint: "Anchor-9" 792 663 basechar 0
AnchorPoint: "Anchor-8" 912 10 basechar 0
AnchorPoint: "Anchor-7" 698 0 basechar 0
LayerCount: 2
Fore
SplineSet
703 609 m 1,0,-1
 674 405 l 1,1,-1
 931 405 l 1,2,-1
 918 315 l 1,3,-1
 662 315 l 1,4,-1
 630 91 l 1,5,-1
 942 91 l 1,6,7
 935 38 935 38 922 19 c 128,-1,8
 909 0 909 0 878 0 c 2,9,-1
 491 0 l 1,10,-1
 498 51 l 1,11,12
 417 -10 417 -10 303 -10 c 0,13,14
 172 -10 172 -10 99 65.5 c 128,-1,15
 26 141 26 141 26 276 c 0,16,17
 26 407 26 407 69 505.5 c 128,-1,18
 112 604 112 604 191 657 c 128,-1,19
 270 710 270 710 376 710 c 0,20,21
 509 710 509 710 580 636 c 1,22,-1
 589 700 l 1,23,-1
 1020 700 l 1,24,-1
 1007 609 l 1,25,-1
 703 609 l 1,0,-1
465 174.5 m 128,-1,27
 522 264 522 264 522 430 c 0,28,29
 522 521 522 521 484 568 c 128,-1,30
 446 615 446 615 373 615 c 0,31,32
 268 615 268 615 211.5 527 c 128,-1,33
 155 439 155 439 155 276 c 0,34,35
 155 184 155 184 193.5 134.5 c 128,-1,36
 232 85 232 85 303 85 c 0,37,26
 408 85 408 85 465 174.5 c 128,-1,27
EndSplineSet
EndChar

StartChar: P
Encoding: 80 80 138
Width: 615
GlyphClass: 2
Flags: W
AnchorPoint: "Anchor-10" 0 0 basechar 0
AnchorPoint: "Anchor-9" 343 660 basechar 0
AnchorPoint: "Anchor-8" 0 0 basechar 0
AnchorPoint: "Anchor-7" 251 0 basechar 0
LayerCount: 2
Fore
SplineSet
521 649.5 m 128,-1,1
 584 599 584 599 584 501 c 0,2,3
 584 376 584 376 504 307 c 128,-1,4
 424 238 424 238 280 238 c 2,5,-1
 182 238 l 1,6,-1
 149 0 l 1,7,-1
 22 0 l 1,8,-1
 120 700 l 1,9,-1
 335 700 l 2,10,0
 458 700 458 700 521 649.5 c 128,-1,1
413 374 m 128,-1,12
 455 414 455 414 455 501 c 0,13,14
 455 557 455 557 421 583.5 c 128,-1,15
 387 610 387 610 315 610 c 2,16,-1
 234 610 l 1,17,-1
 196 334 l 1,18,-1
 280 334 l 2,19,11
 371 334 371 334 413 374 c 128,-1,12
EndSplineSet
EndChar

StartChar: Thorn
Encoding: 222 222 139
Width: 641
GlyphClass: 2
Flags: W
AnchorPoint: "Anchor-10" 0 0 basechar 0
AnchorPoint: "Anchor-9" 362 700 basechar 0
AnchorPoint: "Anchor-8" 0 0 basechar 0
AnchorPoint: "Anchor-7" 255 0 basechar 0
LayerCount: 2
Fore
SplineSet
510 545.5 m 128,-1,1
 575 492 575 492 575 396 c 0,2,3
 575 270 575 270 496 200 c 128,-1,4
 417 130 417 130 276 130 c 2,5,-1
 172 130 l 1,6,-1
 154 0 l 1,7,-1
 30 0 l 1,8,-1
 128 700 l 1,9,-1
 252 700 l 1,10,-1
 238 599 l 1,11,-1
 322 599 l 2,12,0
 445 599 445 599 510 545.5 c 128,-1,1
404.5 267 m 128,-1,14
 448 309 448 309 448 396 c 0,15,16
 448 451 448 451 414.5 478 c 128,-1,17
 381 505 381 505 312 505 c 2,18,-1
 225 505 l 1,19,-1
 186 225 l 1,20,-1
 273 225 l 2,21,13
 361 225 361 225 404.5 267 c 128,-1,14
EndSplineSet
EndChar

StartChar: Q
Encoding: 81 81 140
Width: 680
GlyphClass: 2
Flags: W
AnchorPoint: "Anchor-10" 522 639 basechar 0
AnchorPoint: "Anchor-9" 383 660 basechar 0
AnchorPoint: "Anchor-8" 393 31 basechar 0
AnchorPoint: "Anchor-7" 301 0 basechar 0
LayerCount: 2
Fore
SplineSet
597 172.5 m 128,-1,1
 544 66 544 66 447 21 c 1,2,3
 488 -32 488 -32 505 -52 c 1,4,5
 475 -89 475 -89 425 -89 c 0,6,7
 401 -89 401 -89 384.5 -79.5 c 128,-1,8
 368 -70 368 -70 355 -52 c 0,9,10
 342 -33 342 -33 331 -9 c 1,11,12
 322 -10 322 -10 303 -10 c 0,13,14
 172 -10 172 -10 99 65.5 c 128,-1,15
 26 141 26 141 26 276 c 0,16,17
 26 407 26 407 69 505.5 c 128,-1,18
 112 604 112 604 191 657 c 128,-1,19
 270 710 270 710 376 710 c 0,20,21
 508 710 508 710 579 637.5 c 128,-1,22
 650 565 650 565 650 431 c 0,23,0
 650 279 650 279 597 172.5 c 128,-1,1
488.5 220 m 128,-1,25
 522 303 522 303 522 430 c 0,26,27
 522 521 522 521 484 568 c 128,-1,28
 446 615 446 615 373 615 c 0,29,30
 268 615 268 615 211.5 527 c 128,-1,31
 155 439 155 439 155 276 c 0,32,33
 155 189 155 189 189.5 140 c 128,-1,34
 224 91 224 91 288 86 c 1,35,-1
 254 169 l 1,36,-1
 359 169 l 1,37,38
 366 151 366 151 391 105 c 1,39,24
 455 137 455 137 488.5 220 c 128,-1,25
EndSplineSet
EndChar

StartChar: R
Encoding: 82 82 141
Width: 636
GlyphClass: 2
Flags: W
AnchorPoint: "Anchor-10" 0 0 basechar 0
AnchorPoint: "Anchor-9" 348 660 basechar 0
AnchorPoint: "Anchor-8" 0 0 basechar 0
AnchorPoint: "Anchor-7" 258 0 basechar 0
LayerCount: 2
Fore
SplineSet
466 233 m 2,1,-1
 549 10 l 1,2,3
 538 2 538 2 517.5 -3 c 128,-1,4
 497 -8 497 -8 475 -8 c 0,5,6
 446 -8 446 -8 430.5 0.5 c 128,-1,7
 415 9 415 9 409 29 c 2,8,-1
 347 205 l 2,9,10
 333 243 333 243 311 257.5 c 128,-1,11
 289 272 289 272 244 272 c 2,12,-1
 187 272 l 1,13,-1
 149 0 l 1,14,-1
 22 0 l 1,15,-1
 120 700 l 1,16,-1
 355 700 l 2,17,18
 473 700 473 700 536 653.5 c 128,-1,19
 599 607 599 607 599 521 c 0,20,21
 599 441 599 441 554 382.5 c 128,-1,22
 509 324 509 324 429 298 c 1,23,0
 453 269 453 269 466 233 c 2,1,-1
300 365 m 2,24,25
 469 365 469 365 469 512 c 0,26,27
 469 561 469 561 436.5 584 c 128,-1,28
 404 607 404 607 335 607 c 2,29,-1
 234 607 l 1,30,-1
 200 365 l 1,31,-1
 300 365 l 2,24,25
EndSplineSet
EndChar

StartChar: S
Encoding: 83 83 148
Width: 642
GlyphClass: 2
Flags: W
AnchorPoint: "Anchor-10" 0 0 basechar 0
AnchorPoint: "Anchor-9" 356 660 basechar 0
AnchorPoint: "Anchor-8" 0 0 basechar 0
AnchorPoint: "Anchor-7" 271 0 basechar 0
LayerCount: 2
Fore
SplineSet
154.5 7.5 m 128,-1,1
 96 25 96 25 64 57 c 128,-1,2
 32 89 32 89 32 131 c 0,3,4
 32 171 32 171 58.5 192 c 128,-1,5
 85 213 85 213 135 214 c 1,6,7
 136 152 136 152 176 118 c 128,-1,8
 216 84 216 84 288 84 c 0,9,10
 364 84 364 84 405 114 c 128,-1,11
 446 144 446 144 446 200 c 0,12,13
 446 229 446 229 433.5 248 c 128,-1,14
 421 267 421 267 389.5 283 c 128,-1,15
 358 299 358 299 297 318 c 0,16,17
 187 354 187 354 141.5 398.5 c 128,-1,18
 96 443 96 443 96 515 c 0,19,20
 96 573 96 573 129 617 c 128,-1,21
 162 661 162 661 221.5 685.5 c 128,-1,22
 281 710 281 710 359 710 c 0,23,24
 460 710 460 710 527.5 667.5 c 128,-1,25
 595 625 595 625 612 552 c 1,26,27
 595 535 595 535 573.5 523.5 c 128,-1,28
 552 512 552 512 537 512 c 256,29,30
 522 512 522 512 513.5 518 c 128,-1,31
 505 524 505 524 493 542 c 0,32,33
 473 578 473 578 435 597.5 c 128,-1,34
 397 617 397 617 347 617 c 0,35,36
 290 617 290 617 258 594 c 128,-1,37
 226 571 226 571 226 529 c 0,38,39
 226 502 226 502 237.5 484 c 128,-1,40
 249 466 249 466 277 451.5 c 128,-1,41
 305 437 305 437 361 418 c 0,42,43
 448 389 448 389 494.5 363 c 128,-1,44
 541 337 541 337 560.5 305.5 c 128,-1,45
 580 274 580 274 580 227 c 0,46,47
 580 154 580 154 544.5 101 c 128,-1,48
 509 48 509 48 443.5 19 c 128,-1,49
 378 -10 378 -10 288 -10 c 0,50,0
 213 -10 213 -10 154.5 7.5 c 128,-1,1
EndSplineSet
EndChar

StartChar: Scedilla
Encoding: 350 350 151
Width: 642
GlyphClass: 2
Flags: W
AnchorPoint: "Anchor-10" 0 0 basechar 0
AnchorPoint: "Anchor-9" 0 0 basechar 0
AnchorPoint: "Anchor-8" 0 0 basechar 0
AnchorPoint: "Anchor-7" 241 -214 basechar 0
LayerCount: 2
Fore
SplineSet
494.5 363 m 128,-1,1
 541 337 541 337 560.5 305.5 c 128,-1,2
 580 274 580 274 580 227 c 0,3,4
 580 121 580 121 507.5 58 c 128,-1,5
 435 -5 435 -5 307 -10 c 1,6,-1
 263 -52 l 1,7,-1
 272 -52 l 2,8,9
 312 -52 312 -52 337 -71.5 c 128,-1,10
 362 -91 362 -91 362 -124 c 0,11,12
 362 -178 362 -178 320 -207 c 128,-1,13
 278 -236 278 -236 212 -236 c 0,14,15
 164 -236 164 -236 141 -224 c 128,-1,16
 118 -212 118 -212 118 -192 c 0,17,18
 118 -182 118 -182 125 -166 c 1,19,20
 136 -171 136 -171 158.5 -174 c 128,-1,21
 181 -177 181 -177 207 -177 c 0,22,23
 237 -177 237 -177 253.5 -165.5 c 128,-1,24
 270 -154 270 -154 270 -134 c 0,25,26
 270 -108 270 -108 236 -108 c 0,27,28
 219 -108 219 -108 203 -114 c 1,29,-1
 178 -75 l 1,30,-1
 233 -7 l 1,31,32
 141 2 141 2 86.5 39 c 128,-1,33
 32 76 32 76 32 131 c 0,34,35
 32 171 32 171 58.5 192 c 128,-1,36
 85 213 85 213 135 214 c 1,37,38
 136 152 136 152 176 118 c 128,-1,39
 216 84 216 84 288 84 c 0,40,41
 364 84 364 84 405 114 c 128,-1,42
 446 144 446 144 446 200 c 0,43,44
 446 229 446 229 433.5 248 c 128,-1,45
 421 267 421 267 389.5 283 c 128,-1,46
 358 299 358 299 297 318 c 0,47,48
 187 354 187 354 141.5 398.5 c 128,-1,49
 96 443 96 443 96 515 c 0,50,51
 96 573 96 573 129 617 c 128,-1,52
 162 661 162 661 221.5 685.5 c 128,-1,53
 281 710 281 710 359 710 c 0,54,55
 460 710 460 710 527.5 667.5 c 128,-1,56
 595 625 595 625 612 552 c 1,57,58
 595 535 595 535 573.5 523.5 c 128,-1,59
 552 512 552 512 537 512 c 256,60,61
 522 512 522 512 513.5 518 c 128,-1,62
 505 524 505 524 493 542 c 0,63,64
 473 578 473 578 435 597.5 c 128,-1,65
 397 617 397 617 347 617 c 0,66,67
 290 617 290 617 258 594 c 128,-1,68
 226 571 226 571 226 529 c 0,69,70
 226 502 226 502 237.5 484 c 128,-1,71
 249 466 249 466 277 451.5 c 128,-1,72
 305 437 305 437 361 418 c 0,73,0
 448 389 448 389 494.5 363 c 128,-1,1
EndSplineSet
Substitution2: "'locl' Localized Forms in Latin lookup 7 subtable" uni0218
Substitution2: "'locl' Localized Forms in Latin lookup 6 subtable" uni0218
Substitution2: "'aalt' Access All Alternates lookup 0 subtable" uni0218
EndChar

StartChar: uni1E9E
Encoding: 7838 7838 156
Width: 720
Flags: W
LayerCount: 2
Fore
SplineSet
591 333 m 128,-1,1
 635 293 635 293 635 224 c 0,2,3
 635 153 635 153 601.5 100 c 128,-1,4
 568 47 568 47 508 18.5 c 128,-1,5
 448 -10 448 -10 372 -10 c 0,6,7
 303 -10 303 -10 253 10.5 c 128,-1,8
 203 31 203 31 203 72 c 0,9,10
 203 93 203 93 215 110 c 128,-1,11
 227 127 227 127 248 129 c 1,12,13
 296 79 296 79 373 79 c 0,14,15
 434 79 434 79 470.5 116.5 c 128,-1,16
 507 154 507 154 507 219 c 0,17,18
 507 269 507 269 477 291 c 128,-1,19
 447 313 447 313 390 313 c 0,20,21
 361 313 361 313 344 327.5 c 128,-1,22
 327 342 327 342 327 366 c 2,23,-1
 328 375 l 1,24,-1
 502 543 l 1,25,26
 478 619 478 619 370 619 c 0,27,28
 302 619 302 619 258.5 579.5 c 128,-1,29
 215 540 215 540 204 462 c 2,30,-1
 139 0 l 1,31,-1
 14 0 l 1,32,-1
 78 462 l 2,33,34
 94 577 94 577 172.5 642.5 c 128,-1,35
 251 708 251 708 375 708 c 0,36,37
 452 708 452 708 509.5 683.5 c 128,-1,38
 567 659 567 659 598.5 618 c 128,-1,39
 630 577 630 577 634 529 c 1,40,-1
 479 386 l 1,41,0
 547 373 547 373 591 333 c 128,-1,1
EndSplineSet
EndChar

StartChar: uni018F
Encoding: 399 399 157
Width: 712
Flags: W
LayerCount: 2
Fore
SplineSet
515.5 680 m 128,-1,1
 578 650 578 650 615 587.5 c 128,-1,2
 652 525 652 525 652 432 c 0,3,4
 652 304 652 304 612.5 204.5 c 128,-1,5
 573 105 573 105 492 47.5 c 128,-1,6
 411 -10 411 -10 293 -10 c 256,7,8
 175 -10 175 -10 102.5 52 c 128,-1,9
 30 114 30 114 30 241 c 0,10,11
 30 263 30 263 34 296 c 128,-1,12
 38 329 38 329 45 376 c 1,13,-1
 524 376 l 1,14,15
 526 414 526 414 526 433 c 0,16,17
 526 525 526 525 486.5 572.5 c 128,-1,18
 447 620 447 620 368 620 c 0,19,20
 311 620 311 620 270.5 599.5 c 128,-1,21
 230 579 230 579 188 545 c 0,22,23
 177 537 177 537 164 537 c 0,24,25
 146 537 146 537 127.5 556 c 128,-1,26
 109 575 109 575 99 606 c 1,27,28
 199 710 199 710 376 710 c 0,29,0
 453 710 453 710 515.5 680 c 128,-1,1
433 136.5 m 128,-1,31
 487 193 487 193 510 288 c 1,32,-1
 157 288 l 1,33,34
 153 263 153 263 153 233 c 0,35,36
 153 160 153 160 188.5 120 c 128,-1,37
 224 80 224 80 297 80 c 0,38,30
 379 80 379 80 433 136.5 c 128,-1,31
EndSplineSet
EndChar

StartChar: T
Encoding: 84 84 158
Width: 534
GlyphClass: 2
Flags: W
AnchorPoint: "Anchor-10" 0 0 basechar 0
AnchorPoint: "Anchor-9" 303 660 basechar 0
AnchorPoint: "Anchor-8" 0 0 basechar 0
AnchorPoint: "Anchor-7" 211 0 basechar 0
LayerCount: 2
Fore
SplineSet
561 686 m 1,0,1
 561 607 561 607 509 607 c 2,2,-1
 358 607 l 1,3,-1
 273 0 l 1,4,-1
 147 0 l 1,5,-1
 232 607 l 1,6,-1
 43 607 l 1,7,-1
 56 700 l 1,8,-1
 560 700 l 1,9,-1
 561 686 l 1,0,1
EndSplineSet
EndChar

StartChar: Tbar
Encoding: 358 358 159
Width: 533
GlyphClass: 2
Flags: W
AnchorPoint: "Anchor-10" 0 0 basechar 0
AnchorPoint: "Anchor-9" 303 660 basechar 0
AnchorPoint: "Anchor-8" 0 0 basechar 0
AnchorPoint: "Anchor-7" 211 0 basechar 0
LayerCount: 2
Fore
SplineSet
561 686 m 1,0,1
 561 607 561 607 509 607 c 2,2,-1
 358 607 l 1,3,-1
 324 363 l 1,4,-1
 435 363 l 1,5,-1
 423 278 l 1,6,-1
 312 278 l 1,7,-1
 273 0 l 1,8,-1
 147 0 l 1,9,-1
 186 278 l 1,10,-1
 77 278 l 1,11,-1
 89 363 l 1,12,-1
 198 363 l 1,13,-1
 232 607 l 1,14,-1
 43 607 l 1,15,-1
 56 700 l 1,16,-1
 560 700 l 1,17,-1
 561 686 l 1,0,1
EndSplineSet
EndChar

StartChar: U
Encoding: 85 85 165
Width: 710
GlyphClass: 2
Flags: W
AnchorPoint: "Anchor-10" 662 673 basechar 0
AnchorPoint: "Anchor-9" 390 663 basechar 0
AnchorPoint: "Anchor-8" 389 10 basechar 0
AnchorPoint: "Anchor-7" 298 0 basechar 0
LayerCount: 2
Fore
SplineSet
53 194 m 0,1,2
 53 224 53 224 57 252 c 2,3,-1
 120 700 l 1,4,-1
 247 700 l 1,5,-1
 182 234 l 2,6,7
 179 216 179 216 179 200 c 0,8,9
 179 85 179 85 311 85 c 0,10,11
 387 85 387 85 429 121.5 c 128,-1,12
 471 158 471 158 481 234 c 2,13,-1
 546 700 l 1,14,-1
 673 700 l 1,15,-1
 610 252 l 2,16,17
 591 119 591 119 514 55 c 128,-1,18
 437 -9 437 -9 297 -9 c 0,19,0
 53 -9 53 -9 53 194 c 0,1,2
EndSplineSet
EndChar

StartChar: Uhorn
Encoding: 431 431 178
Width: 710
GlyphClass: 2
Flags: W
AnchorPoint: "Anchor-10" 662 673 basechar 0
AnchorPoint: "Anchor-9" 390 663 basechar 0
AnchorPoint: "Anchor-8" 389 10 basechar 0
AnchorPoint: "Anchor-7" 298 0 basechar 0
LayerCount: 2
Fore
SplineSet
829 841 m 128,-1,1
 847 823 847 823 847 792 c 0,2,3
 847 782 847 782 846 777 c 0,4,5
 827 647 827 647 664 637 c 1,6,-1
 610 252 l 2,7,8
 591 119 591 119 514 55 c 128,-1,9
 437 -9 437 -9 297 -9 c 0,10,11
 53 -9 53 -9 53 194 c 0,12,13
 53 224 53 224 57 252 c 2,14,-1
 120 700 l 1,15,-1
 247 700 l 1,16,-1
 182 234 l 2,17,18
 179 216 179 216 179 200 c 0,19,20
 179 85 179 85 311 85 c 0,21,22
 387 85 387 85 429 121.5 c 128,-1,23
 471 158 471 158 481 234 c 2,24,-1
 546 700 l 1,25,-1
 666 700 l 2,26,27
 728 700 728 700 738 767 c 0,28,29
 742 798 742 798 716 819 c 1,30,31
 721 835 721 835 738.5 847 c 128,-1,32
 756 859 756 859 780 859 c 0,33,0
 811 859 811 859 829 841 c 128,-1,1
EndSplineSet
EndChar

StartChar: Uogonek
Encoding: 370 370 186
Width: 710
GlyphClass: 2
Flags: W
AnchorPoint: "Anchor-10" 662 673 basechar 0
AnchorPoint: "Anchor-9" 390 663 basechar 0
AnchorPoint: "Anchor-8" 389 10 basechar 0
AnchorPoint: "Anchor-7" 298 0 basechar 0
LayerCount: 2
Fore
SplineSet
673 700 m 1,0,-1
 610 252 l 2,1,2
 594 139 594 139 536 76 c 128,-1,3
 478 13 478 13 374 -3 c 1,4,5
 321 -56 321 -56 321 -97 c 0,6,7
 321 -136 321 -136 353 -136 c 0,8,9
 373 -136 373 -136 393 -126 c 1,10,11
 405 -135 405 -135 405 -151 c 0,12,13
 404 -174 404 -174 382.5 -187 c 128,-1,14
 361 -200 361 -200 322 -200 c 0,15,16
 275 -200 275 -200 249 -182 c 128,-1,17
 223 -164 223 -164 223 -130 c 0,18,19
 223 -59 223 -59 301 -9 c 1,20,-1
 297 -9 l 2,21,22
 53 -9 53 -9 53 194 c 0,23,24
 53 224 53 224 57 252 c 2,25,-1
 120 700 l 1,26,-1
 247 700 l 1,27,-1
 182 234 l 2,28,29
 179 216 179 216 179 200 c 0,30,31
 179 85 179 85 311 85 c 0,32,33
 387 85 387 85 429 121.5 c 128,-1,34
 471 158 471 158 481 234 c 2,35,-1
 546 700 l 1,36,-1
 673 700 l 1,0,-1
EndSplineSet
EndChar

StartChar: V
Encoding: 86 86 189
Width: 638
GlyphClass: 2
Flags: W
AnchorPoint: "Anchor-10" 0 0 basechar 0
AnchorPoint: "Anchor-9" 354 660 basechar 0
AnchorPoint: "Anchor-8" 0 0 basechar 0
AnchorPoint: "Anchor-7" 262 0 basechar 0
LayerCount: 2
Fore
SplineSet
656 700 m 1,0,1
 603 500 603 500 520.5 328 c 128,-1,2
 438 156 438 156 320 0 c 1,3,-1
 205 0 l 1,4,5
 133 147 133 147 98.5 310 c 128,-1,6
 64 473 64 473 64 660 c 2,7,-1
 64 700 l 1,8,-1
 195 700 l 1,9,-1
 195 660 l 2,10,11
 195 348 195 348 280 132 c 1,12,13
 356 246 356 246 418.5 389.5 c 128,-1,14
 481 533 481 533 525 700 c 1,15,-1
 656 700 l 1,0,1
EndSplineSet
EndChar

StartChar: W
Encoding: 87 87 190
Width: 883
GlyphClass: 2
Flags: W
AnchorPoint: "Anchor-10" 0 0 basechar 0
AnchorPoint: "Anchor-9" 483 667 basechar 0
AnchorPoint: "Anchor-8" 0 0 basechar 0
AnchorPoint: "Anchor-7" 389 0 basechar 0
LayerCount: 2
Fore
SplineSet
909 700 m 1,0,1
 858 503 858 503 799 344.5 c 128,-1,2
 740 186 740 186 649 0 c 1,3,-1
 514 0 l 1,4,5
 485 160 485 160 472 258 c 128,-1,6
 459 356 459 356 454 463 c 1,7,8
 420 356 420 356 379.5 257.5 c 128,-1,9
 339 159 339 159 265 0 c 1,10,-1
 130 0 l 1,11,12
 90 169 90 169 73 322.5 c 128,-1,13
 56 476 56 476 56 664 c 2,14,-1
 56 700 l 1,15,-1
 181 700 l 1,16,17
 179 602 179 602 179 566 c 0,18,19
 179 451 179 451 187.5 356.5 c 128,-1,20
 196 262 196 262 216 136 c 1,21,22
 273 260 273 260 316.5 369.5 c 128,-1,23
 360 479 360 479 438 700 c 1,24,-1
 533 700 l 1,25,26
 556 452 556 452 568 349.5 c 128,-1,27
 580 247 580 247 600 136 c 1,28,29
 666 288 666 288 705 404.5 c 128,-1,30
 744 521 744 521 787 700 c 1,31,-1
 909 700 l 1,0,1
EndSplineSet
EndChar

StartChar: X
Encoding: 88 88 195
Width: 595
GlyphClass: 2
Flags: W
AnchorPoint: "Anchor-10" 0 0 basechar 0
AnchorPoint: "Anchor-9" 329 660 basechar 0
AnchorPoint: "Anchor-8" 0 0 basechar 0
AnchorPoint: "Anchor-7" 237 0 basechar 0
LayerCount: 2
Fore
SplineSet
519.5 530 m 128,-1,1
 461 457 461 457 366 370 c 1,2,3
 414 312 414 312 446.5 262.5 c 128,-1,4
 479 213 479 213 502 147.5 c 128,-1,5
 525 82 525 82 528 0 c 1,6,-1
 397 0 l 1,7,8
 395 87 395 87 365 155 c 128,-1,9
 335 223 335 223 282 293 c 1,10,11
 209 224 209 224 160 155.5 c 128,-1,12
 111 87 111 87 84 0 c 1,13,-1
 -46 0 l 1,14,15
 -20 82 -20 82 21 147.5 c 128,-1,16
 62 213 62 213 108 262.5 c 128,-1,17
 154 312 154 312 219 371 c 1,18,19
 173 426 173 426 143 472 c 128,-1,20
 113 518 113 518 92 575 c 128,-1,21
 71 632 71 632 67 700 c 1,22,-1
 195 700 l 1,23,24
 201 625 201 625 228.5 566 c 128,-1,25
 256 507 256 507 303 447 c 1,26,27
 368 508 368 508 412 567 c 128,-1,28
 456 626 456 626 482 700 c 1,29,-1
 611 700 l 1,30,0
 578 603 578 603 519.5 530 c 128,-1,1
EndSplineSet
EndChar

StartChar: Y
Encoding: 89 89 196
Width: 590
GlyphClass: 2
Flags: W
AnchorPoint: "Anchor-10" 0 0 basechar 0
AnchorPoint: "Anchor-9" 330 660 basechar 0
AnchorPoint: "Anchor-8" 0 0 basechar 0
AnchorPoint: "Anchor-7" 238 0 basechar 0
LayerCount: 2
Fore
SplineSet
618 700 m 1,0,-1
 342 294 l 1,1,-1
 301 0 l 1,2,-1
 175 0 l 1,3,-1
 216 294 l 1,4,-1
 54 700 l 1,5,-1
 186 700 l 1,6,-1
 296 406 l 1,7,-1
 487 700 l 1,8,-1
 618 700 l 1,0,-1
EndSplineSet
EndChar

StartChar: Z
Encoding: 90 90 205
Width: 580
GlyphClass: 2
Flags: W
AnchorPoint: "Anchor-10" 0 0 basechar 0
AnchorPoint: "Anchor-9" 318 660 basechar 0
AnchorPoint: "Anchor-8" 0 0 basechar 0
AnchorPoint: "Anchor-7" 226 0 basechar 0
LayerCount: 2
Fore
SplineSet
555 609 m 1,0,-1
 143 87 l 1,1,-1
 490 87 l 1,2,-1
 478 0 l 1,3,-1
 -10 0 l 1,4,-1
 2 87 l 1,5,-1
 420 613 l 1,6,-1
 74 613 l 1,7,-1
 86 700 l 1,8,-1
 568 700 l 1,9,-1
 555 609 l 1,0,-1
EndSplineSet
EndChar

StartChar: a
Encoding: 97 97 210
Width: 565
GlyphClass: 2
Flags: W
AnchorPoint: "Anchor-10" 0 0 basechar 0
AnchorPoint: "Anchor-9" 297 550 basechar 0
AnchorPoint: "Anchor-8" 446 10 basechar 0
AnchorPoint: "Anchor-7" 222 0 basechar 0
LayerCount: 2
Fore
SplineSet
465 184 m 2,0,1
 456 127 456 127 456 95 c 0,2,3
 456 53 456 53 475 24 c 1,4,5
 457 11 457 11 429.5 2.5 c 128,-1,6
 402 -6 402 -6 379 -6 c 0,7,8
 331 -6 331 -6 331 72 c 1,9,10
 299 32 299 32 256 11 c 128,-1,11
 213 -10 213 -10 153 -10 c 0,12,13
 88 -10 88 -10 46.5 28 c 128,-1,14
 5 66 5 66 5 134 c 0,15,16
 5 228 5 228 96 274 c 128,-1,17
 187 320 187 320 364 328 c 1,18,-1
 370 373 l 2,19,20
 371 381 371 381 371 395 c 0,21,22
 371 433 371 433 349.5 452 c 128,-1,23
 328 471 328 471 281 471 c 0,24,25
 238 471 238 471 203 454.5 c 128,-1,26
 168 438 168 438 124 407 c 0,27,28
 116 402 116 402 109 402 c 0,29,30
 93 402 93 402 78 421 c 128,-1,31
 63 440 63 440 53 471 c 1,32,33
 96 508 96 508 164 534 c 128,-1,34
 232 560 232 560 306 560 c 0,35,36
 397 560 397 560 445 519.5 c 128,-1,37
 493 479 493 479 493 406 c 0,38,39
 493 385 493 385 491 373 c 2,40,-1
 465 184 l 2,0,1
341 168 m 1,42,-1
 354 259 l 1,43,44
 233 255 233 255 181.5 226 c 128,-1,45
 130 197 130 197 130 145 c 0,46,47
 130 73 130 73 201 73 c 0,48,41
 273 73 273 73 341 168 c 1,42,-1
EndSplineSet
Substitution2: "Single Substitution lookup 20 subtable" ordfeminine
Substitution2: "'aalt' Access All Alternates lookup 0 subtable" ordfeminine
EndChar

StartChar: uni0251
Encoding: 593 593 229
Width: 602
Flags: W
LayerCount: 2
Fore
SplineSet
521 356 m 2,0,1
 505 240 505 240 497 177 c 128,-1,2
 489 114 489 114 489 83 c 0,3,4
 489 43 489 43 503 21 c 1,5,6
 453 -6 453 -6 404 -6 c 0,7,8
 369 -6 369 -6 364 47 c 1,9,10
 305 -10 305 -10 216 -10 c 256,11,12
 127 -10 127 -10 69 44.5 c 128,-1,13
 11 99 11 99 11 212 c 0,14,15
 11 314 11 314 45.5 393 c 128,-1,16
 80 472 80 472 146.5 516 c 128,-1,17
 213 560 213 560 307 560 c 0,18,19
 341 560 341 560 372 550.5 c 128,-1,20
 403 541 403 541 424 526 c 1,21,-1
 427 550 l 1,22,-1
 548 550 l 1,23,-1
 521 356 l 2,0,1
411 440 m 1,25,26
 394 458 394 458 366.5 468.5 c 128,-1,27
 339 479 339 479 307 479 c 0,28,29
 249 479 249 479 210 441.5 c 128,-1,30
 171 404 171 404 152.5 345 c 128,-1,31
 134 286 134 286 134 219 c 0,32,33
 134 143 134 143 162 108 c 128,-1,34
 190 73 190 73 239 73 c 0,35,36
 314 73 314 73 370 141 c 1,37,24
 377 197 377 197 411 440 c 1,25,26
EndSplineSet
EndChar

StartChar: aogonek
Encoding: 261 261 231
Width: 565
GlyphClass: 2
Flags: W
AnchorPoint: "Anchor-10" 0 0 basechar 0
AnchorPoint: "Anchor-9" 297 550 basechar 0
AnchorPoint: "Anchor-8" 446 10 basechar 0
AnchorPoint: "Anchor-7" 222 0 basechar 0
LayerCount: 2
Fore
SplineSet
465 184 m 2,0,1
 456 127 456 127 456 95 c 0,2,3
 456 53 456 53 475 24 c 1,4,5
 460 14 460 14 443 7 c 1,6,7
 414 -18 414 -18 396 -45 c 128,-1,8
 378 -72 378 -72 378 -97 c 0,9,10
 378 -136 378 -136 410 -136 c 0,11,12
 430 -136 430 -136 450 -126 c 1,13,14
 462 -135 462 -135 462 -151 c 0,15,16
 461 -174 461 -174 439.5 -187 c 128,-1,17
 418 -200 418 -200 379 -200 c 0,18,19
 332 -200 332 -200 306 -182 c 128,-1,20
 280 -164 280 -164 280 -130 c 0,21,22
 280 -55 280 -55 366 -4 c 1,23,24
 331 5 331 5 331 72 c 1,25,26
 299 32 299 32 256 11 c 128,-1,27
 213 -10 213 -10 153 -10 c 0,28,29
 88 -10 88 -10 46.5 28 c 128,-1,30
 5 66 5 66 5 134 c 0,31,32
 5 228 5 228 96 274 c 128,-1,33
 187 320 187 320 364 328 c 1,34,-1
 370 373 l 2,35,36
 371 381 371 381 371 395 c 0,37,38
 371 433 371 433 349.5 452 c 128,-1,39
 328 471 328 471 281 471 c 0,40,41
 238 471 238 471 203 454.5 c 128,-1,42
 168 438 168 438 124 407 c 0,43,44
 116 402 116 402 109 402 c 0,45,46
 93 402 93 402 78 421 c 128,-1,47
 63 440 63 440 53 471 c 1,48,49
 96 508 96 508 164 534 c 128,-1,50
 232 560 232 560 306 560 c 0,51,52
 397 560 397 560 445 519.5 c 128,-1,53
 493 479 493 479 493 406 c 0,54,55
 493 385 493 385 491 373 c 2,56,-1
 465 184 l 2,0,1
341 168 m 1,58,-1
 354 259 l 1,59,60
 233 255 233 255 181.5 226 c 128,-1,61
 130 197 130 197 130 145 c 0,62,63
 130 73 130 73 201 73 c 0,64,57
 273 73 273 73 341 168 c 1,58,-1
EndSplineSet
EndChar

StartChar: ae
Encoding: 230 230 235
Width: 904
GlyphClass: 2
Flags: W
AnchorPoint: "Anchor-10" 0 0 basechar 0
AnchorPoint: "Anchor-9" 472 550 basechar 0
AnchorPoint: "Anchor-8" 0 0 basechar 0
AnchorPoint: "Anchor-7" 395 0 basechar 0
LayerCount: 2
Fore
SplineSet
480 255 m 1,0,1
 478 225 478 225 478 209 c 0,2,3
 478 139 478 139 508 106 c 128,-1,4
 538 73 538 73 590 73 c 0,5,6
 624 73 624 73 649 83.5 c 128,-1,7
 674 94 674 94 691 110 c 128,-1,8
 708 126 708 126 733 154 c 0,9,10
 742 165 742 165 755 165 c 0,11,12
 782 165 782 165 827 128 c 1,13,14
 750 -12 750 -12 580 -12 c 0,15,16
 523 -12 523 -12 476 8 c 128,-1,17
 429 28 429 28 399 66 c 1,18,19
 358 29 358 29 306 8.5 c 128,-1,20
 254 -12 254 -12 180 -12 c 0,21,22
 103 -12 103 -12 54.5 30.5 c 128,-1,23
 6 73 6 73 6 140 c 0,24,25
 6 248 6 248 101.5 288 c 128,-1,26
 197 328 197 328 367 327 c 1,27,28
 374 380 374 380 374 393 c 0,29,30
 374 431 374 431 350 451 c 128,-1,31
 326 471 326 471 282 471 c 0,32,33
 245 471 245 471 216.5 459.5 c 128,-1,34
 188 448 188 448 146 422 c 2,35,-1
 122 407 l 2,36,37
 115 402 115 402 108 402 c 0,38,39
 93 402 93 402 79 422 c 128,-1,40
 65 442 65 442 55 476 c 1,41,42
 105 513 105 513 167.5 536.5 c 128,-1,43
 230 560 230 560 299 560 c 0,44,45
 354 560 354 560 397 543.5 c 128,-1,46
 440 527 440 527 466 495 c 1,47,48
 541 560 541 560 650 560 c 0,49,50
 855 560 855 560 855 353 c 0,51,52
 855 304 855 304 840 255 c 1,53,-1
 480 255 l 1,0,1
543.5 437 m 128,-1,55
 507 395 507 395 491 327 c 1,56,-1
 735 327 l 1,57,58
 738 350 738 350 738 371 c 0,59,60
 738 422 738 422 712.5 450.5 c 128,-1,61
 687 479 687 479 636 479 c 0,62,54
 580 479 580 479 543.5 437 c 128,-1,55
359 156 m 1,64,65
 354 184 354 184 354 210 c 0,66,67
 354 225 354 225 356 253 c 1,68,69
 243 251 243 251 187 224.5 c 128,-1,70
 131 198 131 198 131 144 c 0,71,72
 131 112 131 112 151.5 91.5 c 128,-1,73
 172 71 172 71 208 71 c 0,74,63
 301 71 301 71 359 156 c 1,64,65
EndSplineSet
EndChar

StartChar: b
Encoding: 98 98 237
Width: 610
Flags: W
LayerCount: 2
Fore
SplineSet
461 532.5 m 128,-1,1
 506 505 506 505 531 454.5 c 128,-1,2
 556 404 556 404 556 337 c 0,3,4
 556 237 556 237 524.5 158 c 128,-1,5
 493 79 493 79 433.5 34.5 c 128,-1,6
 374 -10 374 -10 295 -10 c 0,7,8
 247 -10 247 -10 207 9 c 128,-1,9
 167 28 167 28 144 61 c 1,10,11
 123 -5 123 -5 86 -5 c 0,12,13
 62 -5 62 -5 37 2 c 128,-1,14
 12 9 12 9 -7 22 c 1,15,16
 12 45 12 45 23.5 79 c 128,-1,17
 35 113 35 113 44 182 c 2,18,-1
 130 791 l 1,19,-1
 252 791 l 1,20,-1
 213 515 l 1,21,22
 279 560 279 560 356 560 c 0,23,0
 416 560 416 560 461 532.5 c 128,-1,1
393 145.5 m 128,-1,25
 434 218 434 218 434 334 c 0,26,27
 434 403 434 403 404.5 441 c 128,-1,28
 375 479 375 479 326 479 c 0,29,30
 261 479 261 479 201 429 c 1,31,-1
 161 149 l 1,32,33
 201 73 201 73 280 73 c 0,34,24
 352 73 352 73 393 145.5 c 128,-1,25
EndSplineSet
EndChar

StartChar: c
Encoding: 99 99 238
Width: 567
GlyphClass: 2
Flags: W
AnchorPoint: "Anchor-10" 0 0 basechar 0
AnchorPoint: "Anchor-9" 320 550 basechar 0
AnchorPoint: "Anchor-8" 0 0 basechar 0
AnchorPoint: "Anchor-7" 243 0 basechar 0
LayerCount: 2
Fore
SplineSet
74 52 m 128,-1,1
 10 114 10 114 10 226 c 0,2,3
 10 329 10 329 45.5 404.5 c 128,-1,4
 81 480 81 480 148 520 c 128,-1,5
 215 560 215 560 306 560 c 0,6,7
 405 560 405 560 462 511 c 128,-1,8
 519 462 519 462 519 376 c 1,9,10
 490 362 490 362 472.5 356.5 c 128,-1,11
 455 351 455 351 440 351 c 0,12,13
 426 351 426 351 418.5 360 c 128,-1,14
 411 369 411 369 408 389 c 0,15,16
 396 478 396 478 302 478 c 0,17,18
 221 478 221 478 177.5 414.5 c 128,-1,19
 134 351 134 351 134 231 c 0,20,21
 134 157 134 157 166.5 116 c 128,-1,22
 199 75 199 75 257 75 c 0,23,24
 308 75 308 75 340.5 102 c 128,-1,25
 373 129 373 129 401 194 c 1,26,27
 475 194 475 194 475 128 c 0,28,29
 475 89 475 89 446.5 57.5 c 128,-1,30
 418 26 418 26 367.5 8 c 128,-1,31
 317 -10 317 -10 254 -10 c 0,32,0
 138 -10 138 -10 74 52 c 128,-1,1
EndSplineSet
EndChar

StartChar: ccedilla
Encoding: 231 231 241
Width: 567
GlyphClass: 2
Flags: W
AnchorPoint: "Anchor-10" 0 0 basechar 0
AnchorPoint: "Anchor-9" 0 0 basechar 0
AnchorPoint: "Anchor-8" 0 0 basechar 0
AnchorPoint: "Anchor-7" 213 -214 basechar 0
LayerCount: 2
Fore
SplineSet
475 128 m 0,1,2
 475 73 475 73 421 34.5 c 128,-1,3
 367 -4 367 -4 281 -9 c 1,4,-1
 236 -52 l 1,5,-1
 245 -52 l 2,6,7
 284 -52 284 -52 309 -71.5 c 128,-1,8
 334 -91 334 -91 334 -124 c 0,9,10
 334 -178 334 -178 292 -207 c 128,-1,11
 250 -236 250 -236 185 -236 c 0,12,13
 136 -236 136 -236 113.5 -224 c 128,-1,14
 91 -212 91 -212 91 -192 c 0,15,16
 91 -179 91 -179 98 -166 c 1,17,18
 109 -171 109 -171 131.5 -174 c 128,-1,19
 154 -177 154 -177 180 -177 c 0,20,21
 210 -177 210 -177 226.5 -165.5 c 128,-1,22
 243 -154 243 -154 243 -134 c 0,23,24
 243 -108 243 -108 208 -108 c 0,25,26
 192 -108 192 -108 175 -114 c 1,27,-1
 150 -75 l 1,28,-1
 206 -7 l 1,29,30
 113 6 113 6 61.5 66.5 c 128,-1,31
 10 127 10 127 10 226 c 0,32,33
 10 329 10 329 45.5 404.5 c 128,-1,34
 81 480 81 480 148 520 c 128,-1,35
 215 560 215 560 306 560 c 0,36,37
 405 560 405 560 462 511 c 128,-1,38
 519 462 519 462 519 376 c 1,39,40
 490 362 490 362 472.5 356.5 c 128,-1,41
 455 351 455 351 440 351 c 0,42,43
 426 351 426 351 418.5 360 c 128,-1,44
 411 369 411 369 408 389 c 0,45,46
 396 478 396 478 302 478 c 0,47,48
 221 478 221 478 177.5 414.5 c 128,-1,49
 134 351 134 351 134 231 c 0,50,51
 134 157 134 157 166.5 116 c 128,-1,52
 199 75 199 75 257 75 c 0,53,54
 308 75 308 75 340.5 102 c 128,-1,55
 373 129 373 129 401 194 c 1,56,0
 475 194 475 194 475 128 c 0,1,2
EndSplineSet
EndChar

StartChar: d
Encoding: 100 100 244
Width: 598
GlyphClass: 2
Flags: W
AnchorPoint: "Anchor-10" 598 550 basechar 0
AnchorPoint: "Anchor-9" 347 750 basechar 0
AnchorPoint: "Anchor-8" 0 0 basechar 0
AnchorPoint: "Anchor-7" 242 0 basechar 0
LayerCount: 2
Fore
SplineSet
487 83 m 0,1,2
 487 48 487 48 499 21 c 1,3,4
 475 8 475 8 449 1 c 128,-1,5
 423 -6 423 -6 401 -6 c 0,6,7
 382 -6 382 -6 372.5 10.5 c 128,-1,8
 363 27 363 27 362 62 c 1,9,10
 299 -10 299 -10 201 -10 c 0,11,12
 109 -10 109 -10 59 46 c 128,-1,13
 9 102 9 102 9 204 c 0,14,15
 9 309 9 309 46.5 390 c 128,-1,16
 84 471 84 471 151.5 515.5 c 128,-1,17
 219 560 219 560 306 560 c 0,18,19
 338 560 338 560 369.5 551 c 128,-1,20
 401 542 401 542 423 527 c 1,21,-1
 460 791 l 1,22,-1
 581 791 l 1,23,-1
 495 181 l 2,24,0
 487 126 487 126 487 83 c 0,1,2
410 439 m 1,25,26
 394 457 394 457 365.5 468 c 128,-1,27
 337 479 337 479 306 479 c 0,28,29
 255 479 255 479 215.5 444.5 c 128,-1,30
 176 410 176 410 154 347.5 c 128,-1,31
 132 285 132 285 132 203 c 0,32,33
 132 137 132 137 156 105 c 128,-1,34
 180 73 180 73 229 73 c 0,35,36
 272 73 272 73 306 91.5 c 128,-1,37
 340 110 340 110 370 152 c 1,38,-1
 410 439 l 1,25,26
EndSplineSet
EndChar

StartChar: eth
Encoding: 240 240 245
Width: 587
Flags: W
LayerCount: 2
Fore
SplineSet
511 539 m 128,-1,1
 538 458 538 458 538 370 c 0,2,3
 538 191 538 191 468 89.5 c 128,-1,4
 398 -12 398 -12 248 -12 c 0,5,6
 136 -12 136 -12 76 49 c 128,-1,7
 16 110 16 110 16 210 c 0,8,9
 16 307 16 307 49.5 383.5 c 128,-1,10
 83 460 83 460 148.5 503.5 c 128,-1,11
 214 547 214 547 306 547 c 0,12,13
 348 547 348 547 381 532 c 1,14,15
 358 586 358 586 327 627 c 1,16,-1
 237 575 l 1,17,-1
 204 633 l 1,18,-1
 282 679 l 1,19,20
 252 709 252 709 218 734 c 1,21,-1
 313 801 l 1,22,23
 354 772 354 772 386 740 c 1,24,-1
 480 795 l 1,25,-1
 513 736 l 1,26,-1
 431 688 l 1,27,0
 484 620 484 620 511 539 c 128,-1,1
371.5 140.5 m 128,-1,29
 409 212 409 212 409 326 c 0,30,31
 409 392 409 392 382.5 429 c 128,-1,32
 356 466 356 466 302 466 c 0,33,34
 216 466 216 466 177 394.5 c 128,-1,35
 138 323 138 323 138 208 c 0,36,37
 138 69 138 69 250 69 c 0,38,28
 334 69 334 69 371.5 140.5 c 128,-1,29
EndSplineSet
EndChar

StartChar: dcroat
Encoding: 273 273 247
Width: 602
GlyphClass: 2
Flags: W
AnchorPoint: "Anchor-10" 598 550 basechar 0
AnchorPoint: "Anchor-9" 347 750 basechar 0
AnchorPoint: "Anchor-8" 0 0 basechar 0
AnchorPoint: "Anchor-7" 242 0 basechar 0
LayerCount: 2
Fore
SplineSet
495 181 m 2,0,1
 487 126 487 126 487 83 c 0,2,3
 487 48 487 48 499 21 c 1,4,5
 475 8 475 8 449 1 c 128,-1,6
 423 -6 423 -6 401 -6 c 0,7,8
 382 -6 382 -6 372.5 10.5 c 128,-1,9
 363 27 363 27 362 62 c 1,10,11
 299 -10 299 -10 201 -10 c 0,12,13
 109 -10 109 -10 59 46 c 128,-1,14
 9 102 9 102 9 204 c 0,15,16
 9 309 9 309 46.5 390 c 128,-1,17
 84 471 84 471 151.5 515.5 c 128,-1,18
 219 560 219 560 306 560 c 0,19,20
 338 560 338 560 369.5 551 c 128,-1,21
 401 542 401 542 423 527 c 1,22,-1
 438 637 l 1,23,-1
 323 637 l 1,24,-1
 334 713 l 1,25,-1
 449 713 l 1,26,-1
 460 791 l 1,27,-1
 581 791 l 1,28,-1
 570 713 l 1,29,-1
 645 713 l 1,30,-1
 634 637 l 1,31,-1
 559 637 l 1,32,-1
 495 181 l 2,0,1
410 439 m 1,33,34
 394 457 394 457 365.5 468 c 128,-1,35
 337 479 337 479 306 479 c 0,36,37
 255 479 255 479 215.5 444.5 c 128,-1,38
 176 410 176 410 154 347.5 c 128,-1,39
 132 285 132 285 132 203 c 0,40,41
 132 137 132 137 156 105 c 128,-1,42
 180 73 180 73 229 73 c 0,43,44
 272 73 272 73 306 91.5 c 128,-1,45
 340 110 340 110 370 152 c 1,46,-1
 410 439 l 1,33,34
EndSplineSet
EndChar

StartChar: e
Encoding: 101 101 250
Width: 573
GlyphClass: 2
Flags: W
AnchorPoint: "Anchor-10" 0 0 basechar 0
AnchorPoint: "Anchor-9" 313 550 basechar 0
AnchorPoint: "Anchor-8" 342 10 basechar 0
AnchorPoint: "Anchor-7" 240 0 basechar 0
LayerCount: 2
Fore
SplineSet
145 255 m 1,0,1
 144 245 144 245 144 225 c 0,2,3
 144 154 144 154 174.5 114.5 c 128,-1,4
 205 75 205 75 260 75 c 0,5,6
 305 75 305 75 336.5 91.5 c 128,-1,7
 368 108 368 108 399 149 c 0,8,9
 408 161 408 161 421 161 c 256,10,11
 434 161 434 161 453.5 151 c 128,-1,12
 473 141 473 141 493 124 c 1,13,14
 422 -10 422 -10 250 -10 c 0,15,16
 181 -10 181 -10 129 19 c 128,-1,17
 77 48 77 48 48.5 100.5 c 128,-1,18
 20 153 20 153 20 222 c 0,19,20
 20 327 20 327 55.5 403 c 128,-1,21
 91 479 91 479 157.5 519.5 c 128,-1,22
 224 560 224 560 315 560 c 0,23,24
 422 560 422 560 473.5 509 c 128,-1,25
 525 458 525 458 525 352 c 0,26,27
 525 308 525 308 515 255 c 1,28,-1
 145 255 l 1,0,1
210.5 440 m 128,-1,30
 171 401 171 401 154 329 c 1,31,-1
 405 329 l 1,32,33
 408 350 408 350 408 372 c 0,34,35
 408 479 408 479 310 479 c 0,36,29
 250 479 250 479 210.5 440 c 128,-1,30
EndSplineSet
EndChar

StartChar: eogonek
Encoding: 281 281 266
Width: 573
GlyphClass: 2
Flags: W
AnchorPoint: "Anchor-10" 0 0 basechar 0
AnchorPoint: "Anchor-9" 313 550 basechar 0
AnchorPoint: "Anchor-8" 342 10 basechar 0
AnchorPoint: "Anchor-7" 240 0 basechar 0
LayerCount: 2
Fore
SplineSet
145 255 m 1,0,1
 144 245 144 245 144 225 c 0,2,3
 144 154 144 154 174.5 114.5 c 128,-1,4
 205 75 205 75 260 75 c 0,5,6
 305 75 305 75 336.5 91.5 c 128,-1,7
 368 108 368 108 399 149 c 0,8,9
 408 161 408 161 421 161 c 256,10,11
 434 161 434 161 453.5 151 c 128,-1,12
 473 141 473 141 493 124 c 1,13,14
 440 23 440 23 329 -2 c 1,15,16
 274 -53 274 -53 274 -97 c 0,17,18
 274 -117 274 -117 281 -126.5 c 128,-1,19
 288 -136 288 -136 305 -136 c 0,20,21
 326 -136 326 -136 346 -126 c 1,22,23
 358 -137 358 -137 358 -151 c 0,24,25
 357 -174 357 -174 335.5 -187 c 128,-1,26
 314 -200 314 -200 275 -200 c 0,27,28
 227 -200 227 -200 201.5 -182 c 128,-1,29
 176 -164 176 -164 176 -130 c 0,30,31
 176 -60 176 -60 251 -10 c 1,32,-1
 250 -10 l 2,33,34
 181 -10 181 -10 129 19 c 128,-1,35
 77 48 77 48 48.5 100.5 c 128,-1,36
 20 153 20 153 20 222 c 0,37,38
 20 327 20 327 55.5 403 c 128,-1,39
 91 479 91 479 157.5 519.5 c 128,-1,40
 224 560 224 560 315 560 c 0,41,42
 422 560 422 560 473.5 509 c 128,-1,43
 525 458 525 458 525 352 c 0,44,45
 525 308 525 308 515 255 c 1,46,-1
 145 255 l 1,0,1
210.5 440 m 128,-1,48
 171 401 171 401 154 329 c 1,49,-1
 405 329 l 1,50,51
 408 350 408 350 408 372 c 0,52,53
 408 479 408 479 310 479 c 0,54,47
 250 479 250 479 210.5 440 c 128,-1,48
EndSplineSet
EndChar

StartChar: uni0259
Encoding: 601 601 268
Width: 573
GlyphClass: 2
Flags: W
AnchorPoint: "Anchor-10" 0 0 basechar 0
AnchorPoint: "Anchor-9" 334 550 basechar 0
AnchorPoint: "Anchor-8" 232 540 basechar 0
AnchorPoint: "Anchor-7" 261 0 basechar 0
LayerCount: 2
Fore
SplineSet
444 531 m 128,-1,1
 496 502 496 502 524.5 449.5 c 128,-1,2
 553 397 553 397 553 328 c 0,3,4
 553 223 553 223 517.5 147 c 128,-1,5
 482 71 482 71 416 30.5 c 128,-1,6
 350 -10 350 -10 259 -10 c 0,7,8
 152 -10 152 -10 100.5 41 c 128,-1,9
 49 92 49 92 49 198 c 0,10,11
 49 237 49 237 58 295 c 1,12,-1
 429 295 l 1,13,14
 430 305 430 305 430 325 c 0,15,16
 430 396 430 396 399.5 435.5 c 128,-1,17
 369 475 369 475 314 475 c 0,18,19
 268 475 268 475 237 458.5 c 128,-1,20
 206 442 206 442 175 401 c 0,21,22
 166 389 166 389 153 389 c 0,23,24
 123 389 123 389 80 426 c 1,25,26
 151 560 151 560 323 560 c 0,27,0
 392 560 392 560 444 531 c 128,-1,1
363 110 m 128,-1,29
 403 149 403 149 419 221 c 1,30,-1
 168 221 l 1,31,32
 165 200 165 200 165 178 c 0,33,34
 165 71 165 71 264 71 c 0,35,28
 323 71 323 71 363 110 c 128,-1,29
EndSplineSet
EndChar

StartChar: f
Encoding: 102 102 269
Width: 355
Flags: W
LayerCount: 2
Fore
SplineSet
390 773.5 m 128,-1,1
 418 758 418 758 418 730 c 0,2,3
 418 717 418 717 411.5 705.5 c 128,-1,4
 405 694 405 694 397 689 c 1,5,6
 367 704 367 704 324 704 c 0,7,8
 292 704 292 704 272 681.5 c 128,-1,9
 252 659 252 659 246 616 c 2,10,-1
 237 550 l 1,11,-1
 347 550 l 1,12,-1
 336 471 l 1,13,-1
 226 471 l 1,14,-1
 159 0 l 1,15,-1
 38 0 l 1,16,-1
 104 471 l 1,17,-1
 14 471 l 1,18,-1
 25 550 l 1,19,-1
 115 550 l 1,20,-1
 124 617 l 2,21,22
 136 698 136 698 185 743.5 c 128,-1,23
 234 789 234 789 310 789 c 0,24,0
 362 789 362 789 390 773.5 c 128,-1,1
EndSplineSet
EndChar

StartChar: g
Encoding: 103 103 270
Width: 585
GlyphClass: 2
Flags: W
AnchorPoint: "Anchor-10" 0 0 basechar 0
AnchorPoint: "Anchor-9" 313 550 basechar 0
AnchorPoint: "Anchor-8" 0 0 basechar 0
AnchorPoint: "Anchor-7" 208 -188 basechar 0
LayerCount: 2
Fore
SplineSet
591 502 m 1,1,2
 516 502 516 502 483 482 c 1,3,4
 511 443 511 443 511 395 c 0,5,6
 511 291 511 291 447 237.5 c 128,-1,7
 383 184 383 184 256 184 c 0,8,9
 199 184 199 184 173 176 c 128,-1,10
 147 168 147 168 145 149 c 0,11,12
 144 130 144 130 169 123.5 c 128,-1,13
 194 117 194 117 268 117 c 0,14,15
 377 117 377 117 434.5 81 c 128,-1,16
 492 45 492 45 492 -22 c 0,17,18
 492 -109 492 -109 418.5 -157 c 128,-1,19
 345 -205 345 -205 212 -205 c 0,20,21
 96 -205 96 -205 33 -170 c 128,-1,22
 -30 -135 -30 -135 -30 -71 c 0,23,24
 -30 -19 -30 -19 6.5 13.5 c 128,-1,25
 43 46 43 46 111 54 c 1,26,-1
 111 57 l 1,27,28
 79 64 79 64 60.5 82 c 128,-1,29
 42 100 42 100 42 125 c 0,30,31
 42 155 42 155 67 178.5 c 128,-1,32
 92 202 92 202 133 212 c 1,33,34
 94 232 94 232 72.5 266.5 c 128,-1,35
 51 301 51 301 51 344 c 0,36,37
 51 448 51 448 117 504 c 128,-1,38
 183 560 183 560 304 560 c 0,39,40
 373 560 373 560 424 532 c 1,41,42
 453 562 453 562 487 580.5 c 128,-1,43
 521 599 521 599 550 599 c 0,44,45
 574 599 574 599 585 586.5 c 128,-1,46
 596 574 596 574 596 546 c 0,47,0
 596 529 596 529 591 502 c 1,1,2
386 400 m 0,49,50
 386 440 386 440 364 459.5 c 128,-1,51
 342 479 342 479 295 479 c 0,52,53
 236 479 236 479 205.5 446 c 128,-1,54
 175 413 175 413 175 349 c 0,55,56
 175 267 175 267 265 267 c 0,57,48
 386 267 386 267 386 400 c 0,49,50
97 -57 m 0,59,60
 97 -91 97 -91 125.5 -107 c 128,-1,61
 154 -123 154 -123 215 -123 c 0,62,63
 291 -123 291 -123 332 -99 c 128,-1,64
 373 -75 373 -75 373 -30 c 0,65,66
 373 3 373 3 341 19 c 128,-1,67
 309 35 309 35 240 35 c 0,68,58
 97 35 97 35 97 -57 c 0,59,60
EndSplineSet
EndChar

StartChar: h
Encoding: 104 104 277
Width: 630
GlyphClass: 2
Flags: W
AnchorPoint: "Anchor-10" 0 0 basechar 0
AnchorPoint: "Anchor-9" 171 737 basechar 0
AnchorPoint: "Anchor-8" 0 0 basechar 0
AnchorPoint: "Anchor-7" 258 0 basechar 0
LayerCount: 2
Fore
SplineSet
507 523 m 128,-1,1
 545 486 545 486 545 421 c 0,2,3
 545 411 545 411 543 389 c 2,4,-1
 489 0 l 1,5,-1
 367 0 l 1,6,-1
 420 376 l 2,7,8
 422 394 422 394 422 401 c 0,9,10
 422 471 422 471 350 471 c 0,11,12
 276 471 276 471 186 408 c 1,13,-1
 129 0 l 1,14,-1
 7 0 l 1,15,-1
 118 791 l 1,16,-1
 240 791 l 1,17,-1
 197 486 l 1,18,19
 241 521 241 521 295 540.5 c 128,-1,20
 349 560 349 560 401 560 c 0,21,0
 469 560 469 560 507 523 c 128,-1,1
EndSplineSet
EndChar

StartChar: hbar
Encoding: 295 295 278
Width: 659
GlyphClass: 2
Flags: W
AnchorPoint: "Anchor-10" 0 0 basechar 0
AnchorPoint: "Anchor-9" 200 737 basechar 0
AnchorPoint: "Anchor-8" 0 0 basechar 0
AnchorPoint: "Anchor-7" 287 0 basechar 0
LayerCount: 2
Fore
SplineSet
536 523.5 m 128,-1,1
 574 487 574 487 574 422 c 0,2,3
 574 400 574 400 572 389 c 2,4,-1
 518 0 l 1,5,-1
 397 0 l 1,6,-1
 449 376 l 2,7,8
 451 394 451 394 451 402 c 0,9,10
 451 471 451 471 379 471 c 0,11,12
 343 471 343 471 300.5 454.5 c 128,-1,13
 258 438 258 438 215 408 c 1,14,-1
 158 0 l 1,15,-1
 37 0 l 1,16,-1
 126 636 l 1,17,-1
 61 636 l 1,18,-1
 71 704 l 1,19,-1
 136 704 l 1,20,-1
 148 791 l 1,21,-1
 269 791 l 1,22,-1
 257 704 l 1,23,-1
 370 704 l 1,24,-1
 360 636 l 1,25,-1
 247 636 l 1,26,-1
 226 485 l 1,27,28
 271 520 271 520 325 540 c 128,-1,29
 379 560 379 560 430 560 c 0,30,0
 498 560 498 560 536 523.5 c 128,-1,1
EndSplineSet
EndChar

StartChar: dotlessi
Encoding: 305 305 283
Width: 288
GlyphClass: 2
Flags: W
AnchorPoint: "Anchor-10" 0 0 basechar 0
AnchorPoint: "Anchor-9" 164 550 basechar 0
AnchorPoint: "Anchor-8" 148 0 basechar 0
AnchorPoint: "Anchor-7" 87 0 basechar 0
LayerCount: 2
Fore
SplineSet
103 550 m 1,0,-1
 225 550 l 1,1,-1
 148 0 l 1,2,-1
 26 0 l 1,3,-1
 103 550 l 1,0,-1
EndSplineSet
EndChar

StartChar: uni0237
Encoding: 567 567 297
Width: 270
GlyphClass: 2
Flags: W
AnchorPoint: "Anchor-10" 0 0 basechar 0
AnchorPoint: "Anchor-9" 154 550 basechar 0
AnchorPoint: "Anchor-8" 0 0 basechar 0
AnchorPoint: "Anchor-7" -52 -205 basechar 0
LayerCount: 2
Fore
SplineSet
-112 -198.5 m 128,-1,1
 -139 -192 -139 -192 -148 -180 c 0,2,3
 -154 -173 -154 -173 -154 -163 c 0,4,5
 -154 -151 -154 -151 -145.5 -137 c 128,-1,6
 -137 -123 -137 -123 -130 -120 c 1,7,8
 -105 -134 -105 -134 -66 -134 c 0,9,10
 -36 -134 -36 -134 -17 -116 c 128,-1,11
 2 -98 2 -98 7 -62 c 2,12,-1
 93 550 l 1,13,-1
 215 550 l 1,14,-1
 130 -53 l 2,15,16
 120 -123 120 -123 72.5 -164 c 128,-1,17
 25 -205 25 -205 -52 -205 c 0,18,0
 -85 -205 -85 -205 -112 -198.5 c 128,-1,1
EndSplineSet
EndChar

StartChar: k
Encoding: 107 107 299
Width: 594
Flags: W
LayerCount: 2
Fore
SplineSet
390.5 269 m 128,-1,1
 406 255 406 255 416 232 c 2,2,-1
 525 0 l 1,3,4
 515 0 515 0 461 -3 c 0,5,6
 437 -5 437 -5 430 -5 c 0,7,8
 408 -5 408 -5 396.5 3 c 128,-1,9
 385 11 385 11 378 27 c 2,10,-1
 305 191 l 2,11,12
 295 217 295 217 273 228.5 c 128,-1,13
 251 240 251 240 208 237 c 2,14,-1
 175 235 l 1,15,-1
 142 0 l 1,16,-1
 21 0 l 1,17,-1
 132 791 l 1,18,-1
 253 791 l 1,19,-1
 187 324 l 1,20,-1
 215 325 l 2,21,22
 247 327 247 327 265.5 337.5 c 128,-1,23
 284 348 284 348 303 376 c 2,24,-1
 431 550 l 1,25,-1
 568 550 l 1,26,-1
 407 346 l 2,27,28
 391 324 391 324 379 311.5 c 128,-1,29
 367 299 367 299 348 290 c 1,30,0
 375 283 375 283 390.5 269 c 128,-1,1
EndSplineSet
EndChar

StartChar: kgreenlandic
Encoding: 312 312 301
Width: 608
Flags: W
LayerCount: 2
Fore
SplineSet
402 226 m 2,1,-1
 519 15 l 1,2,3
 461 -3 461 -3 431 -3 c 0,4,5
 410 -3 410 -3 398 4.5 c 128,-1,6
 386 12 386 12 377 28 c 2,7,-1
 291 184 l 2,8,9
 281 203 281 203 272 212.5 c 128,-1,10
 263 222 263 222 246.5 227 c 128,-1,11
 230 232 230 232 200 231 c 2,12,-1
 174 229 l 1,13,-1
 142 0 l 1,14,-1
 21 0 l 1,15,-1
 98 550 l 1,16,-1
 219 550 l 1,17,-1
 186 317 l 1,18,-1
 205 318 l 2,19,20
 235 320 235 320 250.5 330.5 c 128,-1,21
 266 341 266 341 289 370 c 2,22,-1
 431 550 l 1,23,-1
 568 550 l 1,24,-1
 386 331 l 2,25,26
 364 304 364 304 339 283 c 1,27,0
 380 267 380 267 402 226 c 2,1,-1
EndSplineSet
EndChar

StartChar: l
Encoding: 108 108 302
Width: 268
GlyphClass: 2
Flags: W
AnchorPoint: "Anchor-10" 268 550 basechar 0
AnchorPoint: "Anchor-9" 182 750 basechar 0
AnchorPoint: "Anchor-8" 0 0 basechar 0
AnchorPoint: "Anchor-7" 77 0 basechar 0
LayerCount: 2
Fore
SplineSet
127 791 m 1,0,-1
 249 791 l 1,1,-1
 138 0 l 1,2,-1
 16 0 l 1,3,-1
 127 791 l 1,0,-1
EndSplineSet
EndChar

StartChar: lslash
Encoding: 322 322 310
Width: 268
GlyphClass: 2
Flags: W
AnchorPoint: "Anchor-10" 268 550 basechar 0
AnchorPoint: "Anchor-9" 182 750 basechar 0
AnchorPoint: "Anchor-8" 0 0 basechar 0
AnchorPoint: "Anchor-7" 77 0 basechar 0
LayerCount: 2
Fore
SplineSet
270 418 m 1,0,-1
 192 384 l 1,1,-1
 138 0 l 1,2,-1
 16 0 l 1,3,-1
 62 327 l 1,4,-1
 -16 293 l 1,5,-1
 -2 390 l 1,6,-1
 75 424 l 1,7,-1
 127 791 l 1,8,-1
 249 791 l 1,9,-1
 205 480 l 1,10,-1
 283 514 l 1,11,-1
 270 418 l 1,0,-1
EndSplineSet
EndChar

StartChar: m
Encoding: 109 109 311
Width: 912
GlyphClass: 2
Flags: W
AnchorPoint: "Anchor-10" 0 0 basechar 0
AnchorPoint: "Anchor-9" 476 550 basechar 0
AnchorPoint: "Anchor-8" 0 0 basechar 0
AnchorPoint: "Anchor-7" 399 0 basechar 0
LayerCount: 2
Fore
SplineSet
795.5 522.5 m 128,-1,1
 834 485 834 485 834 419 c 0,2,3
 834 410 834 410 832 388 c 2,4,-1
 777 0 l 1,5,-1
 655 0 l 1,6,-1
 709 385 l 2,7,8
 711 409 711 409 711 416 c 0,9,10
 711 450 711 450 695.5 464.5 c 128,-1,11
 680 479 680 479 644 479 c 0,12,13
 578 479 578 479 519 419 c 1,14,-1
 517 404 l 1,15,-1
 461 0 l 1,16,-1
 339 0 l 1,17,-1
 395 395 l 2,18,19
 396 403 396 403 396 418 c 0,20,21
 396 449 396 449 381.5 464 c 128,-1,22
 367 479 367 479 336 479 c 0,23,24
 272 479 272 479 201 409 c 1,25,-1
 143 0 l 1,26,-1
 22 0 l 1,27,-1
 71 356 l 2,28,29
 86 458 86 458 86 505 c 0,30,31
 86 526 86 526 84 532 c 1,32,33
 103 542 103 542 128 548 c 128,-1,34
 153 554 153 554 172 554 c 0,35,36
 192 554 192 554 202 542 c 128,-1,37
 212 530 212 530 212 504 c 2,38,-1
 211 488 l 1,39,40
 254 526 254 526 295 543 c 128,-1,41
 336 560 336 560 385 560 c 0,42,43
 432 560 432 560 464 540.5 c 128,-1,44
 496 521 496 521 510 485 c 1,45,46
 584 560 584 560 689 560 c 0,47,0
 757 560 757 560 795.5 522.5 c 128,-1,1
EndSplineSet
EndChar

StartChar: n
Encoding: 110 110 313
Width: 610
GlyphClass: 2
Flags: W
AnchorPoint: "Anchor-10" 0 0 basechar 0
AnchorPoint: "Anchor-9" 325 550 basechar 0
AnchorPoint: "Anchor-8" 0 0 basechar 0
AnchorPoint: "Anchor-7" 248 0 basechar 0
LayerCount: 2
Fore
SplineSet
532 420 m 0,1,2
 532 406 532 406 528 372 c 2,3,-1
 495 135 l 2,4,5
 487 77 487 77 487 57 c 256,6,7
 487 37 487 37 494 14 c 1,8,9
 443 -5 443 -5 392 -5 c 0,10,11
 377 -5 377 -5 370.5 6 c 128,-1,12
 364 17 364 17 364 43 c 0,13,14
 364 62 364 62 369 102 c 2,15,-1
 406 366 l 2,16,17
 409 387 409 387 409 403 c 0,18,19
 409 440 409 440 392 456.5 c 128,-1,20
 375 473 375 473 338 473 c 0,21,22
 273 473 273 473 192 410 c 1,23,-1
 134 0 l 1,24,-1
 13 0 l 1,25,-1
 65 368 l 2,26,27
 78 468 78 468 78 508 c 0,28,29
 78 520 78 520 76 534 c 1,30,31
 139 554 139 554 177 554 c 0,32,33
 205 554 205 554 205 516 c 0,34,35
 205 504 205 504 204 496 c 2,36,-1
 202 484 l 1,37,38
 258 526 258 526 299 543 c 128,-1,39
 340 560 340 560 383 560 c 0,40,0
 532 560 532 560 532 420 c 0,1,2
EndSplineSet
EndChar

StartChar: eng
Encoding: 331 331 320
Width: 609
Flags: W
LayerCount: 2
Fore
SplineSet
532 420 m 0,1,2
 532 406 532 406 528 372 c 2,3,-1
 476 0 l 1,4,-1
 469 -46 l 2,5,6
 459 -119 459 -119 409.5 -162 c 128,-1,7
 360 -205 360 -205 280 -205 c 0,8,9
 240 -205 240 -205 209 -195 c 128,-1,10
 178 -185 178 -185 178 -162 c 0,11,12
 178 -149 178 -149 186.5 -136 c 128,-1,13
 195 -123 195 -123 202 -121 c 1,14,15
 230 -134 230 -134 268 -134 c 0,16,17
 300 -134 300 -134 320.5 -114 c 128,-1,18
 341 -94 341 -94 347 -55 c 2,19,-1
 355 0 l 1,20,-1
 406 366 l 2,21,22
 409 387 409 387 409 404 c 0,23,24
 409 440 409 440 392.5 456.5 c 128,-1,25
 376 473 376 473 338 473 c 0,26,27
 275 473 275 473 191 409 c 1,28,-1
 134 0 l 1,29,-1
 13 0 l 1,30,-1
 65 368 l 2,31,32
 77 457 77 457 77 501 c 0,33,34
 77 523 77 523 75 532 c 1,35,36
 137 552 137 552 176 552 c 0,37,38
 191 552 191 552 198 543.5 c 128,-1,39
 205 535 205 535 205 516 c 0,40,41
 205 510 205 510 203 494 c 2,42,-1
 202 484 l 1,43,44
 247 519 247 519 290.5 539.5 c 128,-1,45
 334 560 334 560 383 560 c 0,46,0
 532 560 532 560 532 420 c 0,1,2
EndSplineSet
EndChar

StartChar: o
Encoding: 111 111 323
Width: 561
GlyphClass: 2
Flags: W
AnchorPoint: "Anchor-10" 429 474 basechar 0
AnchorPoint: "Anchor-9" 301 550 basechar 0
AnchorPoint: "Anchor-8" 310 10 basechar 0
AnchorPoint: "Anchor-7" 224 0 basechar 0
LayerCount: 2
Fore
SplineSet
65.5 46.5 m 128,-1,1
 9 103 9 103 9 209 c 0,2,3
 9 316 9 316 44 395 c 128,-1,4
 79 474 79 474 143.5 517 c 128,-1,5
 208 560 208 560 295 560 c 0,6,7
 401 560 401 560 457.5 504.5 c 128,-1,8
 514 449 514 449 514 344 c 0,9,10
 514 237 514 237 479 157 c 128,-1,11
 444 77 444 77 379.5 33.5 c 128,-1,12
 315 -10 315 -10 228 -10 c 0,13,0
 122 -10 122 -10 65.5 46.5 c 128,-1,1
350 146 m 128,-1,15
 392 219 392 219 392 347 c 0,16,17
 392 477 392 477 291 477 c 0,18,19
 216 477 216 477 174 404.5 c 128,-1,20
 132 332 132 332 132 204 c 0,21,22
 132 137 132 137 157 105 c 128,-1,23
 182 73 182 73 234 73 c 0,24,14
 308 73 308 73 350 146 c 128,-1,15
EndSplineSet
Substitution2: "Single Substitution lookup 20 subtable" ordmasculine
Substitution2: "'aalt' Access All Alternates lookup 0 subtable" ordmasculine
EndChar

StartChar: ohorn
Encoding: 417 417 337
Width: 561
GlyphClass: 2
Flags: W
AnchorPoint: "Anchor-10" 429 474 basechar 0
AnchorPoint: "Anchor-9" 294 550 basechar 0
AnchorPoint: "Anchor-8" 310 10 basechar 0
AnchorPoint: "Anchor-7" 217 0 basechar 0
LayerCount: 2
Fore
SplineSet
596 642 m 128,-1,1
 614 624 614 624 614 593 c 0,2,3
 614 583 614 583 613 578 c 0,4,5
 598 476 598 476 495 448 c 1,6,7
 514 406 514 406 514 344 c 0,8,9
 514 237 514 237 479 157 c 128,-1,10
 444 77 444 77 379.5 33.5 c 128,-1,11
 315 -10 315 -10 228 -10 c 0,12,13
 122 -10 122 -10 65.5 46.5 c 128,-1,14
 9 103 9 103 9 209 c 0,15,16
 9 316 9 316 44 395 c 128,-1,17
 79 474 79 474 143.5 517 c 128,-1,18
 208 560 208 560 295 560 c 0,19,20
 402 560 402 560 458 504 c 1,21,22
 497 515 497 515 505 568 c 0,23,24
 509 599 509 599 483 620 c 1,25,26
 488 636 488 636 505.5 648 c 128,-1,27
 523 660 523 660 547 660 c 0,28,0
 578 660 578 660 596 642 c 128,-1,1
350 146 m 128,-1,30
 392 219 392 219 392 347 c 0,31,32
 392 477 392 477 291 477 c 0,33,34
 216 477 216 477 174 404.5 c 128,-1,35
 132 332 132 332 132 204 c 0,36,37
 132 137 132 137 157 105 c 128,-1,38
 182 73 182 73 234 73 c 0,39,29
 308 73 308 73 350 146 c 128,-1,30
EndSplineSet
EndChar

StartChar: oslash
Encoding: 248 248 345
Width: 561
GlyphClass: 2
Flags: W
AnchorPoint: "Anchor-10" 429 474 basechar 0
AnchorPoint: "Anchor-9" 301 550 basechar 0
AnchorPoint: "Anchor-8" 310 10 basechar 0
AnchorPoint: "Anchor-7" 224 0 basechar 0
LayerCount: 2
Fore
SplineSet
477 481 m 1,0,1
 514 429 514 429 514 344 c 0,2,3
 514 237 514 237 479 157 c 128,-1,4
 444 77 444 77 379.5 33.5 c 128,-1,5
 315 -10 315 -10 228 -10 c 0,6,7
 135 -10 135 -10 80 33 c 1,8,-1
 50 0 l 1,9,-1
 -27 0 l 1,10,-1
 41 77 l 1,11,12
 9 129 9 129 9 209 c 0,13,14
 9 316 9 316 44 395 c 128,-1,15
 79 474 79 474 143.5 517 c 128,-1,16
 208 560 208 560 295 560 c 0,17,18
 383 560 383 560 436 522 c 1,19,-1
 461 550 l 1,20,-1
 538 550 l 1,21,-1
 477 481 l 1,0,1
133 180 m 1,23,-1
 367 444 l 1,24,25
 342 477 342 477 291 477 c 0,26,27
 216 477 216 477 174 404.5 c 128,-1,28
 132 332 132 332 132 204 c 0,29,22
 132 188 132 188 133 180 c 1,23,-1
390 383 m 1,31,-1
 151 114 l 1,32,33
 174 73 174 73 234 73 c 0,34,35
 308 73 308 73 350 146 c 128,-1,36
 392 219 392 219 392 347 c 0,37,30
 392 361 392 361 390 383 c 1,31,-1
EndSplineSet
EndChar

StartChar: oe
Encoding: 339 339 348
Width: 937
GlyphClass: 2
Flags: W
AnchorPoint: "Anchor-10" 429 474 basechar 0
AnchorPoint: "Anchor-9" 676 550 basechar 0
AnchorPoint: "Anchor-8" 705 10 basechar 0
AnchorPoint: "Anchor-7" 603 0 basechar 0
LayerCount: 2
Fore
SplineSet
508 255 m 1,0,1
 507 245 507 245 507 225 c 0,2,3
 507 154 507 154 537.5 114.5 c 128,-1,4
 568 75 568 75 623 75 c 0,5,6
 669 75 669 75 700 91.5 c 128,-1,7
 731 108 731 108 762 149 c 0,8,9
 771 161 771 161 784 161 c 0,10,11
 814 161 814 161 857 124 c 1,12,13
 786 -10 786 -10 613 -10 c 0,14,15
 553 -10 553 -10 505.5 12 c 128,-1,16
 458 34 458 34 428 75 c 1,17,18
 390 34 390 34 339.5 12 c 128,-1,19
 289 -10 289 -10 228 -10 c 0,20,21
 122 -10 122 -10 65.5 46.5 c 128,-1,22
 9 103 9 103 9 209 c 0,23,24
 9 316 9 316 44 395 c 128,-1,25
 79 474 79 474 143.5 517 c 128,-1,26
 208 560 208 560 295 560 c 0,27,28
 420 560 420 560 475 484 c 1,29,30
 553 560 553 560 678 560 c 0,31,32
 785 560 785 560 836.5 509 c 128,-1,33
 888 458 888 458 888 352 c 0,34,35
 888 313 888 313 879 255 c 1,36,-1
 508 255 l 1,0,1
574 440 m 128,-1,38
 534 401 534 401 518 329 c 1,39,-1
 769 329 l 1,40,41
 772 350 772 350 772 372 c 0,42,43
 772 479 772 479 673 479 c 0,44,37
 614 479 614 479 574 440 c 128,-1,38
330 117.5 m 128,-1,46
 369 162 369 162 383 244 c 1,47,48
 384 278 384 278 391 316 c 0,49,50
 392 326 392 326 392 347 c 0,51,52
 392 477 392 477 291 477 c 0,53,54
 216 477 216 477 174 404.5 c 128,-1,55
 132 332 132 332 132 204 c 0,56,57
 132 137 132 137 157 105 c 128,-1,58
 182 73 182 73 234 73 c 0,59,45
 291 73 291 73 330 117.5 c 128,-1,46
EndSplineSet
EndChar

StartChar: p
Encoding: 112 112 349
Width: 598
Flags: W
LayerCount: 2
Fore
SplineSet
502 501 m 128,-1,1
 552 442 552 442 552 335 c 0,2,3
 552 230 552 230 516.5 152 c 128,-1,4
 481 74 481 74 416 32 c 128,-1,5
 351 -10 351 -10 263 -10 c 0,6,7
 195 -10 195 -10 138 10 c 1,8,-1
 105 -225 l 1,9,-1
 -16 -225 l 1,10,-1
 65 352 l 2,11,12
 76 435 76 435 76 471 c 0,13,14
 76 504 76 504 64 526 c 1,15,16
 89 539 89 539 115.5 546.5 c 128,-1,17
 142 554 142 554 164 554 c 0,18,19
 200 554 200 554 203 499 c 1,20,21
 269 560 269 560 361 560 c 0,22,0
 452 560 452 560 502 501 c 128,-1,1
345.5 105 m 128,-1,24
 386 137 386 137 408 195.5 c 128,-1,25
 430 254 430 254 430 333 c 0,26,27
 430 403 430 403 403 441 c 128,-1,28
 376 479 376 479 326 479 c 0,29,30
 292 479 292 479 258 462.5 c 128,-1,31
 224 446 224 446 195 414 c 1,32,-1
 150 95 l 1,33,34
 194 73 194 73 250 73 c 0,35,23
 305 73 305 73 345.5 105 c 128,-1,24
EndSplineSet
EndChar

StartChar: thorn
Encoding: 254 254 350
Width: 609
Flags: W
LayerCount: 2
Fore
SplineSet
502 510 m 128,-1,1
 553 460 553 460 553 352 c 0,2,3
 553 323 553 323 548 276 c 0,4,5
 527 133 527 133 447.5 60.5 c 128,-1,6
 368 -12 368 -12 254 -12 c 0,7,8
 195 -12 195 -12 139 12 c 1,9,-1
 106 -225 l 1,10,-1
 -16 -225 l 1,11,-1
 125 784 l 1,12,-1
 247 784 l 1,13,-1
 208 503 l 1,14,15
 272 560 272 560 361 560 c 0,16,0
 451 560 451 560 502 510 c 128,-1,1
430 352 m 0,18,19
 430 419 430 419 405 449 c 128,-1,20
 380 479 380 479 332 479 c 0,21,22
 295 479 295 479 259 461.5 c 128,-1,23
 223 444 223 444 196 416 c 1,24,-1
 151 96 l 1,25,26
 199 71 199 71 249 71 c 0,27,28
 319 71 319 71 363.5 119 c 128,-1,29
 408 167 408 167 424 276 c 0,30,17
 430 334 430 334 430 352 c 0,18,19
EndSplineSet
EndChar

StartChar: q
Encoding: 113 113 351
Width: 608
Flags: W
LayerCount: 2
Fore
SplineSet
572 526 m 1,1,2
 554 504 554 504 541.5 462 c 128,-1,3
 529 420 529 420 518 347 c 2,4,-1
 438 -225 l 1,5,-1
 317 -225 l 1,6,-1
 353 31 l 1,7,8
 294 -10 294 -10 217 -10 c 0,9,10
 122 -10 122 -10 66 52 c 128,-1,11
 10 114 10 114 10 220 c 0,12,13
 10 322 10 322 43.5 399 c 128,-1,14
 77 476 77 476 138 518 c 128,-1,15
 199 560 199 560 280 560 c 0,16,17
 383 560 383 560 427 502 c 1,18,19
 446 554 446 554 480 554 c 0,20,0
 530 554 530 554 572 526 c 1,1,2
406 411 m 1,21,-1
 407 420 l 1,22,23
 389 449 389 449 360.5 464.5 c 128,-1,24
 332 480 332 480 295 480 c 0,25,26
 247 480 247 480 210 447 c 128,-1,27
 173 414 173 414 153 354.5 c 128,-1,28
 133 295 133 295 133 216 c 0,29,30
 133 148 133 148 161 109.5 c 128,-1,31
 189 71 189 71 239 71 c 0,32,33
 311 71 311 71 366 126 c 1,34,-1
 406 411 l 1,21,-1
EndSplineSet
EndChar

StartChar: r
Encoding: 114 114 352
Width: 427
GlyphClass: 2
Flags: W
AnchorPoint: "Anchor-10" 0 0 basechar 0
AnchorPoint: "Anchor-9" 233 550 basechar 0
AnchorPoint: "Anchor-8" 0 0 basechar 0
AnchorPoint: "Anchor-7" 75 0 basechar 0
LayerCount: 2
Fore
SplineSet
423 500 m 0,1,2
 423 490 423 490 422 484 c 0,3,4
 421 471 421 471 414.5 457.5 c 128,-1,5
 408 444 408 444 400 435 c 1,6,7
 390 442 390 442 374.5 445 c 128,-1,8
 359 448 359 448 333 448 c 0,9,10
 268 448 268 448 227 403.5 c 128,-1,11
 186 359 186 359 175 276 c 2,12,-1
 136 0 l 1,13,-1
 15 0 l 1,14,-1
 92 550 l 1,15,-1
 213 550 l 1,16,-1
 202 468 l 1,17,18
 229 510 229 510 267 533.5 c 128,-1,19
 305 557 305 557 347 557 c 0,20,0
 423 557 423 557 423 500 c 0,1,2
EndSplineSet
EndChar

StartChar: s
Encoding: 115 115 359
Width: 498
GlyphClass: 2
Flags: W
AnchorPoint: "Anchor-10" 0 0 basechar 0
AnchorPoint: "Anchor-9" 263 550 basechar 0
AnchorPoint: "Anchor-8" 0 0 basechar 0
AnchorPoint: "Anchor-7" 186 0 basechar 0
LayerCount: 2
Fore
SplineSet
86 3 m 128,-1,1
 41 16 41 16 16 38.5 c 128,-1,2
 -9 61 -9 61 -9 89 c 0,3,4
 -9 116 -9 116 9.5 134.5 c 128,-1,5
 28 153 28 153 61 156 c 1,6,7
 96 73 96 73 202 73 c 0,8,9
 255 73 255 73 285 94.5 c 128,-1,10
 315 116 315 116 315 152 c 0,11,12
 315 173 315 173 301 187.5 c 128,-1,13
 287 202 287 202 266.5 211.5 c 128,-1,14
 246 221 246 221 206 235 c 0,15,16
 155 253 155 253 122.5 269 c 128,-1,17
 90 285 90 285 67 314.5 c 128,-1,18
 44 344 44 344 44 390 c 0,19,20
 44 444 44 444 75 482.5 c 128,-1,21
 106 521 106 521 157 540.5 c 128,-1,22
 208 560 208 560 267 560 c 0,23,24
 339 560 339 560 389.5 533 c 128,-1,25
 440 506 440 506 464 459 c 1,26,27
 448 438 448 438 427.5 423.5 c 128,-1,28
 407 409 407 409 392 409 c 0,29,30
 383 409 383 409 377 412.5 c 128,-1,31
 371 416 371 416 365 424 c 0,32,33
 327 479 327 479 261 479 c 0,34,35
 216 479 216 479 188.5 461 c 128,-1,36
 161 443 161 443 161 411 c 0,37,38
 161 387 161 387 176 371 c 128,-1,39
 191 355 191 355 213 344.5 c 128,-1,40
 235 334 235 334 276 319 c 0,41,42
 327 300 327 300 357.5 284.5 c 128,-1,43
 388 269 388 269 410 241 c 128,-1,44
 432 213 432 213 432 169 c 0,45,46
 432 84 432 84 368 37 c 128,-1,47
 304 -10 304 -10 189 -10 c 0,48,0
 131 -10 131 -10 86 3 c 128,-1,1
EndSplineSet
EndChar

StartChar: scedilla
Encoding: 351 351 362
Width: 498
GlyphClass: 2
Flags: W
AnchorPoint: "Anchor-10" 0 0 basechar 0
AnchorPoint: "Anchor-9" 0 0 basechar 0
AnchorPoint: "Anchor-8" 0 0 basechar 0
AnchorPoint: "Anchor-7" 156 -214 basechar 0
LayerCount: 2
Fore
SplineSet
188.5 461 m 128,-1,1
 161 443 161 443 161 411 c 0,2,3
 161 387 161 387 176 371 c 128,-1,4
 191 355 191 355 213 344.5 c 128,-1,5
 235 334 235 334 276 319 c 0,6,7
 327 300 327 300 357.5 284.5 c 128,-1,8
 388 269 388 269 410 241 c 128,-1,9
 432 213 432 213 432 169 c 0,10,11
 432 91 432 91 377.5 44.5 c 128,-1,12
 323 -2 323 -2 223 -9 c 1,13,-1
 178 -52 l 1,14,-1
 188 -52 l 2,15,16
 227 -52 227 -52 252 -71.5 c 128,-1,17
 277 -91 277 -91 277 -124 c 0,18,19
 277 -178 277 -178 235 -207 c 128,-1,20
 193 -236 193 -236 127 -236 c 0,21,22
 79 -236 79 -236 56 -224 c 128,-1,23
 33 -212 33 -212 33 -192 c 0,24,25
 33 -182 33 -182 40 -166 c 1,26,27
 52 -171 52 -171 75 -174 c 128,-1,28
 98 -177 98 -177 123 -177 c 0,29,30
 153 -177 153 -177 169 -165.5 c 128,-1,31
 185 -154 185 -154 185 -134 c 0,32,33
 185 -108 185 -108 151 -108 c 0,34,35
 134 -108 134 -108 118 -114 c 1,36,-1
 93 -75 l 1,37,-1
 147 -8 l 1,38,39
 76 -1 76 -1 33.5 25.5 c 128,-1,40
 -9 52 -9 52 -9 89 c 0,41,42
 -9 116 -9 116 9.5 134.5 c 128,-1,43
 28 153 28 153 61 156 c 1,44,45
 96 73 96 73 202 73 c 0,46,47
 255 73 255 73 285 94.5 c 128,-1,48
 315 116 315 116 315 152 c 0,49,50
 315 173 315 173 301 187.5 c 128,-1,51
 287 202 287 202 266.5 211.5 c 128,-1,52
 246 221 246 221 206 235 c 0,53,54
 155 253 155 253 122.5 269 c 128,-1,55
 90 285 90 285 67 314.5 c 128,-1,56
 44 344 44 344 44 390 c 0,57,58
 44 444 44 444 75 482.5 c 128,-1,59
 106 521 106 521 157 540.5 c 128,-1,60
 208 560 208 560 267 560 c 0,61,62
 339 560 339 560 389.5 533 c 128,-1,63
 440 506 440 506 464 459 c 1,64,65
 448 438 448 438 427.5 423.5 c 128,-1,66
 407 409 407 409 392 409 c 0,67,68
 383 409 383 409 377 412.5 c 128,-1,69
 371 416 371 416 365 424 c 0,70,71
 327 479 327 479 261 479 c 0,72,0
 216 479 216 479 188.5 461 c 128,-1,1
EndSplineSet
Substitution2: "'locl' Localized Forms in Latin lookup 7 subtable" uni0219
Substitution2: "'locl' Localized Forms in Latin lookup 6 subtable" uni0219
Substitution2: "'aalt' Access All Alternates lookup 0 subtable" uni0219
EndChar

StartChar: germandbls
Encoding: 223 223 367
Width: 630
Flags: W
LayerCount: 2
Fore
SplineSet
519.5 307 m 128,-1,1
 546 269 546 269 546 216 c 0,2,3
 546 110 546 110 484.5 48 c 128,-1,4
 423 -14 423 -14 313 -14 c 0,5,6
 248 -14 248 -14 206.5 4 c 128,-1,7
 165 22 165 22 165 59 c 0,8,9
 165 78 165 78 174.5 92 c 128,-1,10
 184 106 184 106 198 110 c 1,11,12
 239 69 239 69 305 69 c 0,13,14
 370 69 370 69 405 107 c 128,-1,15
 440 145 440 145 440 212 c 0,16,17
 440 265 440 265 414.5 289.5 c 128,-1,18
 389 314 389 314 334 314 c 0,19,20
 324 314 324 314 306 312 c 2,21,-1
 281 311 l 2,22,23
 269 311 269 311 259.5 333 c 128,-1,24
 250 355 250 355 250 374 c 0,25,26
 250 395 250 395 259 395 c 2,27,-1
 323 395 l 2,28,29
 386 395 386 395 424 434.5 c 128,-1,30
 462 474 462 474 462 540 c 0,31,32
 462 591 462 591 432 620.5 c 128,-1,33
 402 650 402 650 345 650 c 0,34,35
 279 650 279 650 241 613.5 c 128,-1,36
 203 577 203 577 193 509 c 2,37,-1
 122 0 l 1,38,-1
 14 0 l 1,39,-1
 85 509 l 2,40,41
 100 614 100 614 172 672.5 c 128,-1,42
 244 731 244 731 351 731 c 0,43,44
 416 731 416 731 465.5 708 c 128,-1,45
 515 685 515 685 542 643.5 c 128,-1,46
 569 602 569 602 569 548 c 0,47,48
 569 481 569 481 536.5 431 c 128,-1,49
 504 381 504 381 446 359 c 1,50,0
 493 345 493 345 519.5 307 c 128,-1,1
EndSplineSet
EndChar

StartChar: t
Encoding: 116 116 368
Width: 395
GlyphClass: 2
Flags: W
AnchorPoint: "Anchor-10" 372 630 basechar 0
AnchorPoint: "Anchor-9" 198 660 basechar 0
AnchorPoint: "Anchor-8" 0 0 basechar 0
AnchorPoint: "Anchor-7" 192 0 basechar 0
LayerCount: 2
Fore
SplineSet
186 141 m 2,0,1
 184 125 184 125 184 120 c 0,2,3
 184 94 184 94 196.5 82 c 128,-1,4
 209 70 209 70 235 70 c 0,5,6
 273 70 273 70 317 87 c 1,7,8
 332 80 332 80 332 57 c 0,9,10
 332 33 332 33 314 19 c 0,11,12
 297 6 297 6 264.5 -2 c 128,-1,13
 232 -10 232 -10 193 -10 c 0,14,15
 132 -10 132 -10 96.5 21 c 128,-1,16
 61 52 61 52 61 105 c 0,17,18
 61 112 61 112 63 128 c 2,19,-1
 111 469 l 1,20,-1
 21 469 l 1,21,-1
 32 550 l 1,22,-1
 123 550 l 1,23,-1
 144 700 l 1,24,-1
 265 700 l 1,25,-1
 244 550 l 1,26,-1
 361 550 l 1,27,-1
 350 469 l 1,28,-1
 232 469 l 1,29,-1
 186 141 l 2,0,1
EndSplineSet
EndChar

StartChar: tbar
Encoding: 359 359 369
Width: 397
GlyphClass: 2
Flags: W
AnchorPoint: "Anchor-10" 372 630 basechar 0
AnchorPoint: "Anchor-9" 198 660 basechar 0
AnchorPoint: "Anchor-8" 0 0 basechar 0
AnchorPoint: "Anchor-7" 192 0 basechar 0
LayerCount: 2
Fore
SplineSet
232 469 m 1,0,-1
 216 353 l 1,1,-1
 327 353 l 1,2,-1
 316 273 l 1,3,-1
 205 273 l 1,4,-1
 186 141 l 2,5,6
 184 125 184 125 184 120 c 0,7,8
 184 94 184 94 196.5 82 c 128,-1,9
 209 70 209 70 235 70 c 0,10,11
 273 70 273 70 317 87 c 1,12,13
 332 80 332 80 332 57 c 0,14,15
 332 33 332 33 314 19 c 0,16,17
 297 6 297 6 264.5 -2 c 128,-1,18
 232 -10 232 -10 193 -10 c 0,19,20
 132 -10 132 -10 96.5 21 c 128,-1,21
 61 52 61 52 61 105 c 0,22,23
 61 112 61 112 63 128 c 2,24,-1
 84 273 l 1,25,-1
 -7 273 l 1,26,-1
 4 353 l 1,27,-1
 95 353 l 1,28,-1
 111 469 l 1,29,-1
 21 469 l 1,30,-1
 32 550 l 1,31,-1
 123 550 l 1,32,-1
 144 700 l 1,33,-1
 265 700 l 1,34,-1
 244 550 l 1,35,-1
 361 550 l 1,36,-1
 350 469 l 1,37,-1
 232 469 l 1,0,-1
EndSplineSet
EndChar

StartChar: uni0163
Encoding: 355 355 371
Width: 395
GlyphClass: 2
Flags: W
AnchorPoint: "Anchor-10" 372 630 basechar 0
AnchorPoint: "Anchor-9" 0 0 basechar 0
AnchorPoint: "Anchor-8" 0 0 basechar 0
AnchorPoint: "Anchor-7" 162 -214 basechar 0
LayerCount: 2
Fore
SplineSet
186 141 m 2,0,1
 184 125 184 125 184 120 c 0,2,3
 184 94 184 94 196.5 82 c 128,-1,4
 209 70 209 70 235 70 c 0,5,6
 273 70 273 70 317 87 c 1,7,8
 332 80 332 80 332 57 c 0,9,10
 332 33 332 33 314 19 c 0,11,12
 289 -1 289 -1 230 -8 c 1,13,-1
 184 -52 l 1,14,-1
 194 -52 l 2,15,16
 233 -52 233 -52 258 -71.5 c 128,-1,17
 283 -91 283 -91 283 -124 c 0,18,19
 283 -178 283 -178 241 -207 c 128,-1,20
 199 -236 199 -236 133 -236 c 0,21,22
 85 -236 85 -236 62 -224 c 128,-1,23
 39 -212 39 -212 39 -192 c 0,24,25
 39 -182 39 -182 46 -166 c 1,26,27
 58 -171 58 -171 81 -174 c 128,-1,28
 104 -177 104 -177 129 -177 c 0,29,30
 159 -177 159 -177 175 -165.5 c 128,-1,31
 191 -154 191 -154 191 -134 c 0,32,33
 191 -108 191 -108 157 -108 c 0,34,35
 140 -108 140 -108 124 -114 c 1,36,-1
 99 -75 l 1,37,-1
 155 -6 l 1,38,39
 110 3 110 3 85.5 32 c 128,-1,40
 61 61 61 61 61 105 c 0,41,42
 61 112 61 112 63 128 c 2,43,-1
 111 469 l 1,44,-1
 21 469 l 1,45,-1
 32 550 l 1,46,-1
 123 550 l 1,47,-1
 144 700 l 1,48,-1
 265 700 l 1,49,-1
 244 550 l 1,50,-1
 361 550 l 1,51,-1
 350 469 l 1,52,-1
 232 469 l 1,53,-1
 186 141 l 2,0,1
EndSplineSet
Substitution2: "'locl' Localized Forms in Latin lookup 7 subtable" uni021B
Substitution2: "'locl' Localized Forms in Latin lookup 6 subtable" uni021B
Substitution2: "'aalt' Access All Alternates lookup 0 subtable" uni021B
EndChar

StartChar: u
Encoding: 117 117 376
Width: 623
GlyphClass: 2
Flags: W
AnchorPoint: "Anchor-10" 543 523 basechar 0
AnchorPoint: "Anchor-9" 331 550 basechar 0
AnchorPoint: "Anchor-8" 503 14 basechar 0
AnchorPoint: "Anchor-7" 248 0 basechar 0
LayerCount: 2
Fore
SplineSet
504 126 m 2,0,1
 498 81 498 81 498 55 c 0,2,3
 498 34 498 34 503 14 c 1,4,5
 465 -5 465 -5 419 -5 c 0,6,7
 393 -5 393 -5 383 9 c 128,-1,8
 373 23 373 23 374 61 c 1,9,10
 342 27 342 27 296.5 8.5 c 128,-1,11
 251 -10 251 -10 200 -10 c 0,12,13
 122 -10 122 -10 81.5 27.5 c 128,-1,14
 41 65 41 65 41 136 c 0,15,16
 41 156 41 156 44 177 c 2,17,-1
 97 550 l 1,18,-1
 218 550 l 1,19,-1
 166 182 l 2,20,21
 163 164 163 164 163 148 c 0,22,23
 163 108 163 108 182 89.5 c 128,-1,24
 201 71 201 71 240 71 c 0,25,26
 322 71 322 71 386 152 c 1,27,-1
 441 550 l 1,28,-1
 564 550 l 1,29,-1
 504 126 l 2,0,1
EndSplineSet
EndChar

StartChar: uhorn
Encoding: 432 432 389
Width: 623
GlyphClass: 2
Flags: W
AnchorPoint: "Anchor-10" 543 523 basechar 0
AnchorPoint: "Anchor-9" 331 550 basechar 0
AnchorPoint: "Anchor-8" 503 14 basechar 0
AnchorPoint: "Anchor-7" 248 0 basechar 0
LayerCount: 2
Fore
SplineSet
710 691 m 128,-1,1
 728 673 728 673 728 642 c 0,2,3
 728 632 728 632 727 627 c 0,4,5
 710 500 710 500 555 488 c 1,6,-1
 504 126 l 2,7,8
 498 81 498 81 498 55 c 0,9,10
 498 34 498 34 503 14 c 1,11,12
 465 -5 465 -5 419 -5 c 0,13,14
 393 -5 393 -5 383 9 c 128,-1,15
 373 23 373 23 374 61 c 1,16,17
 342 27 342 27 296.5 8.5 c 128,-1,18
 251 -10 251 -10 200 -10 c 0,19,20
 122 -10 122 -10 81.5 27.5 c 128,-1,21
 41 65 41 65 41 136 c 0,22,23
 41 156 41 156 44 177 c 2,24,-1
 97 550 l 1,25,-1
 218 550 l 1,26,-1
 166 182 l 2,27,28
 163 164 163 164 163 148 c 0,29,30
 163 108 163 108 182 89.5 c 128,-1,31
 201 71 201 71 240 71 c 0,32,33
 322 71 322 71 386 152 c 1,34,-1
 441 550 l 1,35,-1
 547 550 l 2,36,37
 609 550 609 550 619 617 c 0,38,39
 623 648 623 648 597 669 c 1,40,41
 602 685 602 685 619.5 697 c 128,-1,42
 637 709 637 709 661 709 c 0,43,0
 692 709 692 709 710 691 c 128,-1,1
EndSplineSet
EndChar

StartChar: uogonek
Encoding: 371 371 397
Width: 623
GlyphClass: 2
Flags: W
AnchorPoint: "Anchor-10" 543 523 basechar 0
AnchorPoint: "Anchor-9" 331 550 basechar 0
AnchorPoint: "Anchor-8" 503 14 basechar 0
AnchorPoint: "Anchor-7" 248 0 basechar 0
LayerCount: 2
Fore
SplineSet
508 -122 m 1,1,2
 520 -134 520 -134 520 -148 c 0,3,4
 519 -170 519 -170 497 -183 c 128,-1,5
 475 -196 475 -196 436 -196 c 0,6,7
 388 -196 388 -196 362.5 -178 c 128,-1,8
 337 -160 337 -160 337 -126 c 0,9,10
 337 -55 337 -55 416 -5 c 1,11,12
 392 -4 392 -4 382.5 10.5 c 128,-1,13
 373 25 373 25 374 61 c 1,14,15
 342 27 342 27 296.5 8.5 c 128,-1,16
 251 -10 251 -10 200 -10 c 0,17,18
 122 -10 122 -10 81.5 27.5 c 128,-1,19
 41 65 41 65 41 136 c 0,20,21
 41 156 41 156 44 177 c 2,22,-1
 97 550 l 1,23,-1
 218 550 l 1,24,-1
 166 182 l 2,25,26
 163 164 163 164 163 148 c 0,27,28
 163 108 163 108 182 89.5 c 128,-1,29
 201 71 201 71 240 71 c 0,30,31
 322 71 322 71 386 152 c 1,32,-1
 441 550 l 1,33,-1
 564 550 l 1,34,-1
 504 126 l 2,35,36
 498 81 498 81 498 55 c 0,37,38
 498 34 498 34 503 14 c 1,39,40
 473 -12 473 -12 454.5 -40 c 128,-1,41
 436 -68 436 -68 436 -93 c 0,42,43
 436 -113 436 -113 443 -122.5 c 128,-1,44
 450 -132 450 -132 467 -132 c 0,45,0
 490 -132 490 -132 508 -122 c 1,1,2
EndSplineSet
EndChar

StartChar: v
Encoding: 118 118 400
Width: 548
Flags: W
LayerCount: 2
Fore
SplineSet
548 550 m 1,0,1
 513 386 513 386 446.5 252 c 128,-1,2
 380 118 380 118 277 0 c 1,3,-1
 162 0 l 1,4,5
 99 105 99 105 68.5 221.5 c 128,-1,6
 38 338 38 338 38 473 c 0,7,8
 38 524 38 524 40 550 c 1,9,-1
 165 550 l 1,10,11
 160 492 160 492 160 450 c 0,12,13
 160 355 160 355 178.5 272.5 c 128,-1,14
 197 190 197 190 236 112 c 1,15,16
 308 210 308 210 353 315.5 c 128,-1,17
 398 421 398 421 421 550 c 1,18,-1
 548 550 l 1,0,1
EndSplineSet
EndChar

StartChar: w
Encoding: 119 119 401
Width: 787
GlyphClass: 2
Flags: W
AnchorPoint: "Anchor-10" 0 0 basechar 0
AnchorPoint: "Anchor-9" 419 550 basechar 0
AnchorPoint: "Anchor-8" 0 0 basechar 0
AnchorPoint: "Anchor-7" 336 0 basechar 0
LayerCount: 2
Fore
SplineSet
781 550 m 1,0,1
 747 391 747 391 691 255.5 c 128,-1,2
 635 120 635 120 555 0 c 1,3,-1
 464 0 l 1,4,5
 431 83 431 83 412 162.5 c 128,-1,6
 393 242 393 242 387 328 c 1,7,8
 326 160 326 160 216 0 c 1,9,-1
 124 0 l 1,10,11
 82 101 82 101 62 213 c 128,-1,12
 42 325 42 325 42 460 c 0,13,14
 42 488 42 488 44 550 c 1,15,-1
 164 550 l 1,16,17
 161 475 161 475 161 415 c 0,18,19
 161 326 161 326 169 260.5 c 128,-1,20
 177 195 177 195 195 138 c 1,21,22
 305 317 305 317 364 550 c 1,23,-1
 470 550 l 1,24,25
 469 533 469 533 469 499 c 0,26,27
 469 294 469 294 523 135 c 1,28,29
 569 216 569 216 601 314 c 128,-1,30
 633 412 633 412 658 550 c 1,31,-1
 781 550 l 1,0,1
EndSplineSet
EndChar

StartChar: x
Encoding: 120 120 406
Width: 508
Flags: W
LayerCount: 2
Fore
SplineSet
467 457.5 m 128,-1,1
 438 413 438 413 400.5 376 c 128,-1,2
 363 339 363 339 304 287 c 1,3,4
 367 216 367 216 401.5 154.5 c 128,-1,5
 436 93 436 93 436 19 c 2,6,-1
 435 0 l 1,7,-1
 318 0 l 1,8,9
 321 59 321 59 297 111.5 c 128,-1,10
 273 164 273 164 228 220 c 1,11,12
 167 165 167 165 128 112 c 128,-1,13
 89 59 89 59 76 0 c 1,14,-1
 -41 0 l 1,15,16
 -24 80 -24 80 29 145.5 c 128,-1,17
 82 211 82 211 170 288 c 1,18,19
 126 338 126 338 99 375.5 c 128,-1,20
 72 413 72 413 55 457.5 c 128,-1,21
 38 502 38 502 41 550 c 1,22,-1
 158 550 l 1,23,24
 154 500 154 500 177 454 c 128,-1,25
 200 408 200 408 246 353 c 1,26,27
 308 409 308 409 344 454.5 c 128,-1,28
 380 500 380 500 390 550 c 1,29,-1
 507 550 l 1,30,0
 496 502 496 502 467 457.5 c 128,-1,1
EndSplineSet
EndChar

StartChar: y
Encoding: 121 121 407
Width: 518
GlyphClass: 2
Flags: W
AnchorPoint: "Anchor-10" 0 0 basechar 0
AnchorPoint: "Anchor-9" 280 550 basechar 0
AnchorPoint: "Anchor-8" 0 0 basechar 0
AnchorPoint: "Anchor-7" 341 0 basechar 0
LayerCount: 2
Fore
SplineSet
537 550 m 1,0,-1
 241 -42 l 2,1,2
 195 -133 195 -133 146 -170 c 128,-1,3
 97 -207 97 -207 23 -207 c 0,4,5
 -21 -207 -21 -207 -46 -190.5 c 128,-1,6
 -71 -174 -71 -174 -71 -145 c 0,7,8
 -71 -113 -71 -113 -43 -93 c 1,9,10
 -20 -110 -20 -110 19 -110 c 256,11,12
 58 -110 58 -110 86.5 -83 c 128,-1,13
 115 -56 115 -56 144 9 c 1,14,-1
 24 550 l 1,15,-1
 147 550 l 1,16,-1
 224 157 l 1,17,-1
 410 550 l 1,18,-1
 537 550 l 1,0,-1
EndSplineSet
EndChar

StartChar: z
Encoding: 122 122 416
Width: 513
GlyphClass: 2
Flags: W
AnchorPoint: "Anchor-10" 0 0 basechar 0
AnchorPoint: "Anchor-9" 277 550 basechar 0
AnchorPoint: "Anchor-8" 0 0 basechar 0
AnchorPoint: "Anchor-7" 200 0 basechar 0
LayerCount: 2
Fore
SplineSet
485 476 m 1,0,-1
 133 85 l 1,1,-1
 438 85 l 1,2,-1
 426 0 l 1,3,-1
 -27 0 l 1,4,-1
 -17 75 l 1,5,-1
 335 465 l 1,6,-1
 64 465 l 1,7,-1
 76 550 l 1,8,-1
 495 550 l 1,9,-1
 485 476 l 1,0,-1
EndSplineSet
EndChar

StartChar: ordfeminine
Encoding: 170 170 423
Width: 380
Flags: W
LayerCount: 2
Fore
SplineSet
361 505 m 0,1,2
 349 433 349 433 349 408 c 0,3,4
 349 386 349 386 355 377 c 1,5,6
 330 360 330 360 291 360 c 256,7,8
 252 360 252 360 252 402 c 2,9,-1
 252 404 l 1,10,11
 214 359 214 359 143 359 c 0,12,13
 97 359 97 359 67.5 382.5 c 128,-1,14
 38 406 38 406 38 449 c 0,15,16
 38 500 38 500 69 527 c 128,-1,17
 100 554 100 554 150 563 c 128,-1,18
 200 572 200 572 275 573 c 1,19,20
 277 593 277 593 277 599 c 0,21,22
 277 647 277 647 224 647 c 0,23,24
 201 647 201 647 183 640.5 c 128,-1,25
 165 634 165 634 146 624 c 0,26,27
 134 617 134 617 125.5 613.5 c 128,-1,28
 117 610 117 610 109 610 c 0,29,30
 96 610 96 610 86.5 625.5 c 128,-1,31
 77 641 77 641 75 664 c 1,32,33
 148 712 148 712 245 712 c 0,34,35
 304 712 304 712 338.5 686.5 c 128,-1,36
 373 661 373 661 373 610 c 0,37,0
 373 579 373 579 361 505 c 0,1,2
220 434.5 m 128,-1,39
 242 446 242 446 259 466 c 1,40,-1
 268 518 l 1,41,42
 201 516 201 516 168 502 c 128,-1,43
 135 488 135 488 135 459 c 0,44,45
 135 443 135 443 145 433 c 128,-1,46
 155 423 155 423 174 423 c 0,47,38
 198 423 198 423 220 434.5 c 128,-1,39
EndSplineSet
EndChar

StartChar: ordmasculine
Encoding: 186 186 424
Width: 380
Flags: W
LayerCount: 2
Fore
SplineSet
75 394.5 m 128,-1,1
 38 432 38 432 38 497 c 0,2,3
 38 558 38 558 61.5 606.5 c 128,-1,4
 85 655 85 655 129 682.5 c 128,-1,5
 173 710 173 710 233 710 c 0,6,7
 304 710 304 710 341 671.5 c 128,-1,8
 378 633 378 633 378 568 c 0,9,10
 378 508 378 508 354 460 c 128,-1,11
 330 412 330 412 286 384.5 c 128,-1,12
 242 357 242 357 184 357 c 0,13,0
 112 357 112 357 75 394.5 c 128,-1,1
261.5 466 m 128,-1,15
 282 510 282 510 282 575 c 0,16,17
 282 612 282 612 268 628.5 c 128,-1,18
 254 645 254 645 224 645 c 0,19,20
 176 645 176 645 154.5 600 c 128,-1,21
 133 555 133 555 133 492 c 0,22,23
 133 455 133 455 147.5 438.5 c 128,-1,24
 162 422 162 422 193 422 c 0,25,14
 241 422 241 422 261.5 466 c 128,-1,15
EndSplineSet
EndChar

StartChar: uni207F
Encoding: 8319 8319 425
Width: 380
Flags: W
LayerCount: 2
Fore
SplineSet
353 440 m 2,0,1
 349 416 349 416 349 401 c 0,2,3
 349 388 349 388 351 381 c 128,-1,4
 353 374 353 374 354 372 c 1,5,6
 321 360 321 360 281 360 c 0,7,8
 266 360 266 360 259.5 368 c 128,-1,9
 253 376 253 376 253 394 c 0,10,11
 253 410 253 410 255 421 c 2,12,-1
 280 595 l 2,13,14
 281 599 281 599 281 607 c 0,15,16
 281 624 281 624 272.5 631.5 c 128,-1,17
 264 639 264 639 245 639 c 0,18,19
 202 639 202 639 151 591 c 1,20,-1
 119 363 l 1,21,-1
 24 363 l 1,22,-1
 56 593 l 2,23,24
 63 649 63 649 63 671 c 0,25,26
 63 687 63 687 61 692 c 1,27,28
 74 698 74 698 94 703.5 c 128,-1,29
 114 709 114 709 132 709 c 0,30,31
 148 709 148 709 155.5 703 c 128,-1,32
 163 697 163 697 163 684 c 0,33,34
 163 677 163 677 162 673 c 2,35,-1
 160 660 l 1,36,37
 188 684 188 684 223 700 c 128,-1,38
 258 716 258 716 292 716 c 0,39,40
 337 716 337 716 358 696 c 128,-1,41
 379 676 379 676 379 635 c 0,42,43
 379 627 379 627 377 609 c 2,44,-1
 353 440 l 2,0,1
EndSplineSet
EndChar

StartChar: uni0394
Encoding: 916 916 426
Width: 586
Flags: W
LayerCount: 2
Fore
SplineSet
537 57 m 1,0,-1
 529 0 l 1,1,-1
 -57 0 l 1,2,-1
 -49 57 l 1,3,-1
 288 700 l 1,4,-1
 380 700 l 1,5,-1
 537 57 l 1,0,-1
410 98 m 1,6,-1
 310 530 l 1,7,-1
 89 98 l 1,8,-1
 410 98 l 1,6,-1
EndSplineSet
EndChar

StartChar: uni03A9
Encoding: 937 937 427
Width: 703
Flags: W
LayerCount: 2
Fore
SplineSet
18 85 m 1,0,-1
 174 85 l 1,1,-1
 182 140 l 1,2,3
 112 161 112 161 69.5 225.5 c 128,-1,4
 27 290 27 290 27 376 c 0,5,6
 27 472 27 472 72 548 c 128,-1,7
 117 624 117 624 198 667 c 128,-1,8
 279 710 279 710 383 710 c 0,9,10
 473 710 473 710 539.5 677.5 c 128,-1,11
 606 645 606 645 641.5 585.5 c 128,-1,12
 677 526 677 526 677 449 c 0,13,14
 677 376 677 376 648 312 c 128,-1,15
 619 248 619 248 566.5 203 c 128,-1,16
 514 158 514 158 445 140 c 1,17,-1
 437 85 l 1,18,-1
 594 85 l 1,19,-1
 582 0 l 1,20,-1
 332 0 l 1,21,-1
 359 194 l 1,22,23
 455 210 455 210 507 275.5 c 128,-1,24
 559 341 559 341 559 443 c 0,25,26
 559 527 559 527 509.5 575.5 c 128,-1,27
 460 624 460 624 372 624 c 0,28,29
 268 624 268 624 207 558.5 c 128,-1,30
 146 493 146 493 146 379 c 0,31,32
 146 305 146 305 183 255.5 c 128,-1,33
 220 206 220 206 284 194 c 1,34,-1
 257 0 l 1,35,-1
 6 0 l 1,36,-1
 18 85 l 1,0,-1
EndSplineSet
EndChar

StartChar: uni03BC
Encoding: 956 956 428
Width: 623
GlyphClass: 2
Flags: W
AnchorPoint: "Anchor-6" 547 523 basechar 0
AnchorPoint: "Anchor-5" 332 550 basechar 0
AnchorPoint: "Anchor-4" 512 15 basechar 0
AnchorPoint: "Anchor-3" 248 0 basechar 0
LayerCount: 2
Fore
SplineSet
504 126 m 2,0,1
 498 80 498 80 498 55 c 0,2,3
 498 31 498 31 503 14 c 1,4,5
 465 -5 465 -5 419 -5 c 0,6,7
 393 -5 393 -5 382.5 10 c 128,-1,8
 372 25 372 25 374 61 c 1,9,10
 321 -12 321 -12 225 -12 c 0,11,12
 176 -12 176 -12 140 9 c 1,13,-1
 108 -220 l 1,14,-1
 -11 -220 l 1,15,-1
 97 550 l 1,16,-1
 218 550 l 1,17,-1
 166 180 l 2,18,19
 164 158 164 158 164 150 c 0,20,21
 164 107 164 107 184.5 88 c 128,-1,22
 205 69 205 69 247 69 c 0,23,24
 331 69 331 69 388 166 c 1,25,-1
 441 550 l 1,26,-1
 564 550 l 1,27,-1
 504 126 l 2,0,1
EndSplineSet
EndChar

StartChar: pi
Encoding: 960 960 429
Width: 640
Flags: W
LayerCount: 2
Fore
SplineSet
374.5 15 m 128,-1,1
 349 40 349 40 349 82 c 0,2,3
 349 90 349 90 351 106 c 2,4,-1
 401 463 l 1,5,-1
 242 463 l 1,6,-1
 177 0 l 1,7,-1
 59 0 l 1,8,-1
 124 463 l 1,9,-1
 24 463 l 1,10,-1
 36 550 l 1,11,-1
 637 550 l 1,12,-1
 625 463 l 1,13,-1
 519 463 l 1,14,-1
 471 119 l 2,15,16
 470 113 470 113 470 103 c 0,17,18
 470 59 470 59 512 59 c 0,19,20
 546 59 546 59 580 77 c 1,21,-1
 571 13 l 1,22,23
 523 -10 523 -10 454 -10 c 0,24,0
 400 -10 400 -10 374.5 15 c 128,-1,1
EndSplineSet
EndChar

StartChar: uni0E01
Encoding: 3585 3585 430
Width: 612
GlyphClass: 2
Flags: W
AnchorPoint: "Anchor-12" 572 550 basechar 0
AnchorPoint: "Anchor-11" 495 0 basechar 0
LayerCount: 2
Fore
SplineSet
486.5 543 m 128,-1,1
 551 500 551 500 551 418 c 0,2,3
 551 401 551 401 548 383 c 2,4,-1
 495 0 l 1,5,-1
 376 0 l 1,6,-1
 429 383 l 2,7,8
 431 392 431 392 431 410 c 0,9,10
 431 507 431 507 314 507 c 0,11,12
 272 507 272 507 236.5 495.5 c 128,-1,13
 201 484 201 484 180 468.5 c 128,-1,14
 159 453 159 453 159 440 c 0,15,16
 159 421 159 421 176.5 407 c 128,-1,17
 194 393 194 393 210 393 c 0,18,19
 219 393 219 393 229.5 396 c 128,-1,20
 240 399 240 399 243 400 c 0,21,22
 261 406 261 406 269 406 c 0,23,24
 279 406 279 406 290.5 386.5 c 128,-1,25
 302 367 302 367 302 351 c 0,26,27
 302 337 302 337 290 337 c 0,28,29
 231 337 231 337 205 310 c 128,-1,30
 179 283 179 283 170 218 c 2,31,-1
 140 0 l 1,32,-1
 22 0 l 1,33,-1
 52 218 l 2,34,35
 63 302 63 302 125 346 c 1,36,37
 95 359 95 359 71.5 384.5 c 128,-1,38
 48 410 48 410 48 438 c 0,39,40
 48 471 48 471 80.5 505.5 c 128,-1,41
 113 540 113 540 174.5 563 c 128,-1,42
 236 586 236 586 317 586 c 0,43,0
 422 586 422 586 486.5 543 c 128,-1,1
EndSplineSet
EndChar

StartChar: uni0E02
Encoding: 3586 3586 431
Width: 593
GlyphClass: 2
Flags: W
AnchorPoint: "Anchor-12" 547 550 basechar 0
AnchorPoint: "Anchor-11" 470 0 basechar 0
LayerCount: 2
Fore
SplineSet
118 24 m 128,-1,1
 66 57 66 57 66 125 c 0,2,3
 66 141 66 141 80 242 c 0,4,5
 83 263 83 263 106 275 c 0,6,7
 165 308 165 308 196 329 c 128,-1,8
 227 350 227 350 249 380.5 c 128,-1,9
 271 411 271 411 271 453 c 0,10,11
 271 486 271 486 250.5 503.5 c 128,-1,12
 230 521 230 521 195 521 c 0,13,14
 155 521 155 521 131.5 501 c 128,-1,15
 108 481 108 481 108 449 c 0,16,17
 108 431 108 431 116.5 420.5 c 128,-1,18
 125 410 125 410 140 410 c 0,19,20
 159 410 159 410 169 421 c 128,-1,21
 179 432 179 432 179 450 c 0,22,23
 179 461 179 461 174 470 c 128,-1,24
 169 479 169 479 162 482 c 1,25,26
 168 488 168 488 173 491 c 128,-1,27
 178 494 178 494 187 494 c 0,28,29
 206 494 206 494 219.5 481 c 128,-1,30
 233 468 233 468 233 445 c 0,31,32
 233 403 233 403 205.5 377 c 128,-1,33
 178 351 178 351 136 351 c 0,34,35
 98 351 98 351 72 376.5 c 128,-1,36
 46 402 46 402 46 445 c 0,37,38
 46 508 46 508 90.5 545.5 c 128,-1,39
 135 583 135 583 205 583 c 0,40,41
 273 583 273 583 313.5 551.5 c 128,-1,42
 354 520 354 520 354 460 c 0,43,44
 354 408 354 408 333 368.5 c 128,-1,45
 312 329 312 329 279.5 300 c 128,-1,46
 247 271 247 271 198 239 c 1,47,48
 186 148 186 148 186 142 c 0,49,50
 186 70 186 70 266 70 c 0,51,52
 306 70 306 70 327.5 80.5 c 128,-1,53
 349 91 349 91 359.5 112.5 c 128,-1,54
 370 134 370 134 375 172 c 2,55,-1
 432 576 l 1,56,-1
 551 576 l 1,57,-1
 493 163 l 2,58,59
 479 68 479 68 419.5 29.5 c 128,-1,60
 360 -9 360 -9 256 -9 c 0,61,0
 170 -9 170 -9 118 24 c 128,-1,1
EndSplineSet
EndChar

StartChar: uni0E03
Encoding: 3587 3587 432
Width: 629
GlyphClass: 2
Flags: W
AnchorPoint: "Anchor-12" 583 550 basechar 0
AnchorPoint: "Anchor-11" 506 0 basechar 0
LayerCount: 2
Fore
SplineSet
135 27.5 m 128,-1,1
 84 64 84 64 84 138 c 0,2,3
 84 145 84 145 89 185 c 2,4,-1
 93 216 l 2,5,6
 98 256 98 256 121 284 c 128,-1,7
 144 312 144 312 189 349 c 0,8,9
 233 385 233 385 254.5 412 c 128,-1,10
 276 439 276 439 276 478 c 0,11,12
 276 506 276 506 250 506 c 0,13,14
 226 506 226 506 203 473 c 1,15,16
 195 490 195 490 184.5 498.5 c 128,-1,17
 174 507 174 507 158 507 c 0,18,19
 141 507 141 507 128.5 495 c 128,-1,20
 116 483 116 483 116 462 c 0,21,22
 116 447 116 447 125 439 c 128,-1,23
 134 431 134 431 148 431 c 0,24,25
 176 431 176 431 193 457 c 1,26,27
 207 447 207 447 207 433 c 0,28,29
 205 410 205 410 183 392.5 c 128,-1,30
 161 375 161 375 127 375 c 0,31,32
 86 375 86 375 61 397 c 128,-1,33
 36 419 36 419 36 459 c 0,34,35
 36 510 36 510 68 545 c 128,-1,36
 100 580 100 580 144 580 c 0,37,38
 171 580 171 580 187.5 570.5 c 128,-1,39
 204 561 204 561 213 541 c 1,40,41
 244 580 244 580 299 580 c 0,42,43
 338 580 338 580 362.5 555.5 c 128,-1,44
 387 531 387 531 387 489 c 0,45,46
 387 441 387 441 363 404.5 c 128,-1,47
 339 368 339 368 293 322 c 0,48,49
 257 286 257 286 239.5 263 c 128,-1,50
 222 240 222 240 218 212 c 0,51,52
 209 150 209 150 209 141 c 0,53,54
 209 105 209 105 229 88.5 c 128,-1,55
 249 72 249 72 294 72 c 0,56,57
 353 72 353 72 378.5 95.5 c 128,-1,58
 404 119 404 119 411 172 c 2,59,-1
 468 576 l 1,60,-1
 587 576 l 1,61,-1
 528 166 l 2,62,63
 516 83 516 83 455 37 c 128,-1,64
 394 -9 394 -9 281 -9 c 0,65,0
 186 -9 186 -9 135 27.5 c 128,-1,1
EndSplineSet
EndChar

StartChar: uni0E04
Encoding: 3588 3588 433
Width: 631
GlyphClass: 2
Flags: W
AnchorPoint: "Anchor-12" 591 550 basechar 0
AnchorPoint: "Anchor-11" 514 0 basechar 0
LayerCount: 2
Fore
SplineSet
508 537 m 128,-1,1
 567 488 567 488 567 403 c 0,2,3
 567 387 567 387 563 353 c 2,4,-1
 514 0 l 1,5,-1
 395 0 l 1,6,-1
 444 348 l 2,7,8
 448 373 448 373 448 403 c 0,9,10
 448 454 448 454 420 480.5 c 128,-1,11
 392 507 392 507 327 507 c 0,12,13
 241 507 241 507 200.5 454 c 128,-1,14
 160 401 160 401 160 307 c 0,15,16
 160 290 160 290 161 282 c 1,17,18
 187 322 187 322 225.5 346 c 128,-1,19
 264 370 264 370 310 370 c 0,20,21
 351 370 351 370 375.5 348.5 c 128,-1,22
 400 327 400 327 400 288 c 0,23,24
 400 238 400 238 370.5 210 c 128,-1,25
 341 182 341 182 295 182 c 0,26,27
 269 182 269 182 251.5 195 c 128,-1,28
 234 208 234 208 234 226 c 0,29,30
 234 239 234 239 240 249 c 128,-1,31
 246 259 246 259 258 262 c 1,32,33
 267 233 267 233 296 233 c 0,34,35
 315 233 315 233 326 245.5 c 128,-1,36
 337 258 337 258 337 278 c 0,37,38
 337 291 337 291 327 298.5 c 128,-1,39
 317 306 317 306 300 306 c 0,40,41
 183 306 183 306 134 0 c 1,42,-1
 29 0 l 2,43,44
 16 0 16 0 17 15 c 0,45,46
 18 39 18 39 30 67.5 c 128,-1,47
 42 96 42 96 64 137 c 0,48,49
 80 167 80 167 80 171 c 0,50,51
 80 177 80 177 71 197 c 0,52,53
 58 222 58 222 50 249.5 c 128,-1,54
 42 277 42 277 42 314 c 0,55,56
 42 396 42 396 77.5 457.5 c 128,-1,57
 113 519 113 519 178 552.5 c 128,-1,58
 243 586 243 586 330 586 c 0,59,0
 449 586 449 586 508 537 c 128,-1,1
EndSplineSet
EndChar

StartChar: uni0E05
Encoding: 3589 3589 434
Width: 640
GlyphClass: 2
Flags: W
AnchorPoint: "Anchor-12" 600 550 basechar 0
AnchorPoint: "Anchor-11" 523 0 basechar 0
LayerCount: 2
Fore
SplineSet
543 528 m 128,-1,1
 579 489 579 489 579 422 c 0,2,3
 579 394 579 394 575 370 c 2,4,-1
 523 0 l 1,5,-1
 405 0 l 1,6,-1
 457 370 l 2,7,8
 459 384 459 384 459 408 c 0,9,10
 459 441 459 441 447 462 c 128,-1,11
 435 483 435 483 408 493 c 1,12,13
 355 457 355 457 324 439 c 1,14,15
 292 461 292 461 252 493 c 1,16,17
 203 469 203 469 181.5 422 c 128,-1,18
 160 375 160 375 160 309 c 0,19,20
 160 289 160 289 161 281 c 1,21,22
 188 321 188 321 227.5 345.5 c 128,-1,23
 267 370 267 370 313 370 c 0,24,25
 355 370 355 370 379.5 348.5 c 128,-1,26
 404 327 404 327 404 288 c 0,27,28
 404 238 404 238 374 210 c 128,-1,29
 344 182 344 182 298 182 c 0,30,31
 273 182 273 182 255 195 c 128,-1,32
 237 208 237 208 237 226 c 0,33,34
 237 239 237 239 243.5 249 c 128,-1,35
 250 259 250 259 261 262 c 1,36,37
 266 247 266 247 275 240 c 128,-1,38
 284 233 284 233 300 233 c 0,39,40
 319 233 319 233 330 245 c 128,-1,41
 341 257 341 257 341 276 c 0,42,43
 341 290 341 290 331 298 c 128,-1,44
 321 306 321 306 303 306 c 0,45,46
 244 306 244 306 201 228 c 128,-1,47
 158 150 158 150 134 0 c 1,48,-1
 29 0 l 2,49,50
 16 0 16 0 17 15 c 0,51,52
 18 39 18 39 30 67.5 c 128,-1,53
 42 96 42 96 64 137 c 0,54,55
 80 167 80 167 80 171 c 0,56,57
 80 176 80 176 71 198 c 0,58,59
 58 224 58 224 50 252.5 c 128,-1,60
 42 281 42 281 42 318 c 0,61,62
 42 423 42 423 100.5 492.5 c 128,-1,63
 159 562 159 562 265 586 c 1,64,65
 298 567 298 567 337 528 c 1,66,67
 387 567 387 567 422 586 c 1,68,0
 507 567 507 567 543 528 c 128,-1,1
EndSplineSet
EndChar

StartChar: uni0E06
Encoding: 3590 3590 435
Width: 688
GlyphClass: 2
Flags: W
AnchorPoint: "Anchor-12" 631 550 basechar 0
AnchorPoint: "Anchor-11" 554 0 basechar 0
LayerCount: 2
Fore
SplineSet
635 576 m 1,0,-1
 571 129 l 2,1,2
 567 97 567 97 564 43 c 0,3,4
 561 14 561 14 562 18 c 1,5,6
 559 0 559 0 544 0 c 2,7,-1
 438 0 l 1,8,9
 418 77 418 77 372 123.5 c 128,-1,10
 326 170 326 170 267 189 c 1,11,12
 265 173 265 173 263 145 c 2,13,-1
 261 124 l 2,14,15
 256 62 256 62 221 26.5 c 128,-1,16
 186 -9 186 -9 121 -9 c 0,17,18
 71 -9 71 -9 42 21.5 c 128,-1,19
 13 52 13 52 13 103 c 0,20,21
 13 175 13 175 56 218.5 c 128,-1,22
 99 262 99 262 167 270 c 1,23,24
 177 292 177 292 190 309.5 c 128,-1,25
 203 327 203 327 216.5 342 c 128,-1,26
 230 357 230 357 236 364 c 0,27,28
 293 423 293 423 293 477 c 0,29,30
 293 505 293 505 268 505 c 256,31,32
 243 505 243 505 221 473 c 1,33,34
 207 507 207 507 175 507 c 0,35,36
 158 507 158 507 145.5 496 c 128,-1,37
 133 485 133 485 133 465 c 0,38,39
 133 449 133 449 142 441 c 128,-1,40
 151 433 151 433 165 433 c 0,41,42
 195 433 195 433 209 460 c 1,43,44
 224 452 224 452 224 436 c 0,45,46
 224 412 224 412 204 394 c 128,-1,47
 184 376 184 376 148 376 c 0,48,49
 106 376 106 376 79 400.5 c 128,-1,50
 52 425 52 425 52 465 c 0,51,52
 52 515 52 515 82 547.5 c 128,-1,53
 112 580 112 580 158 580 c 0,54,55
 186 580 186 580 202.5 570.5 c 128,-1,56
 219 561 219 561 228 541 c 1,57,58
 252 579 252 579 313 579 c 0,59,60
 354 579 354 579 379 554.5 c 128,-1,61
 404 530 404 530 404 487 c 0,62,63
 404 447 404 447 386.5 412 c 128,-1,64
 369 377 369 377 337 338 c 0,65,66
 321 318 321 318 307 297 c 128,-1,67
 293 276 293 276 285 259 c 1,68,69
 339 243 339 243 383.5 212 c 128,-1,70
 428 181 428 181 454 140 c 1,71,-1
 516 576 l 1,72,-1
 635 576 l 1,0,-1
134 73 m 128,-1,74
 141 90 141 90 144 122 c 2,75,-1
 148 167 l 2,76,77
 148 180 148 180 150 198 c 1,78,79
 116 191 116 191 99 168.5 c 128,-1,80
 82 146 82 146 82 105 c 0,81,82
 82 82 82 82 89 69 c 128,-1,83
 96 56 96 56 109 56 c 0,84,73
 127 56 127 56 134 73 c 128,-1,74
EndSplineSet
EndChar

StartChar: uni0E07
Encoding: 3591 3591 436
Width: 547
GlyphClass: 2
Flags: W
AnchorPoint: "Anchor-12" 497 550 basechar 0
AnchorPoint: "Anchor-11" 386 0 basechar 0
LayerCount: 2
Fore
SplineSet
141.5 1.5 m 128,-1,1
 104 10 104 10 104 21 c 0,2,3
 99 134 99 134 77 213.5 c 128,-1,4
 55 293 55 293 14 363 c 1,5,6
 24 381 24 381 44.5 391.5 c 128,-1,7
 65 402 65 402 88 402 c 0,8,9
 117 402 117 402 131.5 389.5 c 128,-1,10
 146 377 146 377 154 353 c 0,11,12
 173 295 173 295 183.5 232 c 128,-1,13
 194 169 194 169 195 78 c 0,14,15
 195 67 195 67 242 67 c 256,16,17
 289 67 289 67 292 79 c 0,18,19
 320 182 320 182 346.5 301 c 128,-1,20
 373 420 373 420 373 465 c 0,21,22
 373 512 373 512 335 512 c 0,23,24
 317 512 317 512 306 502.5 c 128,-1,25
 295 493 295 493 295 476 c 0,26,27
 295 463 295 463 303 455.5 c 128,-1,28
 311 448 311 448 324 448 c 0,29,30
 336 448 336 448 352 454 c 1,31,32
 356 449 356 449 356 441 c 0,33,34
 356 424 356 424 342 412 c 128,-1,35
 328 400 328 400 300 400 c 0,36,37
 267 400 267 400 246.5 421.5 c 128,-1,38
 226 443 226 443 226 476 c 0,39,40
 226 524 226 524 260 553 c 128,-1,41
 294 582 294 582 356 582 c 0,42,43
 421 582 421 582 457 550.5 c 128,-1,44
 493 519 493 519 493 464 c 0,45,46
 493 416 493 416 467 320 c 128,-1,47
 441 224 441 224 396 82 c 2,48,-1
 377 20 l 2,49,50
 373 8 373 8 328.5 0.5 c 128,-1,51
 284 -7 284 -7 231 -7 c 0,52,0
 179 -7 179 -7 141.5 1.5 c 128,-1,1
EndSplineSet
EndChar

StartChar: uni0E08
Encoding: 3592 3592 437
Width: 608
GlyphClass: 2
Flags: W
AnchorPoint: "Anchor-12" 570 550 basechar 0
AnchorPoint: "Anchor-11" 439 0 basechar 0
LayerCount: 2
Fore
SplineSet
222.5 -1 m 128,-1,1
 191 7 191 7 192 19 c 0,2,3
 197 124 197 124 197 218 c 0,4,5
 197 250 197 250 188.5 266.5 c 128,-1,6
 180 283 180 283 159 283 c 0,7,8
 142 283 142 283 131.5 272.5 c 128,-1,9
 121 262 121 262 121 248 c 0,10,11
 121 233 121 233 129 224 c 128,-1,12
 137 215 137 215 150 215 c 0,13,14
 164 215 164 215 176 221 c 1,15,16
 180 215 180 215 180 208 c 0,17,18
 180 191 180 191 168 180.5 c 128,-1,19
 156 170 156 170 133 170 c 0,20,21
 102 170 102 170 80.5 191 c 128,-1,22
 59 212 59 212 59 248 c 0,23,24
 59 292 59 292 88.5 320.5 c 128,-1,25
 118 349 118 349 167 349 c 0,26,27
 287 349 287 349 287 216 c 0,28,29
 287 187 287 187 284 73 c 0,30,31
 284 64 284 64 312 64 c 0,32,33
 338 64 338 64 341 74 c 0,34,35
 347 92 347 92 361 128 c 0,36,37
 392 213 392 213 407.5 268 c 128,-1,38
 423 323 423 323 423 376 c 0,39,40
 423 436 423 436 393 467.5 c 128,-1,41
 363 499 363 499 304 499 c 0,42,43
 260 499 260 499 226.5 485.5 c 128,-1,44
 193 472 193 472 146 444 c 0,45,46
 143 442 143 442 135.5 438.5 c 128,-1,47
 128 435 128 435 121.5 433 c 128,-1,48
 115 431 115 431 107 431 c 0,49,50
 92 431 92 431 76 455.5 c 128,-1,51
 60 480 60 480 55 509 c 1,52,53
 102 541 102 541 166 563.5 c 128,-1,54
 230 586 230 586 309 586 c 0,55,56
 375 586 375 586 428.5 561 c 128,-1,57
 482 536 482 536 513 490 c 128,-1,58
 544 444 544 444 544 384 c 0,59,60
 544 325 544 325 526 269 c 128,-1,61
 508 213 508 213 468 123 c 0,62,63
 427 25 427 25 424 19 c 0,64,65
 419 8 419 8 383.5 -0.5 c 128,-1,66
 348 -9 348 -9 302 -9 c 0,67,0
 254 -9 254 -9 222.5 -1 c 128,-1,1
EndSplineSet
EndChar

StartChar: uni0E09
Encoding: 3593 3593 438
Width: 642
GlyphClass: 2
Flags: W
AnchorPoint: "Anchor-12" 603 550 basechar 0
AnchorPoint: "Anchor-11" 526 0 basechar 0
LayerCount: 2
Fore
SplineSet
584 118 m 0,1,2
 584 61 584 61 549 28.5 c 128,-1,3
 514 -4 514 -4 452 -4 c 0,4,5
 405 -4 405 -4 375 24 c 128,-1,6
 345 52 345 52 345 92 c 0,7,8
 345 141 345 141 378 177 c 1,9,10
 325 163 325 163 281 113 c 128,-1,11
 237 63 237 63 224 0 c 1,12,-1
 138 0 l 2,13,14
 126 0 126 0 121.5 5 c 128,-1,15
 117 10 117 10 118 22 c 2,16,-1
 128 95 l 2,17,18
 133 127 133 127 145 165 c 0,19,20
 151 186 151 186 156.5 209 c 128,-1,21
 162 232 162 232 164 256 c 0,22,23
 166 276 166 276 156.5 288 c 128,-1,24
 147 300 147 300 127 300 c 0,25,26
 106 300 106 300 92.5 288 c 128,-1,27
 79 276 79 276 79 255 c 0,28,29
 79 237 79 237 88.5 227 c 128,-1,30
 98 217 98 217 114 217 c 0,31,32
 131 217 131 217 142 225 c 1,33,34
 145 218 145 218 145 211 c 0,35,36
 145 195 145 195 131.5 183 c 128,-1,37
 118 171 118 171 93 171 c 0,38,39
 62 171 62 171 40.5 193 c 128,-1,40
 19 215 19 215 19 251 c 0,41,42
 19 301 19 301 56 331 c 128,-1,43
 93 361 93 361 151 361 c 0,44,45
 206 361 206 361 238.5 332 c 128,-1,46
 271 303 271 303 271 257 c 0,47,48
 271 229 271 229 260 187 c 1,49,50
 328 247 328 247 421 247 c 2,51,-1
 435 247 l 1,52,53
 443 262 443 262 446 280 c 2,54,-1
 459 366 l 2,55,56
 460 375 460 375 460 392 c 0,57,58
 460 445 460 445 425.5 472 c 128,-1,59
 391 499 391 499 329 499 c 0,60,61
 237 499 237 499 147 440 c 0,62,63
 145 438 145 438 138 433 c 128,-1,64
 131 428 131 428 125 426 c 128,-1,65
 119 424 119 424 112 424 c 0,66,67
 98 424 98 424 82 444.5 c 128,-1,68
 66 465 66 465 58 495 c 1,69,70
 106 532 106 532 178.5 559 c 128,-1,71
 251 586 251 586 341 586 c 0,72,73
 446 586 446 586 513 538.5 c 128,-1,74
 580 491 580 491 580 404 c 0,75,76
 580 394 580 394 578 372 c 2,77,-1
 563 273 l 2,78,79
 557 241 557 241 531 216 c 1,80,0
 584 180 584 180 584 118 c 0,1,2
498 71.5 m 128,-1,82
 512 88 512 88 512 114 c 0,83,84
 512 133 512 133 501.5 147.5 c 128,-1,85
 491 162 491 162 471 170 c 1,86,87
 446 152 446 152 433 135.5 c 128,-1,88
 420 119 420 119 420 96 c 0,89,90
 420 77 420 77 431 66 c 128,-1,91
 442 55 442 55 460 55 c 0,92,81
 484 55 484 55 498 71.5 c 128,-1,82
EndSplineSet
EndChar

StartChar: uni0E0A
Encoding: 3594 3594 439
Width: 615
GlyphClass: 2
Flags: W
AnchorPoint: "Anchor-12" 554 550 basechar 0
AnchorPoint: "Anchor-11" 477 0 basechar 0
LayerCount: 2
Fore
SplineSet
552 478.5 m 128,-1,1
 518 437 518 437 467 420 c 1,2,3
 493 410 493 410 508 388.5 c 128,-1,4
 523 367 523 367 523 334 c 0,5,6
 523 328 523 328 521 310 c 2,7,-1
 501 163 l 2,8,9
 488 68 488 68 426.5 29.5 c 128,-1,10
 365 -9 365 -9 262 -9 c 0,11,12
 179 -9 179 -9 123 25 c 128,-1,13
 67 59 67 59 67 127 c 0,14,15
 67 135 67 135 69 151 c 2,16,-1
 82 242 l 2,17,18
 85 262 85 262 107 275 c 0,19,20
 163 307 163 307 193 327 c 128,-1,21
 223 347 223 347 244 376.5 c 128,-1,22
 265 406 265 406 265 446 c 0,23,24
 265 480 265 480 244.5 498.5 c 128,-1,25
 224 517 224 517 189 517 c 0,26,27
 152 517 152 517 130.5 498.5 c 128,-1,28
 109 480 109 480 109 452 c 0,29,30
 109 433 109 433 118.5 421.5 c 128,-1,31
 128 410 128 410 144 410 c 0,32,33
 163 410 163 410 173 420.5 c 128,-1,34
 183 431 183 431 183 449 c 0,35,36
 183 466 183 466 176 480 c 1,37,38
 182 483 182 483 192 483 c 0,39,40
 210 483 210 483 221 471.5 c 128,-1,41
 232 460 232 460 232 438 c 0,42,43
 232 401 232 401 207 376.5 c 128,-1,44
 182 352 182 352 138 352 c 0,45,46
 99 352 99 352 72.5 379 c 128,-1,47
 46 406 46 406 46 449 c 0,48,49
 46 510 46 510 89 544.5 c 128,-1,50
 132 579 132 579 199 579 c 0,51,52
 259 579 259 579 301.5 544.5 c 128,-1,53
 344 510 344 510 348 454 c 1,54,55
 473 480 473 480 501 624 c 1,56,57
 542 624 542 624 564 610 c 128,-1,58
 586 596 586 596 586 569 c 0,59,0
 586 520 586 520 552 478.5 c 128,-1,1
406 344 m 0,61,62
 406 367 406 367 397 378 c 128,-1,63
 388 389 388 389 376 389 c 0,64,65
 366 389 366 389 356.5 387.5 c 128,-1,66
 347 386 347 386 338 385 c 1,67,68
 324 341 324 341 289.5 307.5 c 128,-1,69
 255 274 255 274 200 239 c 1,70,-1
 190 165 l 2,71,72
 188 151 188 151 188 143 c 0,73,74
 188 70 188 70 271 70 c 0,75,76
 326 70 326 70 351 93.5 c 128,-1,77
 376 117 376 117 384 172 c 2,78,-1
 405 324 l 2,79,60
 406 331 406 331 406 344 c 0,61,62
EndSplineSet
EndChar

StartChar: uni0E0B
Encoding: 3595 3595 440
Width: 642
GlyphClass: 2
Flags: W
AnchorPoint: "Anchor-12" 586 550 basechar 0
AnchorPoint: "Anchor-11" 508 0 basechar 0
LayerCount: 2
Fore
SplineSet
585 482.5 m 128,-1,1
 553 444 553 444 507 425 c 1,2,3
 554 403 554 403 554 341 c 0,4,5
 554 323 554 323 552 313 c 2,6,-1
 532 166 l 2,7,8
 520 82 520 82 457 36.5 c 128,-1,9
 394 -9 394 -9 277 -9 c 0,10,11
 180 -9 180 -9 124 29 c 128,-1,12
 68 67 68 67 68 142 c 0,13,14
 68 150 68 150 70 172 c 2,15,-1
 78 222 l 2,16,17
 86 268 86 268 113.5 298.5 c 128,-1,18
 141 329 141 329 188 363 c 0,19,20
 232 397 232 397 252.5 420.5 c 128,-1,21
 273 444 273 444 273 478 c 0,22,23
 273 506 273 506 247 506 c 0,24,25
 223 506 223 506 199 473 c 1,26,27
 191 490 191 490 180.5 498.5 c 128,-1,28
 170 507 170 507 153 507 c 256,29,30
 136 507 136 507 124.5 496 c 128,-1,31
 113 485 113 485 113 466 c 0,32,33
 113 450 113 450 122 441.5 c 128,-1,34
 131 433 131 433 145 433 c 0,35,36
 172 433 172 433 190 458 c 1,37,38
 200 451 200 451 200 436 c 0,39,40
 200 412 200 412 177.5 394 c 128,-1,41
 155 376 155 376 119 376 c 0,42,43
 80 376 80 376 56 400 c 128,-1,44
 32 424 32 424 32 463 c 0,45,46
 32 514 32 514 62 547 c 128,-1,47
 92 580 92 580 138 580 c 0,48,49
 166 580 166 580 181.5 570 c 128,-1,50
 197 560 197 560 208 541 c 1,51,52
 235 580 235 580 292 580 c 0,53,54
 334 580 334 580 359 558 c 128,-1,55
 384 536 384 536 384 494 c 0,56,57
 384 476 384 476 379 456 c 1,58,59
 441 473 441 473 474.5 511.5 c 128,-1,60
 508 550 508 550 526 624 c 1,61,62
 617 624 617 624 617 565 c 0,63,0
 617 521 617 521 585 482.5 c 128,-1,1
437 347 m 0,65,66
 437 371 437 371 429 381 c 128,-1,67
 421 391 421 391 409 391 c 0,68,69
 403 391 403 391 390 389 c 128,-1,70
 377 387 377 387 370 387 c 256,71,72
 363 387 363 387 353 402 c 1,73,74
 334 375 334 375 285 330 c 0,75,76
 247 294 247 294 227.5 270 c 128,-1,77
 208 246 208 246 203 217 c 2,78,-1
 195 172 l 2,79,80
 194 164 194 164 194 149 c 0,81,82
 194 110 194 110 218 91 c 128,-1,83
 242 72 242 72 290 72 c 0,84,85
 350 72 350 72 378.5 96 c 128,-1,86
 407 120 407 120 415 172 c 2,87,-1
 436 326 l 2,88,64
 437 334 437 334 437 347 c 0,65,66
EndSplineSet
EndChar

StartChar: uni0E0C
Encoding: 3596 3596 441
Width: 913
GlyphClass: 2
Flags: W
AnchorPoint: "Anchor-12" 856 550 basechar 0
AnchorPoint: "Anchor-11" 779 0 basechar 0
LayerCount: 2
Fore
SplineSet
860 576 m 1,0,-1
 798 138 l 2,1,2
 791 77 791 77 789 44 c 0,3,4
 787 18 787 18 787 20 c 1,5,6
 784 0 784 0 769 0 c 2,7,-1
 663 0 l 1,8,9
 623 137 623 137 518 169 c 1,10,-1
 510 112 l 2,11,12
 502 49 502 49 476.5 20 c 128,-1,13
 451 -9 451 -9 391 -9 c 0,14,15
 353 -9 353 -9 325.5 15 c 128,-1,16
 298 39 298 39 292 83 c 1,17,18
 286 40 286 40 254 16.5 c 128,-1,19
 222 -7 222 -7 165 -7 c 0,20,21
 106 -7 106 -7 68.5 23 c 128,-1,22
 31 53 31 53 31 103 c 0,23,24
 31 119 31 119 32 128 c 2,25,-1
 46 221 l 2,26,27
 56 303 56 303 116 345 c 1,28,29
 89 359 89 359 68.5 385 c 128,-1,30
 48 411 48 411 48 438 c 0,31,32
 48 471 48 471 81 505.5 c 128,-1,33
 114 540 114 540 173.5 563 c 128,-1,34
 233 586 233 586 308 586 c 0,35,36
 429 586 429 586 490 542.5 c 128,-1,37
 551 499 551 499 551 417 c 0,38,39
 551 401 551 401 548 383 c 2,40,-1
 529 239 l 1,41,42
 575 227 575 227 614 200 c 128,-1,43
 653 173 653 173 679 133 c 1,44,-1
 742 576 l 1,45,-1
 860 576 l 1,0,-1
329.5 200 m 128,-1,47
 361 232 361 232 410 243 c 1,48,-1
 429 381 l 2,49,50
 432 396 432 396 432 410 c 0,51,52
 432 457 432 457 400.5 482.5 c 128,-1,53
 369 508 369 508 307 508 c 0,54,55
 262 508 262 508 228.5 497 c 128,-1,56
 195 486 195 486 177 470 c 128,-1,57
 159 454 159 454 159 441 c 0,58,59
 159 421 159 421 173.5 408 c 128,-1,60
 188 395 188 395 204 395 c 0,61,62
 217 395 217 395 235 399 c 0,63,64
 247 402 247 402 258 402 c 0,65,66
 268 402 268 402 282 380.5 c 128,-1,67
 296 359 296 359 296 342 c 0,68,69
 296 326 296 326 287 326 c 0,70,71
 227 326 227 326 199.5 302.5 c 128,-1,72
 172 279 172 279 164 221 c 2,73,-1
 149 118 l 2,74,75
 148 110 148 110 148 98 c 0,76,77
 148 78 148 78 158 67 c 128,-1,78
 168 56 168 56 188 56 c 0,79,80
 228 56 228 56 228 98 c 0,81,82
 228 114 228 114 219.5 123 c 128,-1,83
 211 132 211 132 196 132 c 0,84,85
 180 132 180 132 169 128 c 1,86,87
 167 134 167 134 167 137 c 0,88,89
 167 157 167 157 181.5 169.5 c 128,-1,90
 196 182 196 182 222 182 c 256,91,92
 248 182 248 182 267.5 166.5 c 128,-1,93
 287 151 287 151 292 124 c 1,94,46
 298 168 298 168 329.5 200 c 128,-1,47
385 68.5 m 128,-1,96
 390 81 390 81 395 119 c 2,97,-1
 401 171 l 1,98,99
 375 163 375 163 361.5 144.5 c 128,-1,100
 348 126 348 126 348 94 c 0,101,102
 348 77 348 77 354 66.5 c 128,-1,103
 360 56 360 56 370 56 c 256,104,95
 380 56 380 56 385 68.5 c 128,-1,96
EndSplineSet
EndChar

StartChar: uni0E240E45
Encoding: 65537 -1 442
Width: 939
Flags: W
LayerCount: 2
Fore
SplineSet
429 381 m 2,0,1
 432 396 432 396 432 410 c 0,2,3
 432 457 432 457 400.5 482.5 c 128,-1,4
 369 508 369 508 307 508 c 0,5,6
 262 508 262 508 228.5 497 c 128,-1,7
 195 486 195 486 177 470 c 128,-1,8
 159 454 159 454 159 441 c 0,9,10
 159 421 159 421 173.5 408 c 128,-1,11
 188 395 188 395 204 395 c 0,12,13
 217 395 217 395 235 399 c 0,14,15
 247 402 247 402 258 402 c 0,16,17
 268 402 268 402 282 380.5 c 128,-1,18
 296 359 296 359 296 342 c 0,19,20
 296 326 296 326 287 326 c 0,21,22
 227 326 227 326 200 303 c 128,-1,23
 173 280 173 280 164 221 c 2,24,-1
 149 118 l 2,25,26
 148 110 148 110 148 98 c 0,27,28
 148 78 148 78 158 67 c 128,-1,29
 168 56 168 56 188 56 c 0,30,31
 228 56 228 56 228 98 c 0,32,33
 228 114 228 114 219.5 123 c 128,-1,34
 211 132 211 132 196 132 c 0,35,36
 180 132 180 132 169 128 c 1,37,38
 167 134 167 134 167 137 c 0,39,40
 167 157 167 157 181.5 169.5 c 128,-1,41
 196 182 196 182 222 182 c 0,42,43
 253 182 253 182 273.5 161 c 128,-1,44
 294 140 294 140 294 106 c 0,45,46
 294 52 294 52 261.5 22.5 c 128,-1,47
 229 -7 229 -7 165 -7 c 0,48,49
 106 -7 106 -7 68.5 23 c 128,-1,50
 31 53 31 53 31 103 c 0,51,52
 31 119 31 119 32 128 c 2,53,-1
 46 221 l 2,54,55
 59 305 59 305 116 345 c 1,56,57
 88 360 88 360 68 385.5 c 128,-1,58
 48 411 48 411 48 438 c 0,59,60
 48 471 48 471 81 505.5 c 128,-1,61
 114 540 114 540 173.5 563 c 128,-1,62
 233 586 233 586 308 586 c 0,63,64
 450 586 450 586 509 525 c 1,65,66
 599 586 599 586 699 586 c 0,67,68
 785 586 785 586 832.5 547 c 128,-1,69
 880 508 880 508 880 434 c 0,70,71
 880 416 880 416 877 398 c 2,72,-1
 791 -219 l 1,73,-1
 673 -219 l 1,74,-1
 760 400 l 2,75,76
 762 416 762 416 762 423 c 0,77,78
 762 461 762 461 740 480 c 128,-1,79
 718 499 718 499 678 499 c 0,80,81
 613 499 613 499 548 447 c 1,82,83
 551 434 551 434 551 417 c 0,84,85
 551 401 551 401 548 383 c 2,86,-1
 464 -220 l 1,87,-1
 345 -220 l 1,88,-1
 429 381 l 2,0,1
EndSplineSet
Ligature2: "'liga' Standard Ligatures lookup 13 subtable" uni0E24 uni0E45
EndChar

StartChar: uni0E260E45
Encoding: 65538 -1 443
Width: 942
Flags: W
LayerCount: 2
Fore
SplineSet
437 377 m 2,0,1
 439 399 439 399 439 408 c 0,2,3
 439 459 439 459 409.5 483.5 c 128,-1,4
 380 508 380 508 320 508 c 0,5,6
 278 508 278 508 243.5 496.5 c 128,-1,7
 209 485 209 485 189.5 469 c 128,-1,8
 170 453 170 453 170 440 c 0,9,10
 170 421 170 421 185 409 c 128,-1,11
 200 397 200 397 214 397 c 0,12,13
 225 397 225 397 247 403 c 0,14,15
 251 404 251 404 260 406 c 128,-1,16
 269 408 269 408 275 408 c 0,17,18
 285 408 285 408 297 387 c 128,-1,19
 309 366 309 366 309 349 c 0,20,21
 309 334 309 334 300 334 c 0,22,23
 251 334 251 334 224 311 c 128,-1,24
 197 288 197 288 197 240 c 0,25,26
 197 218 197 218 200 188 c 0,27,28
 201 177 201 177 202 161 c 128,-1,29
 203 145 203 145 203 127 c 0,30,31
 203 65 203 65 165.5 29 c 128,-1,32
 128 -7 128 -7 63 -7 c 0,33,34
 13 -7 13 -7 -14 17.5 c 128,-1,35
 -41 42 -41 42 -41 78 c 0,36,37
 -41 121 -41 121 -18 141.5 c 128,-1,38
 5 162 5 162 39 162 c 0,39,40
 58 162 58 162 68 152.5 c 128,-1,41
 78 143 78 143 77 124 c 1,42,-1
 59 124 l 2,43,44
 41 124 41 124 29.5 113 c 128,-1,45
 18 102 18 102 18 85 c 0,46,47
 18 71 18 71 26 63 c 128,-1,48
 34 55 34 55 49 55 c 0,49,50
 92 55 92 55 92 118 c 0,51,52
 92 152 92 152 86 190 c 0,53,54
 81 217 81 217 81 237 c 0,55,56
 81 316 81 316 141 348 c 1,57,58
 106 361 106 361 82 385.5 c 128,-1,59
 58 410 58 410 58 439 c 0,60,61
 58 470 58 470 88.5 504.5 c 128,-1,62
 119 539 119 539 179 562.5 c 128,-1,63
 239 586 239 586 321 586 c 0,64,65
 456 586 456 586 515 527 c 1,66,67
 604 586 604 586 702 586 c 0,68,69
 789 586 789 586 836 547 c 128,-1,70
 883 508 883 508 883 434 c 0,71,72
 883 410 883 410 881 398 c 2,73,-1
 795 -219 l 1,74,-1
 676 -219 l 1,75,-1
 763 400 l 2,76,77
 765 416 765 416 765 423 c 0,78,79
 765 461 765 461 743.5 480 c 128,-1,80
 722 499 722 499 681 499 c 0,81,82
 617 499 617 499 555 450 c 1,83,84
 558 434 558 434 558 416 c 256,85,86
 558 398 558 398 555 377 c 2,87,-1
 472 -220 l 1,88,-1
 354 -220 l 1,89,-1
 437 377 l 2,0,1
EndSplineSet
Ligature2: "'liga' Standard Ligatures lookup 13 subtable" uni0E26 uni0E45
EndChar

StartChar: uni0E0D
Encoding: 3597 3597 444
Width: 940
GlyphClass: 2
Flags: W
AnchorPoint: "Anchor-12" 893 550 basechar 0
AnchorPoint: "Anchor-11" 747 -243 basechar 0
LayerCount: 2
Fore
SplineSet
441 21 m 128,-1,1
 394 51 394 51 394 126 c 0,2,3
 394 152 394 152 398 177 c 2,4,-1
 426 381 l 2,5,6
 428 401 428 401 428 410 c 0,7,8
 428 457 428 457 397 482.5 c 128,-1,9
 366 508 366 508 304 508 c 0,10,11
 259 508 259 508 226 497 c 128,-1,12
 193 486 193 486 176 470 c 128,-1,13
 159 454 159 454 159 441 c 0,14,15
 159 421 159 421 173.5 408 c 128,-1,16
 188 395 188 395 204 395 c 0,17,18
 217 395 217 395 235 399 c 0,19,20
 247 402 247 402 258 402 c 0,21,22
 268 402 268 402 282 380.5 c 128,-1,23
 296 359 296 359 296 342 c 0,24,25
 296 326 296 326 287 326 c 0,26,27
 227 326 227 326 200 303 c 128,-1,28
 173 280 173 280 164 221 c 2,29,-1
 149 118 l 2,30,31
 148 110 148 110 148 98 c 0,32,33
 148 78 148 78 158 67 c 128,-1,34
 168 56 168 56 188 56 c 0,35,36
 228 56 228 56 228 98 c 0,37,38
 228 114 228 114 219.5 123 c 128,-1,39
 211 132 211 132 196 132 c 0,40,41
 180 132 180 132 169 128 c 1,42,43
 167 134 167 134 167 137 c 0,44,45
 167 157 167 157 181.5 169.5 c 128,-1,46
 196 182 196 182 222 182 c 0,47,48
 253 182 253 182 273.5 161 c 128,-1,49
 294 140 294 140 294 106 c 0,50,51
 294 52 294 52 261.5 22.5 c 128,-1,52
 229 -7 229 -7 165 -7 c 0,53,54
 106 -7 106 -7 68.5 23 c 128,-1,55
 31 53 31 53 31 103 c 0,56,57
 31 119 31 119 32 128 c 2,58,-1
 46 221 l 2,59,60
 59 305 59 305 116 345 c 1,61,62
 88 360 88 360 68 385.5 c 128,-1,63
 48 411 48 411 48 438 c 0,64,65
 48 471 48 471 80 505.5 c 128,-1,66
 112 540 112 540 171 563 c 128,-1,67
 230 586 230 586 305 586 c 0,68,69
 426 586 426 586 486.5 542.5 c 128,-1,70
 547 499 547 499 547 417 c 0,71,72
 547 401 547 401 544 383 c 2,73,-1
 515 173 l 2,74,75
 512 152 512 152 512 136 c 0,76,77
 512 98 512 98 533 83.5 c 128,-1,78
 554 69 554 69 605 69 c 0,79,80
 647 69 647 69 670 79 c 128,-1,81
 693 89 693 89 704.5 111 c 128,-1,82
 716 133 716 133 722 174 c 2,83,-1
 779 576 l 1,84,-1
 897 576 l 1,85,-1
 842 183 l 2,86,87
 831 108 831 108 802.5 66.5 c 128,-1,88
 774 25 774 25 724.5 8 c 128,-1,89
 675 -9 675 -9 594 -9 c 0,90,0
 488 -9 488 -9 441 21 c 128,-1,1
420 -224.5 m 128,-1,92
 377 -196 377 -196 377 -142 c 0,93,94
 377 -103 377 -103 406 -76 c 128,-1,95
 435 -49 435 -49 479 -49 c 0,96,97
 514 -49 514 -49 535.5 -66 c 128,-1,98
 557 -83 557 -83 557 -110 c 0,99,100
 557 -133 557 -133 543.5 -147.5 c 128,-1,101
 530 -162 530 -162 512 -162 c 0,102,103
 497 -162 497 -162 490 -153 c 1,104,105
 497 -149 497 -149 501 -140.5 c 128,-1,106
 505 -132 505 -132 505 -124 c 0,107,108
 505 -113 505 -113 498.5 -106.5 c 128,-1,109
 492 -100 492 -100 482 -100 c 0,110,111
 468 -100 468 -100 459.5 -108 c 128,-1,112
 451 -116 451 -116 451 -132 c 0,113,114
 451 -155 451 -155 472 -169.5 c 128,-1,115
 493 -184 493 -184 537 -184 c 0,116,117
 592 -184 592 -184 625.5 -160.5 c 128,-1,118
 659 -137 659 -137 680 -90 c 0,119,120
 690 -67 690 -67 708 -67 c 0,121,122
 725 -67 725 -67 746.5 -73.5 c 128,-1,123
 768 -80 768 -80 780 -87 c 1,124,125
 758 -171 758 -171 689 -212 c 128,-1,126
 620 -253 620 -253 532 -253 c 0,127,91
 463 -253 463 -253 420 -224.5 c 128,-1,92
EndSplineSet
Substitution2: "Single Substitution lookup 14 subtable" yoYingthai.less
Substitution2: "'aalt' Access All Alternates lookup 0 subtable" yoYingthai.less
EndChar

StartChar: yoYingthai.less
Encoding: 65539 -1 445
Width: 940
GlyphClass: 2
Flags: W
AnchorPoint: "Anchor-12" 893 550 basechar 0
AnchorPoint: "Anchor-11" 816 0 basechar 0
LayerCount: 2
Fore
SplineSet
441 21 m 128,-1,1
 394 51 394 51 394 126 c 0,2,3
 394 152 394 152 398 177 c 2,4,-1
 426 381 l 2,5,6
 428 401 428 401 428 410 c 0,7,8
 428 457 428 457 397 482.5 c 128,-1,9
 366 508 366 508 304 508 c 0,10,11
 259 508 259 508 226 497 c 128,-1,12
 193 486 193 486 176 470 c 128,-1,13
 159 454 159 454 159 441 c 0,14,15
 159 421 159 421 173.5 408 c 128,-1,16
 188 395 188 395 204 395 c 0,17,18
 217 395 217 395 235 399 c 0,19,20
 247 402 247 402 258 402 c 0,21,22
 268 402 268 402 282 380.5 c 128,-1,23
 296 359 296 359 296 342 c 0,24,25
 296 326 296 326 287 326 c 0,26,27
 227 326 227 326 200 303 c 128,-1,28
 173 280 173 280 164 221 c 2,29,-1
 149 118 l 2,30,31
 148 110 148 110 148 98 c 0,32,33
 148 78 148 78 158 67 c 128,-1,34
 168 56 168 56 188 56 c 0,35,36
 228 56 228 56 228 98 c 0,37,38
 228 114 228 114 219.5 123 c 128,-1,39
 211 132 211 132 196 132 c 0,40,41
 180 132 180 132 169 128 c 1,42,43
 167 134 167 134 167 137 c 0,44,45
 167 157 167 157 181.5 169.5 c 128,-1,46
 196 182 196 182 222 182 c 0,47,48
 253 182 253 182 273.5 161 c 128,-1,49
 294 140 294 140 294 106 c 0,50,51
 294 52 294 52 261.5 22.5 c 128,-1,52
 229 -7 229 -7 165 -7 c 0,53,54
 106 -7 106 -7 68.5 23 c 128,-1,55
 31 53 31 53 31 103 c 0,56,57
 31 119 31 119 32 128 c 2,58,-1
 46 221 l 2,59,60
 59 305 59 305 116 345 c 1,61,62
 88 360 88 360 68 385.5 c 128,-1,63
 48 411 48 411 48 438 c 0,64,65
 48 471 48 471 80 505.5 c 128,-1,66
 112 540 112 540 171 563 c 128,-1,67
 230 586 230 586 305 586 c 0,68,69
 426 586 426 586 486.5 542.5 c 128,-1,70
 547 499 547 499 547 417 c 0,71,72
 547 401 547 401 544 383 c 2,73,-1
 515 173 l 2,74,75
 512 152 512 152 512 136 c 0,76,77
 512 98 512 98 533 83.5 c 128,-1,78
 554 69 554 69 605 69 c 0,79,80
 647 69 647 69 670 79 c 128,-1,81
 693 89 693 89 704.5 111 c 128,-1,82
 716 133 716 133 722 174 c 2,83,-1
 779 576 l 1,84,-1
 897 576 l 1,85,-1
 842 183 l 2,86,87
 831 108 831 108 802.5 66.5 c 128,-1,88
 774 25 774 25 724.5 8 c 128,-1,89
 675 -9 675 -9 594 -9 c 0,90,0
 488 -9 488 -9 441 21 c 128,-1,1
EndSplineSet
EndChar

StartChar: uni0E0E
Encoding: 3598 3598 446
Width: 619
GlyphClass: 2
Flags: W
AnchorPoint: "Anchor-12" 580 550 basechar 0
AnchorPoint: "Anchor-11" 468 -245 basechar 0
LayerCount: 2
Fore
SplineSet
495 544.5 m 128,-1,1
 558 503 558 503 558 416 c 0,2,3
 558 398 558 398 555 377 c 2,4,-1
 468 -245 l 1,5,-1
 349 -245 l 1,6,7
 319 -194 319 -194 268 -161 c 1,8,9
 236 -201 236 -201 187.5 -225.5 c 128,-1,10
 139 -250 139 -250 83 -250 c 0,11,12
 30 -250 30 -250 -1.5 -227.5 c 128,-1,13
 -33 -205 -33 -205 -33 -166 c 0,14,15
 -33 -134 -33 -134 -10.5 -107.5 c 128,-1,16
 12 -81 12 -81 51 -66.5 c 128,-1,17
 90 -52 90 -52 138 -52 c 0,18,19
 183 -52 183 -52 225 -63 c 1,20,21
 234 -38 234 -38 240 -4 c 1,22,23
 281 -4 281 -4 297.5 -14.5 c 128,-1,24
 314 -25 314 -25 314 -48 c 0,25,26
 314 -69 314 -69 304 -97 c 1,27,28
 343 -119 343 -119 363 -149 c 1,29,-1
 437 377 l 2,30,31
 439 399 439 399 439 408 c 0,32,33
 439 459 439 459 409.5 483.5 c 128,-1,34
 380 508 380 508 320 508 c 0,35,36
 278 508 278 508 243.5 496.5 c 128,-1,37
 209 485 209 485 189.5 469 c 128,-1,38
 170 453 170 453 170 440 c 0,39,40
 170 421 170 421 185 409 c 128,-1,41
 200 397 200 397 214 397 c 0,42,43
 225 397 225 397 247 403 c 0,44,45
 251 404 251 404 260 406 c 128,-1,46
 269 408 269 408 275 408 c 0,47,48
 285 408 285 408 297 387 c 128,-1,49
 309 366 309 366 309 349 c 0,50,51
 309 334 309 334 300 334 c 0,52,53
 251 334 251 334 224 311 c 128,-1,54
 197 288 197 288 197 240 c 0,55,56
 197 218 197 218 200 188 c 0,57,58
 201 177 201 177 202 161 c 128,-1,59
 203 145 203 145 203 127 c 0,60,61
 203 65 203 65 165.5 29 c 128,-1,62
 128 -7 128 -7 63 -7 c 0,63,64
 13 -7 13 -7 -14 17.5 c 128,-1,65
 -41 42 -41 42 -41 78 c 0,66,67
 -41 121 -41 121 -18 141.5 c 128,-1,68
 5 162 5 162 39 162 c 0,69,70
 58 162 58 162 68 152.5 c 128,-1,71
 78 143 78 143 77 124 c 1,72,-1
 59 124 l 2,73,74
 41 124 41 124 29.5 113 c 128,-1,75
 18 102 18 102 18 85 c 0,76,77
 18 71 18 71 26 63 c 128,-1,78
 34 55 34 55 49 55 c 0,79,80
 92 55 92 55 92 118 c 0,81,82
 92 152 92 152 86 190 c 0,83,84
 81 217 81 217 81 237 c 0,85,86
 81 316 81 316 143 348 c 1,87,88
 107 361 107 361 82.5 385.5 c 128,-1,89
 58 410 58 410 58 439 c 0,90,91
 58 470 58 470 88.5 504.5 c 128,-1,92
 119 539 119 539 179 562.5 c 128,-1,93
 239 586 239 586 321 586 c 0,94,0
 432 586 432 586 495 544.5 c 128,-1,1
197 -128 m 1,96,97
 167 -119 167 -119 135 -119 c 0,98,99
 101 -119 101 -119 80.5 -130.5 c 128,-1,100
 60 -142 60 -142 60 -159 c 0,101,102
 60 -172 60 -172 71.5 -179.5 c 128,-1,103
 83 -187 83 -187 103 -187 c 0,104,95
 161 -187 161 -187 197 -128 c 1,96,97
EndSplineSet
Substitution2: "Single Substitution lookup 14 subtable" doChadathai.short
Substitution2: "'aalt' Access All Alternates lookup 0 subtable" doChadathai.short
EndChar

StartChar: doChadathai.short
Encoding: 65540 -1 447
Width: 619
GlyphClass: 2
Flags: W
AnchorPoint: "Anchor-12" 580 550 basechar 0
AnchorPoint: "Anchor-11" 475 -195 basechar 0
LayerCount: 2
Fore
SplineSet
495 544.5 m 128,-1,1
 558 503 558 503 558 416 c 0,2,3
 558 398 558 398 555 377 c 2,4,-1
 475 -195 l 1,5,-1
 355 -195 l 1,6,7
 326 -147 326 -147 275 -111 c 1,8,9
 242 -151 242 -151 193.5 -175.5 c 128,-1,10
 145 -200 145 -200 89 -200 c 0,11,12
 36 -200 36 -200 4.5 -177.5 c 128,-1,13
 -27 -155 -27 -155 -27 -116 c 0,14,15
 -27 -67 -27 -67 22 -38 c 128,-1,16
 71 -9 71 -9 145 -9 c 0,17,18
 188 -9 188 -9 229 -20 c 1,19,20
 237 3 237 3 246 46 c 1,21,22
 287 46 287 46 304 35.5 c 128,-1,23
 321 25 321 25 321 2 c 0,24,25
 321 -19 321 -19 310 -52 c 1,26,27
 346 -72 346 -72 370 -101 c 1,28,-1
 437 377 l 2,29,30
 439 399 439 399 439 408 c 0,31,32
 439 459 439 459 409.5 483.5 c 128,-1,33
 380 508 380 508 320 508 c 0,34,35
 278 508 278 508 243.5 496.5 c 128,-1,36
 209 485 209 485 189.5 469 c 128,-1,37
 170 453 170 453 170 440 c 0,38,39
 170 421 170 421 185 409 c 128,-1,40
 200 397 200 397 214 397 c 0,41,42
 225 397 225 397 247 403 c 0,43,44
 251 404 251 404 260 406 c 128,-1,45
 269 408 269 408 275 408 c 0,46,47
 285 408 285 408 297 387 c 128,-1,48
 309 366 309 366 309 349 c 0,49,50
 309 334 309 334 300 334 c 0,51,52
 251 334 251 334 224 311 c 128,-1,53
 197 288 197 288 197 240 c 0,54,55
 197 218 197 218 200 188 c 0,56,57
 201 177 201 177 202 161 c 128,-1,58
 203 145 203 145 203 127 c 0,59,60
 203 65 203 65 165.5 29 c 128,-1,61
 128 -7 128 -7 63 -7 c 0,62,63
 13 -7 13 -7 -14 17.5 c 128,-1,64
 -41 42 -41 42 -41 78 c 0,65,66
 -41 121 -41 121 -18 141.5 c 128,-1,67
 5 162 5 162 39 162 c 0,68,69
 58 162 58 162 68 152.5 c 128,-1,70
 78 143 78 143 77 124 c 1,71,-1
 59 124 l 2,72,73
 41 124 41 124 29.5 113 c 128,-1,74
 18 102 18 102 18 85 c 0,75,76
 18 71 18 71 26 63 c 128,-1,77
 34 55 34 55 49 55 c 0,78,79
 92 55 92 55 92 118 c 0,80,81
 92 152 92 152 86 190 c 0,82,83
 81 217 81 217 81 237 c 0,84,85
 81 316 81 316 143 348 c 1,86,87
 107 361 107 361 82.5 385.5 c 128,-1,88
 58 410 58 410 58 439 c 0,89,90
 58 470 58 470 88.5 504.5 c 128,-1,91
 119 539 119 539 179 562.5 c 128,-1,92
 239 586 239 586 321 586 c 0,93,0
 432 586 432 586 495 544.5 c 128,-1,1
203 -78 m 1,95,96
 175 -69 175 -69 142 -69 c 0,97,98
 108 -69 108 -69 87.5 -80.5 c 128,-1,99
 67 -92 67 -92 67 -109 c 0,100,101
 67 -122 67 -122 78.5 -129.5 c 128,-1,102
 90 -137 90 -137 110 -137 c 0,103,94
 167 -137 167 -137 203 -78 c 1,95,96
EndSplineSet
EndChar

StartChar: uni0E0F
Encoding: 3599 3599 448
Width: 619
GlyphClass: 2
Flags: W
AnchorPoint: "Anchor-12" 580 550 basechar 0
AnchorPoint: "Anchor-11" 466 -250 basechar 0
LayerCount: 2
Fore
SplineSet
495 544.5 m 128,-1,1
 558 503 558 503 558 416 c 0,2,3
 558 398 558 398 555 377 c 2,4,-1
 466 -250 l 1,5,-1
 345 -250 l 1,6,-1
 296 -202 l 1,7,-1
 231 -247 l 1,8,-1
 190 -205 l 1,9,10
 160 -228 160 -228 124 -240.5 c 128,-1,11
 88 -253 88 -253 50 -253 c 0,12,13
 -1 -253 -1 -253 -32 -230.5 c 128,-1,14
 -63 -208 -63 -208 -63 -172 c 0,15,16
 -63 -128 -63 -128 -24.5 -102.5 c 128,-1,17
 14 -77 14 -77 68 -77 c 0,18,19
 120 -77 120 -77 167 -105 c 1,20,21
 181 -63 181 -63 181 -16 c 1,22,23
 220 -16 220 -16 242 -31 c 128,-1,24
 264 -46 264 -46 264 -74 c 0,25,26
 264 -120 264 -120 233 -162 c 1,27,-1
 246 -174 l 1,28,-1
 306 -139 l 1,29,-1
 360 -175 l 1,30,-1
 437 377 l 2,31,32
 439 399 439 399 439 408 c 0,33,34
 439 459 439 459 409.5 483.5 c 128,-1,35
 380 508 380 508 320 508 c 0,36,37
 278 508 278 508 243.5 496.5 c 128,-1,38
 209 485 209 485 189.5 469 c 128,-1,39
 170 453 170 453 170 440 c 0,40,41
 170 421 170 421 185 409 c 128,-1,42
 200 397 200 397 214 397 c 0,43,44
 225 397 225 397 247 403 c 0,45,46
 251 404 251 404 260 406 c 128,-1,47
 269 408 269 408 275 408 c 0,48,49
 285 408 285 408 297 387 c 128,-1,50
 309 366 309 366 309 349 c 0,51,52
 309 334 309 334 300 334 c 0,53,54
 251 334 251 334 224 311 c 128,-1,55
 197 288 197 288 197 240 c 0,56,57
 197 218 197 218 200 188 c 0,58,59
 201 177 201 177 202 161 c 128,-1,60
 203 145 203 145 203 127 c 0,61,62
 203 65 203 65 165.5 29 c 128,-1,63
 128 -7 128 -7 63 -7 c 0,64,65
 13 -7 13 -7 -14 17.5 c 128,-1,66
 -41 42 -41 42 -41 78 c 0,67,68
 -41 121 -41 121 -18 141.5 c 128,-1,69
 5 162 5 162 39 162 c 0,70,71
 58 162 58 162 68 152.5 c 128,-1,72
 78 143 78 143 77 124 c 1,73,-1
 59 124 l 2,74,75
 41 124 41 124 29.5 113 c 128,-1,76
 18 102 18 102 18 85 c 0,77,78
 18 71 18 71 26 63 c 128,-1,79
 34 55 34 55 49 55 c 0,80,81
 92 55 92 55 92 118 c 0,82,83
 92 152 92 152 86 190 c 0,84,85
 81 217 81 217 81 237 c 0,86,87
 81 316 81 316 143 348 c 1,88,89
 107 361 107 361 82.5 385.5 c 128,-1,90
 58 410 58 410 58 439 c 0,91,92
 58 470 58 470 88.5 504.5 c 128,-1,93
 119 539 119 539 179 562.5 c 128,-1,94
 239 586 239 586 321 586 c 0,95,0
 432 586 432 586 495 544.5 c 128,-1,1
139 -158 m 1,97,98
 106 -135 106 -135 78 -135 c 0,99,100
 58 -135 58 -135 45.5 -143.5 c 128,-1,101
 33 -152 33 -152 33 -167 c 0,102,103
 33 -180 33 -180 44 -188 c 128,-1,104
 55 -196 55 -196 74 -196 c 0,105,96
 112 -196 112 -196 139 -158 c 1,97,98
EndSplineSet
Substitution2: "Single Substitution lookup 14 subtable" toPatakthai.short
Substitution2: "'aalt' Access All Alternates lookup 0 subtable" toPatakthai.short
EndChar

StartChar: toPatakthai.short
Encoding: 65541 -1 449
Width: 619
GlyphClass: 2
Flags: W
AnchorPoint: "Anchor-12" 580 550 basechar 0
AnchorPoint: "Anchor-11" 475 -197 basechar 0
LayerCount: 2
Fore
SplineSet
495 544.5 m 128,-1,1
 558 503 558 503 558 416 c 0,2,3
 558 398 558 398 555 377 c 2,4,-1
 475 -197 l 1,5,-1
 353 -197 l 1,6,-1
 305 -149 l 1,7,-1
 239 -194 l 1,8,-1
 201 -154 l 1,9,10
 171 -176 171 -176 134 -188 c 128,-1,11
 97 -200 97 -200 58 -200 c 0,12,13
 8 -200 8 -200 -23 -177.5 c 128,-1,14
 -54 -155 -54 -155 -54 -119 c 0,15,16
 -54 -75 -54 -75 -15.5 -49.5 c 128,-1,17
 23 -24 23 -24 77 -24 c 0,18,19
 135 -24 135 -24 183 -56 c 1,20,21
 190 -26 190 -26 190 4 c 1,22,23
 230 4 230 4 248.5 -7.5 c 128,-1,24
 267 -19 267 -19 267 -45 c 0,25,26
 267 -80 267 -80 244 -111 c 1,27,-1
 254 -121 l 1,28,-1
 315 -86 l 1,29,-1
 367 -128 l 1,30,-1
 437 377 l 2,31,32
 439 399 439 399 439 408 c 0,33,34
 439 459 439 459 409.5 483.5 c 128,-1,35
 380 508 380 508 320 508 c 0,36,37
 278 508 278 508 243.5 496.5 c 128,-1,38
 209 485 209 485 189.5 469 c 128,-1,39
 170 453 170 453 170 440 c 0,40,41
 170 421 170 421 185 409 c 128,-1,42
 200 397 200 397 214 397 c 0,43,44
 225 397 225 397 247 403 c 0,45,46
 251 404 251 404 260 406 c 128,-1,47
 269 408 269 408 275 408 c 0,48,49
 285 408 285 408 297 387 c 128,-1,50
 309 366 309 366 309 349 c 0,51,52
 309 334 309 334 300 334 c 0,53,54
 251 334 251 334 224 311 c 128,-1,55
 197 288 197 288 197 240 c 0,56,57
 197 218 197 218 200 188 c 0,58,59
 201 177 201 177 202 161 c 128,-1,60
 203 145 203 145 203 127 c 0,61,62
 203 65 203 65 165.5 29 c 128,-1,63
 128 -7 128 -7 63 -7 c 0,64,65
 13 -7 13 -7 -14 17.5 c 128,-1,66
 -41 42 -41 42 -41 78 c 0,67,68
 -41 121 -41 121 -18 141.5 c 128,-1,69
 5 162 5 162 39 162 c 0,70,71
 58 162 58 162 68 152.5 c 128,-1,72
 78 143 78 143 77 124 c 1,73,-1
 59 124 l 2,74,75
 41 124 41 124 29.5 113 c 128,-1,76
 18 102 18 102 18 85 c 0,77,78
 18 71 18 71 26 63 c 128,-1,79
 34 55 34 55 49 55 c 0,80,81
 92 55 92 55 92 118 c 0,82,83
 92 152 92 152 86 190 c 0,84,85
 81 217 81 217 81 237 c 0,86,87
 81 316 81 316 143 348 c 1,88,89
 107 361 107 361 82.5 385.5 c 128,-1,90
 58 410 58 410 58 439 c 0,91,92
 58 470 58 470 88.5 504.5 c 128,-1,93
 119 539 119 539 179 562.5 c 128,-1,94
 239 586 239 586 321 586 c 0,95,0
 432 586 432 586 495 544.5 c 128,-1,1
156 -110 m 1,97,98
 118 -82 118 -82 86 -82 c 0,99,100
 67 -82 67 -82 54.5 -90.5 c 128,-1,101
 42 -99 42 -99 42 -114 c 0,102,103
 42 -127 42 -127 53 -135 c 128,-1,104
 64 -143 64 -143 83 -143 c 0,105,96
 128 -143 128 -143 156 -110 c 1,97,98
EndSplineSet
EndChar

StartChar: uni0E10
Encoding: 3600 3600 450
Width: 589
GlyphClass: 2
Flags: W
AnchorPoint: "Anchor-12" 545 550 basechar 0
AnchorPoint: "Anchor-11" 416 -282 basechar 0
LayerCount: 2
Fore
SplineSet
190.5 479 m 128,-1,1
 173 463 173 463 173 434 c 0,2,3
 173 424 173 424 178 411 c 1,4,5
 186 411 186 411 250 409.5 c 128,-1,6
 314 408 314 408 377 397 c 0,7,8
 434 388 434 388 463.5 358 c 128,-1,9
 493 328 493 328 493 273 c 0,10,11
 493 233 493 233 481 189 c 128,-1,12
 469 145 469 145 446 79 c 2,13,-1
 425 19 l 2,14,15
 421 7 421 7 382.5 -1 c 128,-1,16
 344 -9 344 -9 296 -9 c 0,17,18
 247 -9 247 -9 213.5 -0.5 c 128,-1,19
 180 8 180 8 181 20 c 0,20,21
 191 124 191 124 191 178 c 0,22,23
 191 200 191 200 182 211.5 c 128,-1,24
 173 223 173 223 157 223 c 0,25,26
 140 223 140 223 130 214.5 c 128,-1,27
 120 206 120 206 120 190 c 0,28,29
 120 176 120 176 127.5 167.5 c 128,-1,30
 135 159 135 159 148 159 c 0,31,32
 164 159 164 159 177 168 c 1,33,34
 182 160 182 160 182 154 c 0,35,36
 182 139 182 139 168.5 128.5 c 128,-1,37
 155 118 155 118 132 118 c 0,38,39
 99 118 99 118 77.5 138 c 128,-1,40
 56 158 56 158 56 192 c 0,41,42
 56 236 56 236 87.5 261 c 128,-1,43
 119 286 119 286 167 286 c 0,44,45
 217 286 217 286 246.5 257.5 c 128,-1,46
 276 229 276 229 277 185 c 0,47,48
 278 149 278 149 273 74 c 0,49,50
 273 64 273 64 302 64 c 0,51,52
 329 64 329 64 332 74 c 0,53,54
 353 148 353 148 363 189 c 128,-1,55
 373 230 373 230 373 254 c 0,56,57
 373 286 373 286 354 302 c 128,-1,58
 335 318 335 318 292 323 c 0,59,60
 239 329 239 329 145 329 c 2,61,-1
 76 328 l 1,62,63
 55 367 55 367 55 414 c 0,64,65
 55 489 55 489 99.5 537 c 128,-1,66
 144 585 144 585 220 585 c 0,67,68
 258 585 258 585 298 578.5 c 128,-1,69
 338 572 338 572 346 571 c 0,70,71
 403 560 403 560 431 560 c 0,72,73
 508 560 508 560 544 589 c 1,74,75
 565 562 565 562 565 534 c 0,76,77
 565 494 565 494 538 473 c 128,-1,78
 511 452 511 452 462 452 c 0,79,80
 435 452 435 452 408.5 457.5 c 128,-1,81
 382 463 382 463 341 475 c 0,82,83
 306 485 306 485 283 490 c 128,-1,84
 260 495 260 495 239 495 c 0,85,0
 208 495 208 495 190.5 479 c 128,-1,1
423 -68 m 128,-1,87
 449 -91 449 -91 449 -125 c 0,88,89
 449 -146 449 -146 443.5 -162.5 c 128,-1,90
 438 -179 438 -179 426 -204 c 0,91,92
 415 -225 415 -225 408.5 -242.5 c 128,-1,93
 402 -260 402 -260 399 -282 c 1,94,-1
 283 -282 l 1,95,-1
 243 -248 l 1,96,-1
 192 -284 l 1,97,-1
 155 -244 l 1,98,99
 132 -263 132 -263 104.5 -273.5 c 128,-1,100
 77 -284 77 -284 49 -284 c 0,101,102
 7 -284 7 -284 -19 -259.5 c 128,-1,103
 -45 -235 -45 -235 -45 -200 c 0,104,105
 -45 -159 -45 -159 -17 -136 c 128,-1,106
 11 -113 11 -113 54 -113 c 0,107,108
 95 -113 95 -113 133 -139 c 1,109,110
 139 -106 139 -106 140 -80 c 1,111,112
 178 -80 178 -80 197 -88.5 c 128,-1,113
 216 -97 216 -97 216 -121 c 0,114,115
 216 -162 216 -162 193 -200 c 1,116,-1
 205 -213 l 1,117,-1
 250 -188 l 1,118,-1
 308 -226 l 1,119,120
 314 -208 314 -208 336 -180 c 0,121,122
 349 -163 349 -163 356 -150 c 128,-1,123
 363 -137 363 -137 363 -122 c 0,124,125
 363 -109 363 -109 356 -102 c 128,-1,126
 349 -95 349 -95 337 -95 c 0,127,128
 323 -95 323 -95 314 -103.5 c 128,-1,129
 305 -112 305 -112 305 -126 c 0,130,131
 305 -138 305 -138 312 -146 c 128,-1,132
 319 -154 319 -154 333 -156 c 1,133,134
 327 -175 327 -175 303 -175 c 0,135,136
 283 -175 283 -175 269 -161 c 128,-1,137
 255 -147 255 -147 255 -125 c 0,138,139
 255 -86 255 -86 282.5 -65.5 c 128,-1,140
 310 -45 310 -45 354 -45 c 0,141,86
 397 -45 397 -45 423 -68 c 128,-1,87
110 -195 m 1,143,144
 85 -170 85 -170 62 -170 c 0,145,146
 48 -170 48 -170 38.5 -177 c 128,-1,147
 29 -184 29 -184 29 -199 c 0,148,149
 29 -212 29 -212 37.5 -219 c 128,-1,150
 46 -226 46 -226 60 -226 c 0,151,142
 89 -226 89 -226 110 -195 c 1,143,144
EndSplineSet
Substitution2: "Single Substitution lookup 14 subtable" thoThanthai.less
Substitution2: "'aalt' Access All Alternates lookup 0 subtable" thoThanthai.less
EndChar

StartChar: thoThanthai.less
Encoding: 65542 -1 451
Width: 582
GlyphClass: 2
Flags: W
AnchorPoint: "Anchor-12" 549 550 basechar 0
AnchorPoint: "Anchor-11" 448 0 basechar 0
LayerCount: 2
Fore
SplineSet
213.5 -0.5 m 128,-1,1
 180 8 180 8 181 20 c 0,2,3
 191 124 191 124 191 178 c 0,4,5
 191 200 191 200 182 211.5 c 128,-1,6
 173 223 173 223 157 223 c 0,7,8
 140 223 140 223 130 214.5 c 128,-1,9
 120 206 120 206 120 190 c 0,10,11
 120 176 120 176 127.5 167.5 c 128,-1,12
 135 159 135 159 148 159 c 0,13,14
 164 159 164 159 177 168 c 1,15,16
 182 160 182 160 182 154 c 0,17,18
 182 139 182 139 168.5 128.5 c 128,-1,19
 155 118 155 118 132 118 c 0,20,21
 99 118 99 118 77.5 138 c 128,-1,22
 56 158 56 158 56 192 c 0,23,24
 56 236 56 236 87.5 261 c 128,-1,25
 119 286 119 286 167 286 c 0,26,27
 217 286 217 286 246.5 257.5 c 128,-1,28
 276 229 276 229 277 185 c 0,29,30
 278 149 278 149 273 74 c 0,31,32
 273 64 273 64 302 64 c 0,33,34
 329 64 329 64 332 74 c 0,35,36
 353 148 353 148 363 189 c 128,-1,37
 373 230 373 230 373 254 c 0,38,39
 373 286 373 286 354 302 c 128,-1,40
 335 318 335 318 292 323 c 0,41,42
 239 329 239 329 145 329 c 2,43,-1
 76 328 l 1,44,45
 55 367 55 367 55 414 c 0,46,47
 55 489 55 489 99.5 537 c 128,-1,48
 144 585 144 585 220 585 c 0,49,50
 258 585 258 585 298 578.5 c 128,-1,51
 338 572 338 572 346 571 c 0,52,53
 403 560 403 560 431 560 c 0,54,55
 508 560 508 560 544 589 c 1,56,57
 565 562 565 562 565 534 c 0,58,59
 565 494 565 494 538 473 c 128,-1,60
 511 452 511 452 462 452 c 0,61,62
 435 452 435 452 408.5 457.5 c 128,-1,63
 382 463 382 463 341 475 c 0,64,65
 306 485 306 485 283 490 c 128,-1,66
 260 495 260 495 239 495 c 0,67,68
 208 495 208 495 190.5 479 c 128,-1,69
 173 463 173 463 173 434 c 0,70,71
 173 424 173 424 178 411 c 1,72,73
 186 411 186 411 250 409.5 c 128,-1,74
 314 408 314 408 377 397 c 0,75,76
 434 388 434 388 463.5 358 c 128,-1,77
 493 328 493 328 493 273 c 0,78,79
 493 233 493 233 481 189 c 128,-1,80
 469 145 469 145 446 79 c 2,81,-1
 425 19 l 2,82,83
 421 7 421 7 382.5 -1 c 128,-1,84
 344 -9 344 -9 296 -9 c 0,85,0
 247 -9 247 -9 213.5 -0.5 c 128,-1,1
EndSplineSet
EndChar

StartChar: uni0E11
Encoding: 3601 3601 452
Width: 672
GlyphClass: 2
Flags: W
AnchorPoint: "Anchor-12" 632 550 basechar 0
AnchorPoint: "Anchor-11" 555 0 basechar 0
LayerCount: 2
Fore
SplineSet
585 548 m 128,-1,1
 617 516 617 516 617 461 c 0,2,3
 617 452 617 452 615 432 c 2,4,-1
 555 0 l 1,5,-1
 436 0 l 1,6,-1
 492 399 l 2,7,8
 496 425 496 425 496 446 c 0,9,10
 496 469 496 469 486.5 477.5 c 128,-1,11
 477 486 477 486 457 486 c 256,12,13
 437 486 437 486 419 475.5 c 128,-1,14
 401 465 401 465 374.5 438 c 128,-1,15
 348 411 348 411 294 350 c 0,16,17
 258 309 258 309 240 276.5 c 128,-1,18
 222 244 222 244 216 202 c 2,19,-1
 187 0 l 1,20,-1
 85 0 l 2,21,22
 68 0 68 0 68 16 c 0,23,24
 68 29 68 29 74 51 c 0,25,26
 82 89 82 89 85 106 c 2,27,-1
 99 213 l 2,28,29
 104 248 104 248 118 275.5 c 128,-1,30
 132 303 132 303 148.5 322 c 128,-1,31
 165 341 165 341 199 375 c 0,32,33
 224 400 224 400 239 426.5 c 128,-1,34
 254 453 254 453 254 475 c 0,35,36
 254 506 254 506 228 506 c 0,37,38
 206 506 206 506 182 473 c 1,39,40
 174 491 174 491 164.5 499 c 128,-1,41
 155 507 155 507 139 507 c 256,42,43
 123 507 123 507 112 496.5 c 128,-1,44
 101 486 101 486 100 468 c 0,45,46
 99 451 99 451 107.5 442 c 128,-1,47
 116 433 116 433 130 433 c 256,48,49
 144 433 144 433 154 439.5 c 128,-1,50
 164 446 164 446 173 458 c 1,51,52
 187 449 187 449 187 433 c 0,53,54
 187 411 187 411 165.5 393.5 c 128,-1,55
 144 376 144 376 109 376 c 0,56,57
 72 376 72 376 47.5 398.5 c 128,-1,58
 23 421 23 421 23 462 c 0,59,60
 23 512 23 512 53.5 546 c 128,-1,61
 84 580 84 580 130 580 c 0,62,63
 158 580 158 580 173 570.5 c 128,-1,64
 188 561 188 561 198 541 c 1,65,66
 229 580 229 580 280 580 c 0,67,68
 309 580 309 580 329.5 564.5 c 128,-1,69
 350 549 350 549 357 521 c 1,70,71
 418 580 418 580 496 580 c 0,72,0
 553 580 553 580 585 548 c 128,-1,1
EndSplineSet
EndChar

StartChar: uni0E12
Encoding: 3602 3602 453
Width: 958
GlyphClass: 2
Flags: W
AnchorPoint: "Anchor-12" 901 550 basechar 0
AnchorPoint: "Anchor-11" 824 0 basechar 0
LayerCount: 2
Fore
SplineSet
905 576 m 1,0,-1
 843 134 l 2,1,2
 836 89 836 89 834 41 c 0,3,4
 833 35 833 35 833 30 c 128,-1,5
 833 25 833 25 832 20 c 0,6,7
 829 0 829 0 814 0 c 2,8,-1
 708 0 l 1,9,10
 685 63 685 63 648 103.5 c 128,-1,11
 611 144 611 144 564 162 c 1,12,-1
 558 111 l 2,13,14
 544 -9 544 -9 432 -9 c 0,15,16
 389 -9 389 -9 362 23 c 128,-1,17
 335 55 335 55 335 104 c 0,18,19
 335 157 335 157 369 193.5 c 128,-1,20
 403 230 403 230 456 242 c 1,21,-1
 473 370 l 2,22,23
 476 388 476 388 476 407 c 0,24,25
 476 444 476 444 463 465 c 128,-1,26
 450 486 450 486 417 493 c 1,27,28
 381 469 381 469 330 439 c 1,29,30
 289 466 289 466 258 493 c 1,31,32
 159 452 159 452 159 315 c 0,33,34
 159 239 159 239 197 178 c 1,35,36
 214 193 214 193 257 218 c 0,37,38
 263 221 263 221 275 229 c 0,39,40
 308 249 308 249 323 265.5 c 128,-1,41
 338 282 338 282 338 307 c 0,42,43
 338 325 338 325 328.5 334.5 c 128,-1,44
 319 344 319 344 302 344 c 0,45,46
 282 344 282 344 271 333.5 c 128,-1,47
 260 323 260 323 260 303 c 0,48,49
 260 289 260 289 267 278 c 128,-1,50
 274 267 274 267 285 261 c 1,51,52
 277 252 277 252 270 248.5 c 128,-1,53
 263 245 263 245 251 245 c 0,54,55
 231 245 231 245 216.5 262.5 c 128,-1,56
 202 280 202 280 202 305 c 0,57,58
 202 348 202 348 232 374 c 128,-1,59
 262 400 262 400 311 400 c 0,60,61
 353 400 353 400 378 374.5 c 128,-1,62
 403 349 403 349 403 310 c 0,63,64
 403 278 403 278 389 255.5 c 128,-1,65
 375 233 375 233 358 220.5 c 128,-1,66
 341 208 341 208 293 176 c 0,67,68
 249 146 249 146 226 125 c 128,-1,69
 203 104 203 104 189 75 c 128,-1,70
 175 46 175 46 169 0 c 1,71,-1
 58 0 l 2,72,73
 53 0 53 0 50.5 2 c 128,-1,74
 48 4 48 4 48 11 c 0,75,76
 49 31 49 31 57 46.5 c 128,-1,77
 65 62 65 62 83 88 c 0,78,79
 90 98 90 98 96 107.5 c 128,-1,80
 102 117 102 117 102 124 c 256,81,82
 102 131 102 131 97 141.5 c 128,-1,83
 92 152 92 152 86 165 c 0,84,85
 66 202 66 202 53.5 238 c 128,-1,86
 41 274 41 274 41 319 c 0,87,88
 41 545 41 545 261 586 c 1,89,90
 302 563 302 563 338 527 c 1,91,92
 371 554 371 554 432 586 c 1,93,94
 517 573 517 573 556 530.5 c 128,-1,95
 595 488 595 488 595 419 c 0,96,97
 595 396 595 396 592 370 c 2,98,-1
 573 236 l 1,99,100
 618 224 618 224 657.5 198 c 128,-1,101
 697 172 697 172 725 134 c 1,102,-1
 787 576 l 1,103,-1
 905 576 l 1,0,-1
435 68.5 m 128,-1,105
 441 81 441 81 443 114 c 2,106,-1
 447 169 l 1,107,108
 424 160 424 160 410 142 c 128,-1,109
 396 124 396 124 396 98 c 0,110,111
 396 56 396 56 418 56 c 0,112,104
 429 56 429 56 435 68.5 c 128,-1,105
EndSplineSet
EndChar

StartChar: uni0E13
Encoding: 3603 3603 454
Width: 939
GlyphClass: 2
Flags: W
AnchorPoint: "Anchor-12" 893 550 basechar 0
AnchorPoint: "Anchor-11" 816 0 basechar 0
LayerCount: 2
Fore
SplineSet
873.5 190 m 128,-1,1
 891 163 891 163 891 127 c 0,2,3
 891 64 891 64 852 30 c 128,-1,4
 813 -4 813 -4 753 -4 c 0,5,6
 699 -4 699 -4 666.5 26.5 c 128,-1,7
 634 57 634 57 634 104 c 0,8,9
 634 134 634 134 644 154 c 128,-1,10
 654 174 654 174 673 194 c 1,11,12
 632 187 632 187 592 157 c 128,-1,13
 552 127 552 127 524.5 84.5 c 128,-1,14
 497 42 497 42 491 0 c 1,15,-1
 390 0 l 2,16,17
 373 0 373 0 373 15 c 0,18,19
 373 16 373 16 377 40 c 0,20,21
 386 76 386 76 390 113 c 2,22,-1
 426 381 l 2,23,24
 428 401 428 401 428 410 c 0,25,26
 428 457 428 457 397 482.5 c 128,-1,27
 366 508 366 508 304 508 c 0,28,29
 259 508 259 508 226 497 c 128,-1,30
 193 486 193 486 176 470 c 128,-1,31
 159 454 159 454 159 441 c 0,32,33
 159 421 159 421 173.5 408 c 128,-1,34
 188 395 188 395 204 395 c 0,35,36
 217 395 217 395 235 399 c 0,37,38
 247 402 247 402 258 402 c 0,39,40
 268 402 268 402 282 380.5 c 128,-1,41
 296 359 296 359 296 342 c 0,42,43
 296 326 296 326 287 326 c 0,44,45
 227 326 227 326 199.5 302.5 c 128,-1,46
 172 279 172 279 164 221 c 2,47,-1
 149 118 l 2,48,49
 148 110 148 110 148 98 c 0,50,51
 148 78 148 78 158 67 c 128,-1,52
 168 56 168 56 188 56 c 0,53,54
 228 56 228 56 228 98 c 0,55,56
 228 114 228 114 219.5 123 c 128,-1,57
 211 132 211 132 196 132 c 0,58,59
 180 132 180 132 169 128 c 1,60,61
 167 134 167 134 167 137 c 0,62,63
 167 157 167 157 181.5 169.5 c 128,-1,64
 196 182 196 182 222 182 c 0,65,66
 253 182 253 182 273.5 161 c 128,-1,67
 294 140 294 140 294 106 c 0,68,69
 294 52 294 52 261.5 22.5 c 128,-1,70
 229 -7 229 -7 165 -7 c 0,71,72
 106 -7 106 -7 68.5 23 c 128,-1,73
 31 53 31 53 31 103 c 0,74,75
 31 119 31 119 32 128 c 2,76,-1
 46 221 l 2,77,78
 59 304 59 304 116 345 c 1,79,80
 89 359 89 359 68.5 385 c 128,-1,81
 48 411 48 411 48 438 c 0,82,83
 48 471 48 471 80 505.5 c 128,-1,84
 112 540 112 540 171 563 c 128,-1,85
 230 586 230 586 305 586 c 0,86,87
 426 586 426 586 486.5 542.5 c 128,-1,88
 547 499 547 499 547 417 c 0,89,90
 547 401 547 401 544 383 c 2,91,-1
 516 181 l 1,92,93
 589 262 589 262 713 262 c 0,94,95
 724 262 724 262 729 261 c 1,96,97
 738 281 738 281 741 307 c 2,98,-1
 778 576 l 1,99,-1
 897 576 l 1,100,-1
 860 315 l 2,101,102
 853 267 853 267 826 234 c 1,103,0
 856 217 856 217 873.5 190 c 128,-1,1
802.5 77.5 m 128,-1,105
 818 95 818 95 818 123 c 0,106,107
 818 167 818 167 764 186 c 1,108,109
 737 168 737 168 722.5 151 c 128,-1,110
 708 134 708 134 708 112 c 0,111,112
 708 87 708 87 721.5 73.5 c 128,-1,113
 735 60 735 60 758 60 c 0,114,104
 787 60 787 60 802.5 77.5 c 128,-1,105
EndSplineSet
EndChar

StartChar: uni0E14
Encoding: 3604 3604 455
Width: 642
GlyphClass: 2
Flags: W
AnchorPoint: "Anchor-12" 602 550 basechar 0
AnchorPoint: "Anchor-11" 525 0 basechar 0
LayerCount: 2
Fore
SplineSet
511 533.5 m 128,-1,1
 576 481 576 481 576 387 c 0,2,3
 576 362 576 362 572 338 c 2,4,-1
 525 0 l 1,5,-1
 407 0 l 1,6,-1
 453 333 l 2,7,8
 457 358 457 358 457 384 c 0,9,10
 457 445 457 445 423 476.5 c 128,-1,11
 389 508 389 508 324 508 c 0,12,13
 240 508 240 508 199.5 457.5 c 128,-1,14
 159 407 159 407 159 315 c 0,15,16
 159 237 159 237 190 179 c 1,17,18
 205 192 205 192 257 224 c 0,19,20
 264 227 264 227 276 235 c 0,21,22
 310 254 310 254 324.5 271 c 128,-1,23
 339 288 339 288 339 313 c 0,24,25
 339 347 339 347 304 347 c 0,26,27
 285 347 285 347 272.5 335 c 128,-1,28
 260 323 260 323 260 303 c 0,29,30
 260 280 260 280 285 263 c 1,31,32
 277 254 277 254 270 250.5 c 128,-1,33
 263 247 263 247 251 247 c 0,34,35
 231 247 231 247 216.5 263 c 128,-1,36
 202 279 202 279 202 304 c 0,37,38
 202 347 202 347 233 375 c 128,-1,39
 264 403 264 403 313 403 c 0,40,41
 357 403 357 403 380.5 379.5 c 128,-1,42
 404 356 404 356 404 320 c 0,43,44
 404 287 404 287 390 262 c 128,-1,45
 376 237 376 237 354 219.5 c 128,-1,46
 332 202 332 202 293 177 c 0,47,48
 246 147 246 147 222 126 c 128,-1,49
 198 105 198 105 183 75.5 c 128,-1,50
 168 46 168 46 162 0 c 1,51,-1
 52 0 l 2,52,53
 47 0 47 0 44 2 c 128,-1,54
 41 4 41 4 42 11 c 0,55,56
 44 31 44 31 53 48.5 c 128,-1,57
 62 66 62 66 77 87 c 0,58,59
 79 90 79 90 87.5 102.5 c 128,-1,60
 96 115 96 115 96 124 c 0,61,62
 96 135 96 135 81 165 c 0,63,64
 63 205 63 205 52 239.5 c 128,-1,65
 41 274 41 274 41 319 c 0,66,67
 41 399 41 399 76.5 459.5 c 128,-1,68
 112 520 112 520 177 553 c 128,-1,69
 242 586 242 586 327 586 c 0,70,0
 446 586 446 586 511 533.5 c 128,-1,1
EndSplineSet
EndChar

StartChar: uni0E15
Encoding: 3605 3605 456
Width: 650
GlyphClass: 2
Flags: W
AnchorPoint: "Anchor-12" 610 550 basechar 0
AnchorPoint: "Anchor-11" 533 0 basechar 0
LayerCount: 2
Fore
SplineSet
552.5 531.5 m 128,-1,1
 588 490 588 490 588 419 c 0,2,3
 588 396 588 396 585 370 c 2,4,-1
 533 0 l 1,5,-1
 415 0 l 1,6,-1
 467 370 l 2,7,8
 469 394 469 394 469 407 c 0,9,10
 469 443 469 443 456 463.5 c 128,-1,11
 443 484 443 484 413 493 c 1,12,13
 366 460 366 460 330 439 c 1,14,15
 289 466 289 466 258 493 c 1,16,17
 159 452 159 452 159 315 c 0,18,19
 159 246 159 246 197 178 c 1,20,21
 216 193 216 193 252 214 c 2,22,-1
 275 227 l 2,23,24
 309 247 309 247 324 264 c 128,-1,25
 339 281 339 281 339 305 c 0,26,27
 339 324 339 324 330 333.5 c 128,-1,28
 321 343 321 343 304 343 c 0,29,30
 284 343 284 343 272 331.5 c 128,-1,31
 260 320 260 320 260 301 c 0,32,33
 260 278 260 278 286 259 c 1,34,35
 278 250 278 250 270.5 246.5 c 128,-1,36
 263 243 263 243 251 243 c 0,37,38
 231 243 231 243 216.5 260 c 128,-1,39
 202 277 202 277 202 302 c 0,40,41
 202 345 202 345 233 372 c 128,-1,42
 264 399 264 399 313 399 c 0,43,44
 355 399 355 399 379.5 373.5 c 128,-1,45
 404 348 404 348 404 309 c 0,46,47
 404 280 404 280 392.5 259 c 128,-1,48
 381 238 381 238 363 223 c 128,-1,49
 345 208 345 208 312 187 c 0,50,51
 310 185 310 185 293 174 c 0,52,53
 249 145 249 145 226 124.5 c 128,-1,54
 203 104 203 104 189 75 c 128,-1,55
 175 46 175 46 169 0 c 1,56,-1
 58 0 l 2,57,58
 53 0 53 0 50.5 2 c 128,-1,59
 48 4 48 4 48 11 c 0,60,61
 49 31 49 31 57 46.5 c 128,-1,62
 65 62 65 62 83 88 c 0,63,64
 90 98 90 98 96 107.5 c 128,-1,65
 102 117 102 117 102 124 c 256,66,67
 102 131 102 131 97 141.5 c 128,-1,68
 92 152 92 152 86 165 c 0,69,70
 66 203 66 203 53.5 238.5 c 128,-1,71
 41 274 41 274 41 319 c 0,72,73
 41 545 41 545 261 586 c 1,74,75
 302 563 302 563 338 527 c 1,76,77
 377 558 377 558 429 586 c 1,78,0
 517 573 517 573 552.5 531.5 c 128,-1,1
EndSplineSet
EndChar

StartChar: uni0E16
Encoding: 3606 3606 457
Width: 612
GlyphClass: 2
Flags: W
AnchorPoint: "Anchor-12" 572 550 basechar 0
AnchorPoint: "Anchor-11" 495 0 basechar 0
LayerCount: 2
Fore
SplineSet
490 542.5 m 128,-1,1
 551 499 551 499 551 417 c 0,2,3
 551 401 551 401 548 383 c 2,4,-1
 495 0 l 1,5,-1
 376 0 l 1,6,-1
 429 381 l 2,7,8
 432 396 432 396 432 410 c 0,9,10
 432 457 432 457 400.5 482.5 c 128,-1,11
 369 508 369 508 307 508 c 0,12,13
 262 508 262 508 228.5 497 c 128,-1,14
 195 486 195 486 177 470 c 128,-1,15
 159 454 159 454 159 441 c 0,16,17
 159 421 159 421 173.5 408 c 128,-1,18
 188 395 188 395 204 395 c 0,19,20
 217 395 217 395 235 399 c 0,21,22
 247 402 247 402 258 402 c 0,23,24
 268 402 268 402 282 380.5 c 128,-1,25
 296 359 296 359 296 342 c 0,26,27
 296 326 296 326 287 326 c 0,28,29
 227 326 227 326 200 303 c 128,-1,30
 173 280 173 280 164 221 c 2,31,-1
 149 118 l 2,32,33
 148 110 148 110 148 98 c 0,34,35
 148 78 148 78 158 67 c 128,-1,36
 168 56 168 56 188 56 c 0,37,38
 228 56 228 56 228 98 c 0,39,40
 228 114 228 114 219.5 123 c 128,-1,41
 211 132 211 132 196 132 c 0,42,43
 180 132 180 132 169 128 c 1,44,45
 167 134 167 134 167 137 c 0,46,47
 167 157 167 157 181.5 169.5 c 128,-1,48
 196 182 196 182 222 182 c 0,49,50
 253 182 253 182 273.5 161 c 128,-1,51
 294 140 294 140 294 106 c 0,52,53
 294 52 294 52 261.5 22.5 c 128,-1,54
 229 -7 229 -7 165 -7 c 0,55,56
 106 -7 106 -7 68.5 23 c 128,-1,57
 31 53 31 53 31 103 c 0,58,59
 31 119 31 119 32 128 c 2,60,-1
 46 221 l 2,61,62
 59 304 59 304 116 345 c 1,63,64
 89 359 89 359 68.5 385 c 128,-1,65
 48 411 48 411 48 438 c 0,66,67
 48 471 48 471 81 505.5 c 128,-1,68
 114 540 114 540 173.5 563 c 128,-1,69
 233 586 233 586 308 586 c 0,70,0
 429 586 429 586 490 542.5 c 128,-1,1
EndSplineSet
EndChar

StartChar: uni0E17
Encoding: 3607 3607 458
Width: 698
GlyphClass: 2
Flags: W
AnchorPoint: "Anchor-12" 658 550 basechar 0
AnchorPoint: "Anchor-11" 581 0 basechar 0
LayerCount: 2
Fore
SplineSet
620.5 560.5 m 128,-1,1
 647 535 647 535 647 487 c 0,2,3
 647 479 647 479 645 459 c 2,4,-1
 581 0 l 1,5,-1
 463 0 l 1,6,-1
 521 415 l 2,7,8
 524 430 524 430 524 442 c 0,9,10
 524 477 524 477 494 477 c 0,11,12
 469 477 469 477 442 450.5 c 128,-1,13
 415 424 415 424 380 367 c 0,14,15
 311 256 311 256 278.5 179 c 128,-1,16
 246 102 246 102 236 42 c 2,17,-1
 229 0 l 1,18,-1
 122 0 l 2,19,20
 114 0 114 0 111 4 c 128,-1,21
 108 8 108 8 109 18 c 0,22,23
 110 24 110 24 116 50 c 128,-1,24
 122 76 122 76 127 112 c 2,25,-1
 176 455 l 2,26,27
 179 485 179 485 179 489 c 0,28,29
 179 505 179 505 169.5 515 c 128,-1,30
 160 525 160 525 143 525 c 0,31,32
 124 525 124 525 112.5 513 c 128,-1,33
 101 501 101 501 101 481 c 0,34,35
 101 463 101 463 111.5 453 c 128,-1,36
 122 443 122 443 140 443 c 2,37,-1
 160 443 l 1,38,39
 160 422 160 422 148 409.5 c 128,-1,40
 136 397 136 397 113 397 c 0,41,42
 83 397 83 397 61.5 418.5 c 128,-1,43
 40 440 40 440 40 474 c 0,44,45
 40 523 40 523 77.5 554.5 c 128,-1,46
 115 586 115 586 174 586 c 0,47,48
 230 586 230 586 263.5 558.5 c 128,-1,49
 297 531 297 531 297 484 c 0,50,51
 297 470 297 470 295 452 c 2,52,-1
 273 304 l 1,53,54
 317 388 317 388 356 448 c 0,55,56
 402 517 402 517 445 551.5 c 128,-1,57
 488 586 488 586 547 586 c 0,58,0
 594 586 594 586 620.5 560.5 c 128,-1,1
EndSplineSet
EndChar

StartChar: uni0E18
Encoding: 3608 3608 459
Width: 590
GlyphClass: 2
Flags: W
AnchorPoint: "Anchor-12" 533 550 basechar 0
AnchorPoint: "Anchor-11" 439 0 basechar 0
LayerCount: 2
Fore
SplineSet
90 18.5 m 128,-1,1
 42 46 42 46 42 114 c 0,2,3
 42 131 42 131 46.5 167 c 128,-1,4
 51 203 51 203 60 264 c 1,5,6
 90 271 90 271 121 271 c 0,7,8
 148 271 148 271 162 262 c 128,-1,9
 176 253 176 253 173 236 c 2,10,-1
 170 212 l 2,11,12
 160 143 160 143 160 127 c 0,13,14
 160 97 160 97 178.5 84.5 c 128,-1,15
 197 72 197 72 246 72 c 0,16,17
 307 72 307 72 332 88.5 c 128,-1,18
 357 105 357 105 364 146 c 0,19,20
 366 156 366 156 371 190 c 128,-1,21
 376 224 376 224 376 241 c 0,22,23
 376 271 376 271 360 285.5 c 128,-1,24
 344 300 344 300 308 306 c 0,25,26
 211 321 211 321 76 321 c 1,27,28
 65 337 65 337 57.5 361.5 c 128,-1,29
 50 386 50 386 50 411 c 0,30,31
 50 494 50 494 95.5 538 c 128,-1,32
 141 582 141 582 223 582 c 0,33,34
 271 582 271 582 330 573 c 0,35,36
 340 572 340 572 367.5 569 c 128,-1,37
 395 566 395 566 417 566 c 0,38,39
 493 566 493 566 533 595 c 1,40,41
 549 566 549 566 549 532 c 0,42,43
 549 497 549 497 522 477.5 c 128,-1,44
 495 458 495 458 452 458 c 0,45,46
 426 458 426 458 402 463 c 128,-1,47
 378 468 378 468 338 479 c 0,48,49
 302 489 302 489 282 493 c 128,-1,50
 262 497 262 497 242 497 c 0,51,52
 204 497 204 497 185 477.5 c 128,-1,53
 166 458 166 458 166 421 c 0,54,55
 166 410 166 410 169 401 c 1,56,57
 308 401 308 401 393 379 c 0,58,59
 443 366 443 366 469.5 338.5 c 128,-1,60
 496 311 496 311 496 258 c 0,61,62
 496 243 496 243 489 197 c 0,63,64
 487 178 487 178 483 150 c 0,65,66
 470 60 470 60 412 25.5 c 128,-1,67
 354 -9 354 -9 239 -9 c 0,68,0
 138 -9 138 -9 90 18.5 c 128,-1,1
EndSplineSet
EndChar

StartChar: uni0E19
Encoding: 3609 3609 460
Width: 670
GlyphClass: 2
Flags: W
AnchorPoint: "Anchor-12" 624 550 basechar 0
AnchorPoint: "Anchor-11" 547 0 basechar 0
LayerCount: 2
Fore
SplineSet
604.5 190 m 128,-1,1
 622 163 622 163 622 127 c 0,2,3
 622 64 622 64 583 30 c 128,-1,4
 544 -4 544 -4 484 -4 c 0,5,6
 430 -4 430 -4 397.5 26.5 c 128,-1,7
 365 57 365 57 365 104 c 0,8,9
 365 134 365 134 375 154 c 128,-1,10
 385 174 385 174 405 194 c 1,11,12
 361 188 361 188 318.5 160 c 128,-1,13
 276 132 276 132 246.5 89.5 c 128,-1,14
 217 47 217 47 210 0 c 1,15,-1
 109 0 l 2,16,17
 92 0 92 0 92 15 c 0,18,19
 92 21 92 21 97 44 c 0,20,21
 107 96 107 96 109 113 c 2,22,-1
 156 455 l 2,23,24
 159 485 159 485 159 489 c 0,25,26
 159 505 159 505 149.5 515 c 128,-1,27
 140 525 140 525 123 525 c 0,28,29
 104 525 104 525 92.5 513 c 128,-1,30
 81 501 81 501 81 481 c 0,31,32
 81 463 81 463 91.5 453 c 128,-1,33
 102 443 102 443 120 443 c 2,34,-1
 140 443 l 1,35,36
 140 422 140 422 128 409.5 c 128,-1,37
 116 397 116 397 93 397 c 0,38,39
 63 397 63 397 41.5 418.5 c 128,-1,40
 20 440 20 440 20 474 c 0,41,42
 20 523 20 523 57.5 554.5 c 128,-1,43
 95 586 95 586 154 586 c 0,44,45
 210 586 210 586 243.5 558.5 c 128,-1,46
 277 531 277 531 277 484 c 0,47,48
 277 470 277 470 275 452 c 2,49,-1
 234 173 l 1,50,51
 273 216 273 216 326.5 239 c 128,-1,52
 380 262 380 262 444 262 c 0,53,54
 455 262 455 262 460 261 c 1,55,56
 469 281 469 281 472 307 c 2,57,-1
 509 576 l 1,58,-1
 628 576 l 1,59,-1
 591 315 l 2,60,61
 584 267 584 267 557 234 c 1,62,0
 587 217 587 217 604.5 190 c 128,-1,1
533.5 77.5 m 128,-1,64
 549 95 549 95 549 123 c 0,65,66
 549 167 549 167 495 186 c 1,67,68
 468 168 468 168 453.5 151 c 128,-1,69
 439 134 439 134 439 112 c 0,70,71
 439 87 439 87 452.5 73.5 c 128,-1,72
 466 60 466 60 489 60 c 0,73,63
 518 60 518 60 533.5 77.5 c 128,-1,64
EndSplineSet
EndChar

StartChar: uni0E1A
Encoding: 3610 3610 461
Width: 692
GlyphClass: 2
Flags: W
AnchorPoint: "Anchor-12" 645 550 basechar 0
AnchorPoint: "Anchor-11" 568 0 basechar 0
LayerCount: 2
Fore
SplineSet
204 6 m 128,-1,1
 149 21 149 21 129 50 c 0,2,3
 112 76 112 76 112 119 c 0,4,5
 112 143 112 143 117 183 c 2,6,-1
 156 455 l 2,7,8
 159 470 159 470 159 489 c 0,9,10
 159 505 159 505 149.5 515 c 128,-1,11
 140 525 140 525 123 525 c 0,12,13
 104 525 104 525 92.5 513 c 128,-1,14
 81 501 81 501 81 481 c 0,15,16
 81 463 81 463 91.5 453 c 128,-1,17
 102 443 102 443 120 443 c 2,18,-1
 140 443 l 1,19,20
 140 422 140 422 128 409.5 c 128,-1,21
 116 397 116 397 93 397 c 0,22,23
 63 397 63 397 41.5 418.5 c 128,-1,24
 20 440 20 440 20 474 c 0,25,26
 20 523 20 523 57.5 554.5 c 128,-1,27
 95 586 95 586 154 586 c 0,28,29
 210 586 210 586 243.5 558.5 c 128,-1,30
 277 531 277 531 277 484 c 0,31,32
 277 470 277 470 275 452 c 2,33,-1
 235 176 l 2,34,35
 231 144 231 144 231 132 c 0,36,37
 231 106 231 106 241 95 c 0,38,39
 265 68 265 68 341 68 c 0,40,41
 416 68 416 68 446 95 c 0,42,43
 459 106 459 106 464 124 c 128,-1,44
 469 142 469 142 473 173 c 2,45,-1
 531 576 l 1,46,-1
 649 576 l 1,47,-1
 594 190 l 2,48,49
 586 132 586 132 575.5 102 c 128,-1,50
 565 72 565 72 543 50 c 0,51,52
 513 22 513 22 453 6.5 c 128,-1,53
 393 -9 393 -9 330 -9 c 0,54,0
 259 -9 259 -9 204 6 c 128,-1,1
EndSplineSet
EndChar

StartChar: uni0E1B
Encoding: 3611 3611 462
Width: 692
GlyphClass: 2
Flags: W
AnchorPoint: "Anchor-12" 470 550 basechar 0
AnchorPoint: "Anchor-11" 568 0 basechar 0
LayerCount: 2
Fore
SplineSet
204 6 m 128,-1,1
 149 21 149 21 129 50 c 0,2,3
 112 76 112 76 112 119 c 0,4,5
 112 143 112 143 117 183 c 2,6,-1
 156 455 l 2,7,8
 159 485 159 485 159 489 c 0,9,10
 159 505 159 505 149.5 515 c 128,-1,11
 140 525 140 525 123 525 c 0,12,13
 104 525 104 525 92.5 513 c 128,-1,14
 81 501 81 501 81 481 c 0,15,16
 81 463 81 463 91.5 453 c 128,-1,17
 102 443 102 443 120 443 c 2,18,-1
 140 443 l 1,19,20
 140 422 140 422 128 409.5 c 128,-1,21
 116 397 116 397 93 397 c 0,22,23
 63 397 63 397 41.5 418.5 c 128,-1,24
 20 440 20 440 20 474 c 0,25,26
 20 523 20 523 57.5 554.5 c 128,-1,27
 95 586 95 586 154 586 c 0,28,29
 210 586 210 586 243.5 558.5 c 128,-1,30
 277 531 277 531 277 484 c 0,31,32
 277 470 277 470 275 452 c 2,33,-1
 235 176 l 2,34,35
 231 144 231 144 231 132 c 0,36,37
 231 106 231 106 241 95 c 0,38,39
 265 68 265 68 341 68 c 0,40,41
 416 68 416 68 446 95 c 0,42,43
 459 106 459 106 464 124 c 128,-1,44
 469 142 469 142 473 173 c 2,45,-1
 560 783 l 1,46,-1
 678 783 l 1,47,-1
 594 190 l 2,48,49
 586 132 586 132 575.5 102 c 128,-1,50
 565 72 565 72 543 50 c 0,51,52
 513 22 513 22 453 6.5 c 128,-1,53
 393 -9 393 -9 330 -9 c 0,54,0
 259 -9 259 -9 204 6 c 128,-1,1
EndSplineSet
EndChar

StartChar: uni0E1C
Encoding: 3612 3612 463
Width: 651
GlyphClass: 2
Flags: W
AnchorPoint: "Anchor-12" 600 550 basechar 0
AnchorPoint: "Anchor-11" 523 0 basechar 0
LayerCount: 2
Fore
SplineSet
604 576 m 1,0,-1
 541 132 l 2,1,2
 533 75 533 75 532 52.5 c 128,-1,3
 531 30 531 30 530 22 c 0,4,5
 529 10 529 10 525 5 c 128,-1,6
 521 0 521 0 512 0 c 2,7,-1
 408 0 l 1,8,9
 411 21 411 21 411 33 c 0,10,11
 411 79 411 79 381.5 131.5 c 128,-1,12
 352 184 352 184 299 232 c 1,13,14
 226 179 226 179 177 121 c 128,-1,15
 128 63 128 63 122 14 c 2,16,-1
 120 0 l 1,17,-1
 15 0 l 2,18,19
 6 0 6 0 2.5 3 c 128,-1,20
 -1 6 -1 6 -1 14 c 0,21,22
 -1 24 -1 24 7 50 c 0,23,24
 21 106 21 106 25 135 c 2,25,-1
 68 443 l 2,26,27
 77 510 77 510 117.5 548 c 128,-1,28
 158 586 158 586 222 586 c 0,29,30
 281 586 281 586 312.5 561.5 c 128,-1,31
 344 537 344 537 344 495 c 0,32,33
 344 446 344 446 316.5 419 c 128,-1,34
 289 392 289 392 247 392 c 0,35,36
 224 392 224 392 210 402 c 128,-1,37
 196 412 196 412 196 427 c 0,38,39
 196 437 196 437 202 445 c 1,40,41
 215 440 215 440 233 440 c 0,42,43
 253 440 253 440 264.5 451.5 c 128,-1,44
 276 463 276 463 276 484 c 0,45,46
 276 499 276 499 266.5 508 c 128,-1,47
 257 517 257 517 240 517 c 0,48,49
 219 517 219 517 206 502.5 c 128,-1,50
 193 488 193 488 188 462 c 2,51,-1
 152 205 l 1,52,53
 206 271 206 271 304 333 c 1,54,-1
 315 333 l 1,55,56
 396 265 396 265 431 189 c 1,57,-1
 486 576 l 1,58,-1
 604 576 l 1,0,-1
EndSplineSet
EndChar

StartChar: uni0E1D
Encoding: 3613 3613 464
Width: 651
GlyphClass: 2
Flags: W
AnchorPoint: "Anchor-12" 429 550 basechar 0
AnchorPoint: "Anchor-11" 523 0 basechar 0
LayerCount: 2
Fore
SplineSet
634 783 m 1,0,-1
 541 132 l 2,1,2
 533 76 533 76 532 53 c 128,-1,3
 531 30 531 30 530 22 c 0,4,5
 529 10 529 10 525 5 c 128,-1,6
 521 0 521 0 512 0 c 2,7,-1
 408 0 l 1,8,9
 411 21 411 21 411 33 c 0,10,11
 411 79 411 79 381.5 131.5 c 128,-1,12
 352 184 352 184 299 232 c 1,13,14
 226 179 226 179 177 121 c 128,-1,15
 128 63 128 63 122 14 c 2,16,-1
 120 0 l 1,17,-1
 15 0 l 2,18,19
 6 0 6 0 2.5 3 c 128,-1,20
 -1 6 -1 6 -1 14 c 0,21,22
 -1 24 -1 24 7 50 c 0,23,24
 21 106 21 106 25 135 c 2,25,-1
 68 443 l 2,26,27
 77 510 77 510 117.5 548 c 128,-1,28
 158 586 158 586 222 586 c 0,29,30
 281 586 281 586 312.5 561.5 c 128,-1,31
 344 537 344 537 344 495 c 0,32,33
 344 446 344 446 316.5 419 c 128,-1,34
 289 392 289 392 247 392 c 0,35,36
 224 392 224 392 210 402 c 128,-1,37
 196 412 196 412 196 427 c 0,38,39
 196 437 196 437 202 445 c 1,40,41
 215 440 215 440 233 440 c 0,42,43
 253 440 253 440 264.5 451.5 c 128,-1,44
 276 463 276 463 276 484 c 0,45,46
 276 499 276 499 266.5 508 c 128,-1,47
 257 517 257 517 240 517 c 0,48,49
 219 517 219 517 206 502.5 c 128,-1,50
 193 488 193 488 188 462 c 2,51,-1
 152 205 l 1,52,53
 206 271 206 271 304 333 c 1,54,-1
 315 333 l 1,55,56
 396 265 396 265 431 189 c 1,57,-1
 515 783 l 1,58,-1
 634 783 l 1,0,-1
EndSplineSet
EndChar

StartChar: uni0E1E
Encoding: 3614 3614 465
Width: 758
GlyphClass: 2
Flags: W
AnchorPoint: "Anchor-12" 708 550 basechar 0
AnchorPoint: "Anchor-11" 631 0 basechar 0
LayerCount: 2
Fore
SplineSet
712 576 m 1,0,-1
 657 190 l 2,1,2
 641 74 641 74 638 20 c 0,3,4
 635 0 635 0 621 0 c 2,5,-1
 514 0 l 1,6,7
 518 28 518 28 518 38 c 0,8,9
 518 93 518 93 489 182.5 c 128,-1,10
 460 272 460 272 418 358 c 1,11,12
 345 256 345 256 290 160.5 c 128,-1,13
 235 65 235 65 228 14 c 2,14,-1
 226 0 l 1,15,-1
 118 0 l 2,16,17
 106 0 106 0 106 14 c 0,18,19
 106 19 106 19 111 46 c 0,20,21
 124 96 124 96 138 190 c 2,22,-1
 176 455 l 2,23,24
 179 485 179 485 179 489 c 0,25,26
 179 505 179 505 169.5 515 c 128,-1,27
 160 525 160 525 143 525 c 0,28,29
 124 525 124 525 112.5 513 c 128,-1,30
 101 501 101 501 101 481 c 0,31,32
 101 463 101 463 111.5 453 c 128,-1,33
 122 443 122 443 140 443 c 2,34,-1
 160 443 l 1,35,36
 160 422 160 422 148 409.5 c 128,-1,37
 136 397 136 397 113 397 c 0,38,39
 83 397 83 397 61.5 418.5 c 128,-1,40
 40 440 40 440 40 474 c 0,41,42
 40 523 40 523 77.5 554.5 c 128,-1,43
 115 586 115 586 174 586 c 0,44,45
 230 586 230 586 263.5 558.5 c 128,-1,46
 297 531 297 531 297 484 c 0,47,48
 297 470 297 470 295 452 c 2,49,-1
 267 263 l 1,50,51
 327 387 327 387 426 520 c 1,52,-1
 440 520 l 1,53,54
 474 461 474 461 503 390 c 128,-1,55
 532 319 532 319 548 256 c 1,56,-1
 593 576 l 1,57,-1
 712 576 l 1,0,-1
EndSplineSet
EndChar

StartChar: uni0E1F
Encoding: 3615 3615 466
Width: 758
GlyphClass: 2
Flags: W
AnchorPoint: "Anchor-12" 538 550 basechar 0
AnchorPoint: "Anchor-11" 631 0 basechar 0
LayerCount: 2
Fore
SplineSet
740 783 m 1,0,-1
 657 190 l 2,1,2
 641 74 641 74 638 20 c 0,3,4
 635 0 635 0 621 0 c 2,5,-1
 514 0 l 1,6,7
 518 28 518 28 518 38 c 0,8,9
 518 93 518 93 489 182.5 c 128,-1,10
 460 272 460 272 418 358 c 1,11,12
 345 256 345 256 290 160.5 c 128,-1,13
 235 65 235 65 228 14 c 2,14,-1
 226 0 l 1,15,-1
 118 0 l 2,16,17
 106 0 106 0 106 14 c 0,18,19
 106 19 106 19 111 46 c 0,20,21
 124 96 124 96 138 190 c 2,22,-1
 176 455 l 2,23,24
 179 485 179 485 179 489 c 0,25,26
 179 505 179 505 169.5 515 c 128,-1,27
 160 525 160 525 143 525 c 0,28,29
 124 525 124 525 112.5 513 c 128,-1,30
 101 501 101 501 101 481 c 0,31,32
 101 463 101 463 111.5 453 c 128,-1,33
 122 443 122 443 140 443 c 2,34,-1
 160 443 l 1,35,36
 160 422 160 422 148 409.5 c 128,-1,37
 136 397 136 397 113 397 c 0,38,39
 83 397 83 397 61.5 418.5 c 128,-1,40
 40 440 40 440 40 474 c 0,41,42
 40 523 40 523 77.5 554.5 c 128,-1,43
 115 586 115 586 174 586 c 0,44,45
 230 586 230 586 263.5 558.5 c 128,-1,46
 297 531 297 531 297 484 c 0,47,48
 297 470 297 470 295 452 c 2,49,-1
 267 263 l 1,50,51
 327 387 327 387 426 520 c 1,52,-1
 440 520 l 1,53,54
 474 461 474 461 503 390 c 128,-1,55
 532 319 532 319 548 256 c 1,56,-1
 622 783 l 1,57,-1
 740 783 l 1,0,-1
EndSplineSet
EndChar

StartChar: uni0E20
Encoding: 3616 3616 467
Width: 620
GlyphClass: 2
Flags: W
AnchorPoint: "Anchor-12" 580 550 basechar 0
AnchorPoint: "Anchor-11" 503 0 basechar 0
LayerCount: 2
Fore
SplineSet
495 544.5 m 128,-1,1
 558 503 558 503 558 416 c 0,2,3
 558 398 558 398 555 377 c 2,4,-1
 503 0 l 1,5,-1
 385 0 l 1,6,-1
 437 377 l 2,7,8
 439 399 439 399 439 408 c 0,9,10
 439 459 439 459 409.5 483.5 c 128,-1,11
 380 508 380 508 320 508 c 0,12,13
 278 508 278 508 243.5 496.5 c 128,-1,14
 209 485 209 485 189.5 469 c 128,-1,15
 170 453 170 453 170 440 c 0,16,17
 170 421 170 421 185 409 c 128,-1,18
 200 397 200 397 214 397 c 0,19,20
 225 397 225 397 247 403 c 0,21,22
 251 404 251 404 260 406 c 128,-1,23
 269 408 269 408 275 408 c 0,24,25
 285 408 285 408 297 387 c 128,-1,26
 309 366 309 366 309 349 c 0,27,28
 309 334 309 334 300 334 c 0,29,30
 251 334 251 334 224 311 c 128,-1,31
 197 288 197 288 197 240 c 0,32,33
 197 218 197 218 200 188 c 0,34,35
 201 177 201 177 202 161 c 128,-1,36
 203 145 203 145 203 127 c 0,37,38
 203 65 203 65 165.5 29 c 128,-1,39
 128 -7 128 -7 63 -7 c 0,40,41
 13 -7 13 -7 -14 17.5 c 128,-1,42
 -41 42 -41 42 -41 78 c 0,43,44
 -41 121 -41 121 -18 141.5 c 128,-1,45
 5 162 5 162 39 162 c 0,46,47
 58 162 58 162 68 152.5 c 128,-1,48
 78 143 78 143 77 124 c 1,49,-1
 59 124 l 2,50,51
 41 124 41 124 29.5 113 c 128,-1,52
 18 102 18 102 18 85 c 0,53,54
 18 71 18 71 26 63 c 128,-1,55
 34 55 34 55 49 55 c 0,56,57
 92 55 92 55 92 118 c 0,58,59
 92 152 92 152 86 190 c 0,60,61
 81 217 81 217 81 237 c 0,62,63
 81 316 81 316 143 348 c 1,64,65
 107 361 107 361 82.5 385.5 c 128,-1,66
 58 410 58 410 58 439 c 0,67,68
 58 470 58 470 88.5 504.5 c 128,-1,69
 119 539 119 539 179 562.5 c 128,-1,70
 239 586 239 586 321 586 c 0,71,0
 432 586 432 586 495 544.5 c 128,-1,1
EndSplineSet
EndChar

StartChar: uni0E21
Encoding: 3617 3617 468
Width: 690
GlyphClass: 2
Flags: W
AnchorPoint: "Anchor-12" 633 550 basechar 0
AnchorPoint: "Anchor-11" 556 0 basechar 0
LayerCount: 2
Fore
SplineSet
637 576 m 1,0,-1
 575 138 l 2,1,2
 568 77 568 77 566 44 c 0,3,4
 564 18 564 18 564 20 c 1,5,6
 561 0 561 0 546 0 c 2,7,-1
 440 0 l 1,8,9
 433 56 433 56 408.5 97.5 c 128,-1,10
 384 139 384 139 349.5 162.5 c 128,-1,11
 315 186 315 186 278 190 c 1,12,-1
 275 161 l 2,13,14
 273 137 273 137 271 120 c 0,15,16
 253 -9 253 -9 128 -9 c 0,17,18
 78 -9 78 -9 49.5 18.5 c 128,-1,19
 21 46 21 46 21 95 c 0,20,21
 21 143 21 143 42 180 c 128,-1,22
 63 217 63 217 97.5 239 c 128,-1,23
 132 261 132 261 171 265 c 1,24,25
 172 288 172 288 176 313 c 2,26,-1
 196 455 l 2,27,28
 199 485 199 485 199 489 c 0,29,30
 199 505 199 505 189.5 515 c 128,-1,31
 180 525 180 525 163 525 c 0,32,33
 144 525 144 525 132.5 513 c 128,-1,34
 121 501 121 501 121 481 c 0,35,36
 121 463 121 463 131.5 453 c 128,-1,37
 142 443 142 443 160 443 c 2,38,-1
 180 443 l 1,39,40
 180 422 180 422 168 409.5 c 128,-1,41
 156 397 156 397 133 397 c 0,42,43
 103 397 103 397 81.5 418.5 c 128,-1,44
 60 440 60 440 60 474 c 0,45,46
 60 523 60 523 97.5 554.5 c 128,-1,47
 135 586 135 586 194 586 c 0,48,49
 250 586 250 586 283.5 558.5 c 128,-1,50
 317 531 317 531 317 484 c 0,51,52
 317 470 317 470 315 452 c 2,53,-1
 288 267 l 1,54,55
 338 262 338 262 385.5 232.5 c 128,-1,56
 433 203 433 203 459 155 c 1,57,-1
 519 576 l 1,58,-1
 637 576 l 1,0,-1
162 194 m 1,60,61
 128 187 128 187 109 161.5 c 128,-1,62
 90 136 90 136 90 96 c 256,63,64
 90 56 90 56 118 56 c 0,65,66
 134 56 134 56 142.5 70.5 c 128,-1,67
 151 85 151 85 157 125 c 0,68,59
 161 171 161 171 162 194 c 1,60,61
EndSplineSet
EndChar

StartChar: uni0E22
Encoding: 3618 3618 469
Width: 643
GlyphClass: 2
Flags: W
AnchorPoint: "Anchor-12" 597 550 basechar 0
AnchorPoint: "Anchor-11" 520 0 basechar 0
LayerCount: 2
Fore
SplineSet
601 576 m 1,0,-1
 552 231 l 2,1,2
 542 158 542 158 526.5 116 c 128,-1,3
 511 74 511 74 476 46 c 0,4,5
 406 -9 406 -9 268 -9 c 0,6,7
 125 -9 125 -9 71 46 c 0,8,9
 36 81 36 81 36 132 c 0,10,11
 36 149 36 149 41 184 c 0,12,13
 55 264 55 264 137 290 c 1,14,15
 106 305 106 305 85 339 c 128,-1,16
 64 373 64 373 64 418 c 0,17,18
 64 470 64 470 87.5 508 c 128,-1,19
 111 546 111 546 151.5 566 c 128,-1,20
 192 586 192 586 241 586 c 0,21,22
 295 586 295 586 322.5 560.5 c 128,-1,23
 350 535 350 535 350 497 c 0,24,25
 350 454 350 454 324 429.5 c 128,-1,26
 298 405 298 405 255 405 c 0,27,28
 231 405 231 405 216.5 416 c 128,-1,29
 202 427 202 427 202 443 c 0,30,31
 202 453 202 453 208 465 c 1,32,33
 224 453 224 453 244 453 c 0,34,35
 263 453 263 453 274.5 463.5 c 128,-1,36
 286 474 286 474 286 493 c 0,37,38
 286 508 286 508 277 516.5 c 128,-1,39
 268 525 268 525 252 525 c 0,40,41
 215 525 215 525 194.5 497 c 128,-1,42
 174 469 174 469 174 426 c 0,43,44
 174 372 174 372 211.5 348 c 128,-1,45
 249 324 249 324 339 324 c 0,46,47
 346 324 346 324 346 315 c 0,48,49
 346 304 346 304 337.5 286.5 c 128,-1,50
 329 269 329 269 316 256 c 128,-1,51
 303 243 303 243 292 243 c 0,52,53
 282 243 282 243 262 249 c 0,54,55
 232 256 232 256 218 256 c 0,56,57
 197 256 197 256 180.5 235.5 c 128,-1,58
 164 215 164 215 160 185 c 0,59,60
 155 158 155 158 155 144 c 0,61,62
 155 116 155 116 168 102 c 0,63,64
 181 86 181 86 207.5 79 c 128,-1,65
 234 72 234 72 276 72 c 0,66,67
 319 72 319 72 346.5 79 c 128,-1,68
 374 86 374 86 392 102 c 0,69,70
 410 116 410 116 418 144 c 128,-1,71
 426 172 426 172 433 224 c 2,72,-1
 482 576 l 1,73,-1
 601 576 l 1,0,-1
EndSplineSet
EndChar

StartChar: uni0E23
Encoding: 3619 3619 470
Width: 528
GlyphClass: 2
Flags: W
AnchorPoint: "Anchor-12" 487 550 basechar 0
AnchorPoint: "Anchor-11" 382 0 basechar 0
LayerCount: 2
Fore
SplineSet
156 20.5 m 128,-1,1
 126 49 126 49 126 92 c 0,2,3
 126 137 126 137 152 162.5 c 128,-1,4
 178 188 178 188 216 188 c 0,5,6
 242 188 242 188 254 175 c 128,-1,7
 266 162 266 162 264 138 c 1,8,9
 240 141 240 141 235 141 c 0,10,11
 216 141 216 141 203.5 129.5 c 128,-1,12
 191 118 191 118 191 98 c 0,13,14
 191 82 191 82 201 72.5 c 128,-1,15
 211 63 211 63 229 63 c 0,16,17
 254 63 254 63 267.5 78.5 c 128,-1,18
 281 94 281 94 288 129 c 0,19,20
 300 200 300 200 300 219 c 0,21,22
 300 256 300 256 281.5 275 c 128,-1,23
 263 294 263 294 228 300 c 0,24,25
 181 309 181 309 143.5 312 c 128,-1,26
 106 315 106 315 59 314 c 1,27,28
 49 328 49 328 43 350.5 c 128,-1,29
 37 373 37 373 37 399 c 0,30,31
 37 455 37 455 62 496.5 c 128,-1,32
 87 538 87 538 129 560 c 128,-1,33
 171 582 171 582 222 582 c 0,34,35
 265 582 265 582 317 573 c 0,36,37
 325 572 325 572 348.5 569 c 128,-1,38
 372 566 372 566 391 566 c 0,39,40
 450 566 450 566 490 595 c 1,41,42
 504 575 504 575 504 542 c 0,43,44
 504 505 504 505 477 481.5 c 128,-1,45
 450 458 450 458 406 458 c 0,46,47
 383 458 383 458 362 463.5 c 128,-1,48
 341 469 341 469 311 479 c 0,49,50
 283 488 283 488 266 492.5 c 128,-1,51
 249 497 249 497 231 497 c 0,52,53
 195 497 195 497 174.5 476 c 128,-1,54
 154 455 154 455 154 416 c 0,55,56
 154 403 154 403 157 395 c 1,57,58
 237 394 237 394 314 374 c 0,59,60
 420 347 420 347 420 237 c 0,61,62
 420 202 420 202 406 132 c 0,63,64
 394 62 394 62 351 27 c 128,-1,65
 308 -8 308 -8 238 -8 c 0,66,0
 186 -8 186 -8 156 20.5 c 128,-1,1
EndSplineSet
EndChar

StartChar: uni0E24
Encoding: 3620 3620 471
Width: 612
GlyphClass: 2
Flags: W
AnchorPoint: "Anchor-12" 572 550 basechar 0
AnchorPoint: "Anchor-11" 464 -220 basechar 0
LayerCount: 2
Fore
SplineSet
429 381 m 2,0,1
 432 396 432 396 432 410 c 0,2,3
 432 457 432 457 400.5 482.5 c 128,-1,4
 369 508 369 508 307 508 c 0,5,6
 262 508 262 508 228.5 497 c 128,-1,7
 195 486 195 486 177 470 c 128,-1,8
 159 454 159 454 159 441 c 0,9,10
 159 421 159 421 173.5 408 c 128,-1,11
 188 395 188 395 204 395 c 0,12,13
 217 395 217 395 235 399 c 0,14,15
 247 402 247 402 258 402 c 0,16,17
 268 402 268 402 282 380.5 c 128,-1,18
 296 359 296 359 296 342 c 0,19,20
 296 326 296 326 287 326 c 0,21,22
 227 326 227 326 200 303 c 128,-1,23
 173 280 173 280 164 221 c 2,24,-1
 149 118 l 2,25,26
 148 110 148 110 148 98 c 0,27,28
 148 78 148 78 158 67 c 128,-1,29
 168 56 168 56 188 56 c 0,30,31
 228 56 228 56 228 98 c 0,32,33
 228 114 228 114 219.5 123 c 128,-1,34
 211 132 211 132 196 132 c 0,35,36
 180 132 180 132 169 128 c 1,37,38
 167 134 167 134 167 137 c 0,39,40
 167 157 167 157 181.5 169.5 c 128,-1,41
 196 182 196 182 222 182 c 0,42,43
 253 182 253 182 273.5 161 c 128,-1,44
 294 140 294 140 294 106 c 0,45,46
 294 52 294 52 261.5 22.5 c 128,-1,47
 229 -7 229 -7 165 -7 c 0,48,49
 106 -7 106 -7 68.5 23 c 128,-1,50
 31 53 31 53 31 103 c 0,51,52
 31 119 31 119 32 128 c 2,53,-1
 46 221 l 2,54,55
 59 305 59 305 116 345 c 1,56,57
 88 360 88 360 68 385.5 c 128,-1,58
 48 411 48 411 48 438 c 0,59,60
 48 471 48 471 81 505.5 c 128,-1,61
 114 540 114 540 173.5 563 c 128,-1,62
 233 586 233 586 308 586 c 0,63,64
 429 586 429 586 490 542.5 c 128,-1,65
 551 499 551 499 551 417 c 0,66,67
 551 401 551 401 548 383 c 2,68,-1
 464 -220 l 1,69,-1
 345 -220 l 1,70,-1
 429 381 l 2,0,1
EndSplineSet
Substitution2: "Single Substitution lookup 14 subtable" uni0E24.short
Substitution2: "'aalt' Access All Alternates lookup 0 subtable" uni0E24.short
EndChar

StartChar: uni0E24.short
Encoding: 65543 -1 472
Width: 611
GlyphClass: 2
Flags: W
AnchorPoint: "Anchor-12" 572 550 basechar 0
AnchorPoint: "Anchor-11" 472 -160 basechar 0
LayerCount: 2
Fore
SplineSet
429 381 m 2,0,1
 432 396 432 396 432 410 c 0,2,3
 432 457 432 457 400.5 482.5 c 128,-1,4
 369 508 369 508 307 508 c 0,5,6
 262 508 262 508 228.5 497 c 128,-1,7
 195 486 195 486 177 470 c 128,-1,8
 159 454 159 454 159 441 c 0,9,10
 159 421 159 421 173.5 408 c 128,-1,11
 188 395 188 395 204 395 c 0,12,13
 217 395 217 395 235 399 c 0,14,15
 247 402 247 402 258 402 c 0,16,17
 268 402 268 402 282 380.5 c 128,-1,18
 296 359 296 359 296 342 c 0,19,20
 296 326 296 326 287 326 c 0,21,22
 227 326 227 326 200 303 c 128,-1,23
 173 280 173 280 164 221 c 2,24,-1
 149 118 l 2,25,26
 148 110 148 110 148 98 c 0,27,28
 148 78 148 78 158 67 c 128,-1,29
 168 56 168 56 188 56 c 0,30,31
 228 56 228 56 228 98 c 0,32,33
 228 114 228 114 219.5 123 c 128,-1,34
 211 132 211 132 196 132 c 0,35,36
 180 132 180 132 169 128 c 1,37,38
 167 134 167 134 167 137 c 0,39,40
 167 157 167 157 181.5 169.5 c 128,-1,41
 196 182 196 182 222 182 c 0,42,43
 253 182 253 182 273.5 161 c 128,-1,44
 294 140 294 140 294 106 c 0,45,46
 294 52 294 52 261.5 22.5 c 128,-1,47
 229 -7 229 -7 165 -7 c 0,48,49
 106 -7 106 -7 68.5 23 c 128,-1,50
 31 53 31 53 31 103 c 0,51,52
 31 119 31 119 32 128 c 2,53,-1
 46 221 l 2,54,55
 59 305 59 305 116 345 c 1,56,57
 88 360 88 360 68 385.5 c 128,-1,58
 48 411 48 411 48 438 c 0,59,60
 48 471 48 471 81 505.5 c 128,-1,61
 114 540 114 540 173.5 563 c 128,-1,62
 233 586 233 586 308 586 c 0,63,64
 429 586 429 586 490 542.5 c 128,-1,65
 551 499 551 499 551 417 c 0,66,67
 551 401 551 401 548 383 c 2,68,-1
 472 -160 l 1,69,-1
 353 -160 l 1,70,-1
 429 381 l 2,0,1
EndSplineSet
EndChar

StartChar: uni0E25
Encoding: 3621 3621 473
Width: 638
GlyphClass: 2
Flags: W
AnchorPoint: "Anchor-12" 586 550 basechar 0
AnchorPoint: "Anchor-11" 508 0 basechar 0
LayerCount: 2
Fore
SplineSet
452.5 565.5 m 128,-1,1
 507 545 507 545 537.5 506 c 128,-1,2
 568 467 568 467 568 416 c 0,3,4
 568 391 568 391 562 358 c 128,-1,5
 556 325 556 325 544 274 c 0,6,7
 528 202 528 202 524 177 c 0,8,9
 521 157 521 157 517 91 c 0,10,11
 515 44 515 44 512 19 c 0,12,13
 510 0 510 0 498 0 c 2,14,-1
 386 0 l 1,15,16
 394 62 394 62 394 104 c 0,17,18
 394 203 394 203 361 250.5 c 128,-1,19
 328 298 328 298 271 298 c 0,20,21
 209 298 209 298 179 254.5 c 128,-1,22
 149 211 149 211 149 140 c 0,23,24
 149 100 149 100 162.5 77.5 c 128,-1,25
 176 55 176 55 200 55 c 0,26,27
 220 55 220 55 230 66 c 128,-1,28
 240 77 240 77 240 96 c 0,29,30
 240 127 240 127 209 127 c 0,31,32
 190 127 190 127 175 118 c 1,33,34
 173 124 173 124 173 130 c 0,35,36
 173 148 173 148 188 161 c 128,-1,37
 203 174 203 174 228 174 c 0,38,39
 259 174 259 174 281 153 c 128,-1,40
 303 132 303 132 303 100 c 0,41,42
 303 48 303 48 272.5 19.5 c 128,-1,43
 242 -9 242 -9 185 -9 c 0,44,45
 121 -9 121 -9 78.5 31.5 c 128,-1,46
 36 72 36 72 36 143 c 0,47,48
 36 211 36 211 65 265 c 128,-1,49
 94 319 94 319 145.5 349 c 128,-1,50
 197 379 197 379 261 379 c 0,51,52
 324 379 324 379 365.5 353.5 c 128,-1,53
 407 328 407 328 427 284 c 1,54,55
 446 371 446 371 446 403 c 0,56,57
 446 450 446 450 415.5 474.5 c 128,-1,58
 385 499 385 499 327 499 c 0,59,60
 277 499 277 499 238.5 483.5 c 128,-1,61
 200 468 200 468 161 440 c 0,62,63
 153 434 153 434 144.5 430 c 128,-1,64
 136 426 136 426 128 426 c 0,65,66
 113 426 113 426 96.5 446 c 128,-1,67
 80 466 80 466 71 497 c 1,68,69
 119 536 119 536 185 561 c 128,-1,70
 251 586 251 586 330 586 c 0,71,0
 398 586 398 586 452.5 565.5 c 128,-1,1
EndSplineSet
EndChar

StartChar: uni0E26
Encoding: 3622 3622 474
Width: 620
GlyphClass: 2
Flags: W
AnchorPoint: "Anchor-12" 580 550 basechar 0
AnchorPoint: "Anchor-11" 472 -220 basechar 0
LayerCount: 2
Fore
SplineSet
437 377 m 2,0,1
 439 399 439 399 439 408 c 0,2,3
 439 459 439 459 409.5 483.5 c 128,-1,4
 380 508 380 508 320 508 c 0,5,6
 278 508 278 508 243.5 496.5 c 128,-1,7
 209 485 209 485 189.5 469 c 128,-1,8
 170 453 170 453 170 440 c 0,9,10
 170 421 170 421 185 409 c 128,-1,11
 200 397 200 397 214 397 c 0,12,13
 225 397 225 397 247 403 c 0,14,15
 251 404 251 404 260 406 c 128,-1,16
 269 408 269 408 275 408 c 0,17,18
 285 408 285 408 297 387 c 128,-1,19
 309 366 309 366 309 349 c 0,20,21
 309 334 309 334 300 334 c 0,22,23
 251 334 251 334 224 311 c 128,-1,24
 197 288 197 288 197 240 c 0,25,26
 197 218 197 218 200 188 c 0,27,28
 201 177 201 177 202 161 c 128,-1,29
 203 145 203 145 203 127 c 0,30,31
 203 65 203 65 165.5 29 c 128,-1,32
 128 -7 128 -7 63 -7 c 0,33,34
 13 -7 13 -7 -14 17.5 c 128,-1,35
 -41 42 -41 42 -41 78 c 0,36,37
 -41 121 -41 121 -18 141.5 c 128,-1,38
 5 162 5 162 39 162 c 0,39,40
 58 162 58 162 68 152.5 c 128,-1,41
 78 143 78 143 77 124 c 1,42,-1
 59 124 l 2,43,44
 41 124 41 124 29.5 113 c 128,-1,45
 18 102 18 102 18 85 c 0,46,47
 18 71 18 71 26 63 c 128,-1,48
 34 55 34 55 49 55 c 0,49,50
 92 55 92 55 92 118 c 0,51,52
 92 152 92 152 86 190 c 0,53,54
 81 217 81 217 81 237 c 0,55,56
 81 316 81 316 141 348 c 1,57,58
 106 361 106 361 82 385.5 c 128,-1,59
 58 410 58 410 58 439 c 0,60,61
 58 470 58 470 88.5 504.5 c 128,-1,62
 119 539 119 539 179 562.5 c 128,-1,63
 239 586 239 586 321 586 c 0,64,65
 432 586 432 586 495 544.5 c 128,-1,66
 558 503 558 503 558 416 c 0,67,68
 558 398 558 398 555 377 c 2,69,-1
 472 -220 l 1,70,-1
 354 -220 l 1,71,-1
 437 377 l 2,0,1
EndSplineSet
Substitution2: "Single Substitution lookup 14 subtable" uni0E26.short
Substitution2: "'aalt' Access All Alternates lookup 0 subtable" uni0E26.short
EndChar

StartChar: uni0E26.short
Encoding: 65544 -1 475
Width: 619
GlyphClass: 2
Flags: W
AnchorPoint: "Anchor-12" 580 550 basechar 0
AnchorPoint: "Anchor-11" 480 -160 basechar 0
LayerCount: 2
Fore
SplineSet
437 377 m 2,0,1
 439 399 439 399 439 408 c 0,2,3
 439 459 439 459 409.5 483.5 c 128,-1,4
 380 508 380 508 320 508 c 0,5,6
 278 508 278 508 243.5 496.5 c 128,-1,7
 209 485 209 485 189.5 469 c 128,-1,8
 170 453 170 453 170 440 c 0,9,10
 170 421 170 421 185 409 c 128,-1,11
 200 397 200 397 214 397 c 0,12,13
 225 397 225 397 247 403 c 0,14,15
 251 404 251 404 260 406 c 128,-1,16
 269 408 269 408 275 408 c 0,17,18
 285 408 285 408 297 387 c 128,-1,19
 309 366 309 366 309 349 c 0,20,21
 309 334 309 334 300 334 c 0,22,23
 251 334 251 334 224 311 c 128,-1,24
 197 288 197 288 197 240 c 0,25,26
 197 218 197 218 200 188 c 0,27,28
 201 177 201 177 202 161 c 128,-1,29
 203 145 203 145 203 127 c 0,30,31
 203 65 203 65 165.5 29 c 128,-1,32
 128 -7 128 -7 63 -7 c 0,33,34
 13 -7 13 -7 -14 17.5 c 128,-1,35
 -41 42 -41 42 -41 78 c 0,36,37
 -41 121 -41 121 -18 141.5 c 128,-1,38
 5 162 5 162 39 162 c 0,39,40
 58 162 58 162 68 152.5 c 128,-1,41
 78 143 78 143 77 124 c 1,42,-1
 59 124 l 2,43,44
 41 124 41 124 29.5 113 c 128,-1,45
 18 102 18 102 18 85 c 0,46,47
 18 71 18 71 26 63 c 128,-1,48
 34 55 34 55 49 55 c 0,49,50
 92 55 92 55 92 118 c 0,51,52
 92 152 92 152 86 190 c 0,53,54
 81 217 81 217 81 237 c 0,55,56
 81 316 81 316 141 348 c 1,57,58
 106 361 106 361 82 385.5 c 128,-1,59
 58 410 58 410 58 439 c 0,60,61
 58 470 58 470 88.5 504.5 c 128,-1,62
 119 539 119 539 179 562.5 c 128,-1,63
 239 586 239 586 321 586 c 0,64,65
 432 586 432 586 495 544.5 c 128,-1,66
 558 503 558 503 558 416 c 0,67,68
 558 398 558 398 555 377 c 2,69,-1
 480 -160 l 1,70,-1
 362 -160 l 1,71,-1
 437 377 l 2,0,1
EndSplineSet
EndChar

StartChar: uni0E27
Encoding: 3623 3623 476
Width: 528
GlyphClass: 2
Flags: W
AnchorPoint: "Anchor-12" 481 550 basechar 0
AnchorPoint: "Anchor-11" 404 0 basechar 0
LayerCount: 2
Fore
SplineSet
169 19.5 m 128,-1,1
 136 47 136 47 136 92 c 0,2,3
 136 136 136 136 162.5 160.5 c 128,-1,4
 189 185 189 185 228 185 c 0,5,6
 251 185 251 185 264.5 174.5 c 128,-1,7
 278 164 278 164 278 147 c 0,8,9
 278 138 278 138 274 133 c 1,10,11
 258 139 258 139 244 139 c 0,12,13
 224 139 224 139 213 128.5 c 128,-1,14
 202 118 202 118 202 98 c 0,15,16
 202 82 202 82 213 72 c 128,-1,17
 224 62 224 62 241 62 c 0,18,19
 297 62 297 62 306 139 c 2,20,-1
 340 378 l 2,21,22
 343 396 343 396 343 413 c 0,23,24
 343 499 343 499 255 499 c 0,25,26
 215 499 215 499 183 481.5 c 128,-1,27
 151 464 151 464 122 434 c 0,28,29
 108 424 108 424 91 424 c 0,30,31
 76 424 76 424 60 442.5 c 128,-1,32
 44 461 44 461 32 492 c 1,33,34
 76 533 76 533 135 559.5 c 128,-1,35
 194 586 194 586 267 586 c 0,36,37
 357 586 357 586 408.5 543.5 c 128,-1,38
 460 501 460 501 460 421 c 0,39,40
 460 400 460 400 457 380 c 2,41,-1
 422 133 l 2,42,43
 412 62 412 62 368 27 c 128,-1,44
 324 -8 324 -8 260 -8 c 0,45,0
 202 -8 202 -8 169 19.5 c 128,-1,1
EndSplineSet
EndChar

StartChar: uni0E28
Encoding: 3624 3624 477
Width: 626
GlyphClass: 2
Flags: W
AnchorPoint: "Anchor-12" 591 550 basechar 0
AnchorPoint: "Anchor-11" 514 0 basechar 0
LayerCount: 2
Fore
SplineSet
546 492 m 1,1,2
 567 455 567 455 567 403 c 0,3,4
 567 387 567 387 563 353 c 2,5,-1
 514 0 l 1,6,-1
 395 0 l 1,7,-1
 444 348 l 2,8,9
 448 373 448 373 448 403 c 0,10,11
 448 454 448 454 420 480.5 c 128,-1,12
 392 507 392 507 327 507 c 0,13,14
 241 507 241 507 200.5 454 c 128,-1,15
 160 401 160 401 160 307 c 0,16,17
 160 290 160 290 161 282 c 1,18,19
 187 322 187 322 225.5 346 c 128,-1,20
 264 370 264 370 310 370 c 0,21,22
 351 370 351 370 375.5 348.5 c 128,-1,23
 400 327 400 327 400 288 c 0,24,25
 400 238 400 238 370.5 210 c 128,-1,26
 341 182 341 182 295 182 c 0,27,28
 269 182 269 182 251.5 195 c 128,-1,29
 234 208 234 208 234 226 c 0,30,31
 234 239 234 239 240 249 c 128,-1,32
 246 259 246 259 258 262 c 1,33,34
 267 233 267 233 296 233 c 0,35,36
 315 233 315 233 326 245.5 c 128,-1,37
 337 258 337 258 337 278 c 0,38,39
 337 291 337 291 327 298.5 c 128,-1,40
 317 306 317 306 300 306 c 0,41,42
 183 306 183 306 134 0 c 1,43,-1
 29 0 l 2,44,45
 16 0 16 0 17 15 c 0,46,47
 18 39 18 39 30 67.5 c 128,-1,48
 42 96 42 96 64 137 c 0,49,50
 80 167 80 167 80 171 c 0,51,52
 80 177 80 177 71 197 c 0,53,54
 58 222 58 222 50 249.5 c 128,-1,55
 42 277 42 277 42 314 c 0,56,57
 42 396 42 396 77.5 457.5 c 128,-1,58
 113 519 113 519 178 552.5 c 128,-1,59
 243 586 243 586 330 586 c 0,60,61
 422 586 422 586 481 555 c 1,62,63
 522 563 522 563 552 587 c 128,-1,64
 582 611 582 611 598 641 c 1,65,66
 625 638 625 638 641.5 620.5 c 128,-1,67
 658 603 658 603 658 581 c 0,68,0
 658 508 658 508 546 492 c 1,1,2
EndSplineSet
EndChar

StartChar: uni0E29
Encoding: 3625 3625 478
Width: 692
GlyphClass: 2
Flags: W
AnchorPoint: "Anchor-12" 645 550 basechar 0
AnchorPoint: "Anchor-11" 568 0 basechar 0
LayerCount: 2
Fore
SplineSet
649 576 m 1,0,-1
 594 190 l 2,1,2
 586 132 586 132 575.5 102 c 128,-1,3
 565 72 565 72 543 50 c 0,4,5
 513 22 513 22 453 6.5 c 128,-1,6
 393 -9 393 -9 330 -9 c 0,7,8
 259 -9 259 -9 204 6 c 128,-1,9
 149 21 149 21 129 50 c 0,10,11
 112 76 112 76 112 119 c 0,12,13
 112 143 112 143 117 183 c 2,14,-1
 156 455 l 2,15,16
 159 470 159 470 159 489 c 0,17,18
 159 505 159 505 149.5 515 c 128,-1,19
 140 525 140 525 123 525 c 0,20,21
 104 525 104 525 92.5 513 c 128,-1,22
 81 501 81 501 81 481 c 0,23,24
 81 463 81 463 91.5 453 c 128,-1,25
 102 443 102 443 120 443 c 2,26,-1
 140 443 l 1,27,28
 140 422 140 422 128 409.5 c 128,-1,29
 116 397 116 397 93 397 c 0,30,31
 63 397 63 397 41.5 418.5 c 128,-1,32
 20 440 20 440 20 474 c 0,33,34
 20 523 20 523 57.5 554.5 c 128,-1,35
 95 586 95 586 154 586 c 0,36,37
 210 586 210 586 243.5 558.5 c 128,-1,38
 277 531 277 531 277 484 c 0,39,40
 277 470 277 470 275 452 c 2,41,-1
 235 176 l 2,42,43
 231 144 231 144 231 132 c 0,44,45
 231 106 231 106 241 95 c 0,46,47
 265 68 265 68 341 68 c 0,48,49
 416 68 416 68 446 95 c 0,50,51
 459 106 459 106 464 124 c 128,-1,52
 469 142 469 142 473 173 c 2,53,-1
 478 210 l 1,54,55
 463 193 463 193 438 183 c 128,-1,56
 413 173 413 173 384 173 c 0,57,58
 336 173 336 173 300.5 198.5 c 128,-1,59
 265 224 265 224 265 269 c 0,60,61
 265 319 265 319 297 345.5 c 128,-1,62
 329 372 329 372 371 372 c 0,63,64
 404 372 404 372 425 355.5 c 128,-1,65
 446 339 446 339 446 310 c 0,66,67
 446 283 446 283 431 269 c 128,-1,68
 416 255 416 255 393 255 c 0,69,70
 380 255 380 255 372 267 c 1,71,72
 395 279 395 279 395 300 c 0,73,74
 395 310 395 310 389 316 c 128,-1,75
 383 322 383 322 373 322 c 0,76,77
 357 322 357 322 347 312 c 128,-1,78
 337 302 337 302 337 283 c 0,79,80
 337 260 337 260 353 247.5 c 128,-1,81
 369 235 369 235 397 235 c 0,82,83
 440 235 440 235 464.5 259.5 c 128,-1,84
 489 284 489 284 497 340 c 2,85,-1
 531 576 l 1,86,-1
 649 576 l 1,0,-1
EndSplineSet
EndChar

StartChar: uni0E2A
Encoding: 3626 3626 479
Width: 637
GlyphClass: 2
Flags: W
AnchorPoint: "Anchor-12" 584 550 basechar 0
AnchorPoint: "Anchor-11" 507 0 basechar 0
LayerCount: 2
Fore
SplineSet
547 493 m 1,1,2
 568 456 568 456 568 416 c 0,3,4
 568 391 568 391 562 358 c 128,-1,5
 556 325 556 325 544 274 c 0,6,7
 528 202 528 202 524 177 c 0,8,9
 521 157 521 157 517 91 c 0,10,11
 515 44 515 44 512 19 c 0,12,13
 510 0 510 0 498 0 c 2,14,-1
 386 0 l 1,15,16
 394 62 394 62 394 104 c 0,17,18
 394 203 394 203 361 250.5 c 128,-1,19
 328 298 328 298 271 298 c 0,20,21
 209 298 209 298 179 254.5 c 128,-1,22
 149 211 149 211 149 140 c 0,23,24
 149 100 149 100 162.5 77.5 c 128,-1,25
 176 55 176 55 200 55 c 0,26,27
 220 55 220 55 230 66 c 128,-1,28
 240 77 240 77 240 96 c 0,29,30
 240 127 240 127 209 127 c 0,31,32
 190 127 190 127 175 118 c 1,33,34
 173 124 173 124 173 130 c 0,35,36
 173 148 173 148 188 161 c 128,-1,37
 203 174 203 174 228 174 c 0,38,39
 259 174 259 174 281 153 c 128,-1,40
 303 132 303 132 303 100 c 0,41,42
 303 48 303 48 272.5 19.5 c 128,-1,43
 242 -9 242 -9 185 -9 c 0,44,45
 121 -9 121 -9 78.5 31.5 c 128,-1,46
 36 72 36 72 36 143 c 0,47,48
 36 211 36 211 65 265 c 128,-1,49
 94 319 94 319 145.5 349 c 128,-1,50
 197 379 197 379 261 379 c 0,51,52
 324 379 324 379 365.5 353.5 c 128,-1,53
 407 328 407 328 427 284 c 1,54,55
 446 371 446 371 446 403 c 0,56,57
 446 450 446 450 415.5 474.5 c 128,-1,58
 385 499 385 499 327 499 c 0,59,60
 277 499 277 499 238.5 483.5 c 128,-1,61
 200 468 200 468 161 440 c 0,62,63
 153 434 153 434 144.5 430 c 128,-1,64
 136 426 136 426 128 426 c 0,65,66
 113 426 113 426 96.5 446 c 128,-1,67
 80 466 80 466 71 497 c 1,68,69
 119 536 119 536 185 561 c 128,-1,70
 251 586 251 586 330 586 c 0,71,72
 416 586 416 586 477 554 c 1,73,74
 521 562 521 562 551.5 586 c 128,-1,75
 582 610 582 610 598 641 c 1,76,77
 625 638 625 638 641.5 620.5 c 128,-1,78
 658 603 658 603 658 581 c 0,79,0
 658 507 658 507 547 493 c 1,1,2
EndSplineSet
EndChar

